<?xml version="1.0" encoding="UTF-8"?>
<!DOCTYPE svg PUBLIC "-//W3C//DTD SVG 1.1//EN" "http://www.w3.org/Graphics/SVG/1.1/DTD/svg11.dtd">
<!-- Creator: CorelDRAW 2020 (64-Bit) -->
<svg xmlns="http://www.w3.org/2000/svg" xml:space="preserve" width="73.919mm" height="11.2268mm" version="1.1" style="shape-rendering:geometricPrecision; text-rendering:geometricPrecision; image-rendering:optimizeQuality; fill-rule:evenodd; clip-rule:evenodd"
viewBox="0 0 2184.16 331.73"
 xmlns:xlink="http://www.w3.org/1999/xlink"
 xmlns:xodm="http://www.corel.com/coreldraw/odm/2003">
 <defs>
  <style type="text/css">
   <![CDATA[
    .str0 {stroke:#EBCA6A;stroke-width:2.25;stroke-miterlimit:22.9256}
    .fil0 {fill:#EECE7A}
   ]]>
  </style>
 </defs>
 <g id="Layer_x0020_1">
  <metadata id="CorelCorpID_0Corel-Layer"/>
  <path class="fil0 str0" d="M86.26 210c-1.05,-1.05 -3.29,-3.41 -6.7,-7.09 -3.42,-3.68 -5.65,-6.04 -6.7,-7.09 -2.63,-0 -3.94,2.36 -3.94,7.09 1.05,-0 3.94,1.18 8.67,3.55 4.73,2.36 7.62,3.55 8.67,3.54zm544.68 -21.28l0 -2.37c0,-7.35 -3.15,-11.03 -9.46,-11.03 -3.15,-0 -4.73,0.79 -4.73,2.37 0,2.1 1.84,4.46 5.52,7.09 3.68,2.62 6.57,3.94 8.67,3.94zm254.61 -3.15l-2.37 0c-2.63,0 -6.57,1.71 -11.82,5.12 -5.26,3.41 -7.88,5.91 -7.88,7.49l2.37 0.79c2.1,0.53 3.94,0.79 5.52,0.79 8.93,-0.01 13.66,-3.42 14.19,-10.25l0 -3.94zm1.58 -85.92c0.52,-5.79 0.52,-9.46 0,-11.04 -2.11,1.05 -4.47,3.68 -7.09,7.89 1.05,0.52 3.41,1.57 7.09,3.15zm17.34 2.36c-1.57,-5.26 -4.99,-8.67 -10.24,-10.25 -1.58,4.2 -1.84,7.09 -0.79,8.67 1.58,1.05 5.26,1.58 11.04,1.58zm172.63 105.62c-0.53,-0.53 -2.23,-2.36 -5.12,-5.51 -2.89,-3.16 -4.6,-5.26 -5.13,-6.31 -2.62,-0 -3.94,2.36 -3.94,7.09 0.53,-0 2.89,0.79 7.09,2.36 4.2,1.57 6.57,2.37 7.09,2.36zm-967.18 48.09c-2.1,8.41 -7.09,14.71 -14.98,18.92 -14.71,6.83 -34.94,18.92 -60.69,36.26 2.63,-6.83 6.83,-12.61 12.61,-17.34 16.29,-11.56 37.31,-24.17 63.06,-37.83zm-19.71 -149.77c0,4.2 -1.84,9.2 -5.52,14.98l-1.57 -0.01c1.05,-5.77 -0.26,-8.67 -3.94,-8.67 -4.2,-0.01 -6.57,7.36 -7.09,22.07 0,8.93 0,18.13 0,27.59l-1.58 -0.01c0,-4.72 -2.1,-10.5 -6.3,-17.34 -4.2,-6.83 -8.67,-10.25 -13.4,-10.25 0,5.78 -3.42,8.67 -10.25,8.67 -6.83,-0.01 -10.25,-4.2 -10.25,-12.61 0,-7.35 4.2,-11.03 12.61,-11.03 12.61,-0.01 21.28,7.09 26.01,21.28 0,-9.46 0,-18.66 0,-27.59 1.05,-11.56 4.99,-17.34 11.82,-17.34 6.31,-0 9.46,3.42 9.46,10.25zm345.25 52.81c-1.58,6.84 -4.99,12.88 -10.25,18.13 0,0 -1.05,0 -3.15,0 -1.58,-0.53 -3.42,-0.79 -5.52,-0.79 -17.34,0 -36.26,5.52 -56.75,16.55 -20.5,11.04 -35.21,16.56 -44.14,16.56 -9.46,-0 -17.87,-4.2 -25.23,-12.61 -31.53,24.17 -71.99,36.26 -121.39,36.26 -30.48,0 -52.81,-3.15 -67,-9.46 -1.05,-0 -2.76,2.36 -5.12,7.09 -2.36,4.73 -4.33,7.09 -5.91,7.09 -2.1,-0.01 -6.31,-1.84 -12.61,-5.52 -7.88,-3.68 -12.61,-5.52 -14.19,-5.52 -5.26,12.08 -13.14,21.02 -23.65,26.8 -14.19,7.88 -27.33,11.83 -39.41,11.83l0 -3.16c31,-13.66 49.66,-27.85 55.97,-42.56 0,-25.75 6.04,-38.63 18.13,-38.63 -0.53,-0.01 3.68,2.76 12.61,8.28 8.93,5.52 18.92,10.11 29.96,13.79 16.29,5.26 34.16,7.88 53.6,7.88 21.54,0 44.14,-2.89 67.79,-8.67 28.9,-7.36 49.13,-17.08 60.69,-29.17 0.53,-0 1.31,0.79 2.37,2.36 -0.53,1.57 -1.05,3.68 -1.58,6.31 4.73,4.72 10.51,7.09 17.34,7.09 8.93,-0 25.49,-6.83 49.66,-20.5 -16.29,-5.78 -27.33,-8.67 -33.11,-8.67 -2.1,-0.01 -3.41,0.79 -3.94,2.36l-22.07 -0.79 0 -1.58c0,-14.71 8.67,-22.07 26.01,-22.07 5.26,-0 13.4,2.37 24.44,7.09 13.66,5.78 21.81,8.93 24.44,9.46 11.04,3.15 28.38,4.73 52.03,4.72zm-126.91 87.49c0,5.25 -1.84,11.57 -5.52,18.92 -5.25,0 -11.03,-1.58 -17.34,-4.73 -1.57,1.05 -3.94,4.99 -7.09,11.83 -13.14,-3.68 -19.7,-8.14 -19.7,-13.4 0,-1.58 1.84,-6.05 5.51,-13.4 5.78,-0 11.83,1.57 18.13,4.73 1.58,-2.63 4.73,-6.83 9.46,-12.61l16.55 8.67zm-100.11 -94.59c2.63,3.68 3.94,7.89 3.94,12.62 0,11.56 -4.2,17.34 -12.61,17.34 -8.94,-0 -13.4,-4.73 -13.4,-14.19 0,-6.84 2.1,-14.19 6.31,-22.07 3.68,-6.31 7.62,-12.61 11.82,-18.92l1.58 -0c-5.78,19.97 -8.67,30.22 -8.67,30.75 0,5.25 1.84,7.88 5.52,7.88 4.73,-0 6.31,-3.68 4.73,-11.03l0.79 -2.37zm-7.88 -114.29c-1.57,21.55 -20.23,37.05 -55.97,46.51l-3.15 -0.79c12.61,-4.72 25.49,-13.92 38.63,-27.59 0,-4.73 -4.73,-7.09 -14.19,-7.09 -8.93,-0 -17.34,2.37 -25.22,7.09 5.25,-12.61 9.72,-20.36 13.4,-23.25 3.68,-2.9 9.98,-4.34 18.92,-4.34 11.56,0 20.76,3.15 27.59,9.46zm200.22 197.06c-1.05,2.63 -4.6,5.78 -10.64,9.46 -6.05,3.68 -11.96,5.52 -17.74,5.52 -6.31,-0 -9.46,-2.63 -9.46,-7.88 0,-4.21 2.63,-8.93 7.88,-14.19l7.09 -6.31c-2.1,-1.57 -4.46,-2.36 -7.09,-2.36 -3.15,0 -6.3,0.27 -9.46,0.79 2.62,-6.84 7.62,-10.25 14.97,-10.25 3.15,-0 6.83,1.31 11.04,3.94 -1.05,2.1 -3.16,4.99 -6.31,8.67 -6.83,7.88 -10.25,12.61 -10.25,14.19 0,3.68 2.37,5.52 7.09,5.52 5.26,0 12.87,-2.36 22.86,-7.09zm-10.25 -193.91c0,5.78 -3.15,13.53 -9.46,23.25 -6.31,9.72 -13.66,16.69 -22.07,20.89 9.46,-12.62 14.19,-21.81 14.19,-27.59 -101.42,21.02 -187.6,52.81 -258.54,95.38 2.63,-10.51 5.25,-16.55 7.88,-18.13 27.33,-18.39 69.63,-37.57 126.91,-57.54 54.65,-18.39 101.68,-30.48 141.1,-36.26zm345.25 109.56c-5.26,3.68 -11.83,7.89 -19.71,12.62 -12.09,-2.63 -21.02,-3.94 -26.8,-3.94 -18.39,-0 -33.63,3.15 -45.72,9.46 0,28.37 -4.73,42.57 -14.19,42.57 -7.36,0 -16.03,-3.42 -26.01,-10.25 -2.1,6.83 -5.65,12.22 -10.64,16.16 -4.99,3.94 -10.9,5.91 -17.73,5.91 0,26.8 -14.98,48.61 -44.93,65.43 -23.12,13.14 -53.86,23.65 -92.23,31.53 -34.68,7.35 -67.79,11.04 -99.32,11.04 -100.89,-0 -172.1,-28.11 -213.61,-84.34l0.79 -3.16c55.18,42.04 127.7,63.06 217.56,63.06 57.28,-0 109.04,-8.15 155.29,-24.44 44.67,-15.25 67,-31.53 67,-48.87 0,-4.73 -1.71,-9.59 -5.12,-14.58 -3.41,-4.99 -5.12,-8.28 -5.12,-9.85 0,-2.63 2.1,-8.41 6.3,-17.34 8.41,6.83 13.93,10.25 16.56,10.25 9.98,-0 17.6,-4.99 22.86,-14.97 7.88,-14.19 11.82,-21.28 11.82,-21.28 12.09,-10.51 31,-17.6 56.75,-21.28 -16.82,-6.83 -28.11,-10.25 -33.89,-10.25 -1.57,0 -2.63,1.05 -3.15,3.16l-25.23 -0 0 -3.94c0,-15.77 9.46,-23.65 28.38,-23.65 7.88,-0 18.66,3.94 32.32,11.83 21.02,11.03 43.62,20.75 67.79,29.16zm-256.97 17.34c0,13.13 -3.94,25.23 -11.82,36.26 -7.89,11.03 -11.83,17.08 -11.83,18.13 0,16.29 -4.2,31.53 -12.61,45.72 -9.99,16.29 -22.86,24.44 -38.63,24.44 -14.19,-0.01 -27.59,-2.1 -40.2,-6.31l1.58 -2.37c11.04,0 21.54,-1.31 31.53,-3.94 9.98,-2.63 21.15,-9.98 33.5,-22.07 12.35,-12.09 18.52,-22.33 18.52,-30.74 0,-4.73 -2.36,-9.46 -7.09,-14.19 -4.73,-4.73 -7.09,-7.09 -7.09,-7.09 0,-2.63 1.58,-8.93 4.73,-18.92 4.73,3.15 9.98,4.73 15.76,4.73 7.36,-0.01 12.35,-2.89 14.97,-8.67 -1.57,-13.14 -5.52,-33.63 -11.82,-61.48 -5.78,-24.18 -9.2,-37.31 -10.25,-39.42 -5.78,-13.66 -8.67,-22.07 -8.67,-25.22 0,-4.2 2.1,-10.51 6.31,-18.92 4.73,5.25 11.56,13.92 20.49,26.01 -0.52,1.57 -1.57,4.2 -3.15,7.88 -1.57,3.68 -2.36,6.31 -2.36,7.88 0,-0.53 3.02,12.35 9.07,38.62 6.05,26.28 9.07,42.83 9.07,49.66zm29.95 63.85l-14.98 14.97 -14.97 -15.77 14.19 -14.97 15.76 15.77zm-81.19 -131.63c0,13.65 -3.94,20.49 -11.83,20.49 -4.2,-0.01 -7.62,-1.05 -10.25,-3.15 -4.2,6.3 -7.62,9.46 -10.25,9.46 -7.35,-0 -11.04,-4.47 -11.04,-13.4 0,-3.15 0.53,-6.3 1.58,-9.46l3.15 -1.58c0,6.3 2.63,9.46 7.88,9.46 4.73,-0 7.09,-4.73 7.09,-14.19l3.94 -3.94c0,6.83 2.36,10.25 7.09,10.25 3.68,-0 6.04,-4.73 7.09,-14.19l3.94 -3.16c1.05,4.2 1.58,8.67 1.58,13.4zm233.32 139.52c-1.57,8.4 -6.57,14.71 -14.97,18.92 -14.19,7.36 -34.42,19.44 -60.69,36.26 2.63,-6.84 6.83,-12.61 12.61,-17.34 16.29,-11.56 37.31,-24.18 63.06,-37.84zm-139.52 -58.34c0,8.94 -1.84,19.45 -5.52,31.53l-33.11 -150.55c0,-11.57 2.1,-19.71 6.31,-24.44 1.57,2.62 7.35,26.27 17.34,70.94 9.98,44.66 14.97,68.84 14.97,72.51zm67 -29.16c0,11.04 -1.05,20.24 -3.15,27.59l-1.57 -0c0,-24.18 -4.99,-41.25 -14.98,-51.23l0 -20.49c13.14,13.66 19.71,28.38 19.71,44.14zm128.48 77.24c-1.05,2.63 -4.59,5.79 -10.64,9.47 -6.05,3.67 -11.96,5.52 -17.74,5.52 -6.83,-0 -10.25,-2.63 -10.25,-7.88 0,-4.2 2.89,-8.93 8.67,-14.19l7.09 -6.31c-2.1,-1.58 -4.47,-2.36 -7.09,-2.36 -3.68,-0 -6.83,0.26 -9.46,0.79 2.62,-6.84 7.62,-10.25 14.97,-10.25 3.15,0 6.57,1.31 10.25,3.94 -0.52,1.57 -2.63,4.47 -6.3,8.67 -6.31,7.88 -9.46,12.61 -9.46,14.19 0,3.68 2.1,5.52 6.31,5.52 5.78,-0.01 13.66,-2.36 23.65,-7.1zm-169.47 -176.56c2.63,4.2 3.94,8.68 3.94,13.4 0,11.04 -4.2,16.56 -12.61,16.56 -8.93,-0 -13.4,-4.73 -13.4,-14.19 0,-6.83 1.97,-13.8 5.91,-20.89 3.94,-7.1 8.02,-13.8 12.22,-20.1l1.58 0c-5.78,19.97 -8.67,30.22 -8.67,30.74 0,5.25 1.84,7.88 5.52,7.88 4.73,-0.01 6.31,-3.68 4.73,-11.03l0.79 -2.37zm270.37 212.04c3.15,4.2 4.73,8.68 4.73,13.4 0,11.56 -4.2,17.34 -12.61,17.34 -9.46,-0 -14.19,-4.99 -14.19,-14.97 0,-6.84 2.1,-13.67 6.31,-20.49 4.2,-6.84 8.15,-13.66 11.83,-20.49l1.57 0.79c-5.78,19.97 -8.67,30.22 -8.67,30.74 0,5.25 1.84,7.88 5.52,7.88 4.73,-0 6.31,-3.94 4.73,-11.82l0.79 -2.37zm-107.2 -232.53c0,5.78 -3.15,13.54 -9.46,23.26 -6.31,9.72 -13.4,16.95 -21.28,21.68 8.93,-13.14 13.4,-22.6 13.4,-28.38 -53.6,11.03 -108.78,32.85 -165.53,65.43 2.63,-9.99 5.25,-16.03 7.88,-18.13 47.29,-32.06 105.63,-53.34 174.99,-63.85zm71.73 135.58c0,13.13 -3.81,25.23 -11.43,36.26 -7.62,11.03 -11.43,17.08 -11.43,18.13 0,16.81 -4.2,32.58 -12.61,47.29 -9.46,17.34 -21.81,26.01 -37.05,26.01 -8.93,-0 -22.86,-3.15 -41.78,-9.46l0.79 -2.37c11.56,0 22.6,-1.57 33.11,-4.73 8.93,-2.11 19.57,-9.2 31.92,-21.28 12.35,-12.09 18.52,-22.33 18.52,-30.74 0,-4.73 -2.36,-9.46 -7.09,-14.19 -4.73,-4.73 -7.09,-7.09 -7.09,-7.09 0,-2.63 1.84,-8.93 5.52,-18.92 4.2,3.15 9.2,4.73 14.98,4.73 7.88,-0.01 12.87,-2.89 14.97,-8.67 -1.57,-13.14 -5.52,-33.63 -11.82,-61.48 -5.26,-24.18 -8.41,-37.31 -9.46,-39.42 -6.31,-13.66 -9.46,-22.07 -9.46,-25.22 0,-4.2 2.1,-10.51 6.3,-18.92 4.73,5.25 11.3,13.92 19.71,26.01 0,1.57 -0.66,4.2 -1.97,7.88 -1.31,3.68 -1.97,6.31 -1.97,7.88 0,-0.53 2.89,12.35 8.67,38.62 5.78,26.28 8.67,42.83 8.67,49.66zm137.16 79.61c-1.58,8.41 -6.57,14.71 -14.98,18.92 -14.19,6.83 -34.42,18.92 -60.69,36.26 2.63,-6.83 6.83,-12.61 12.61,-17.34 16.29,-11.57 37.31,-24.17 63.06,-37.84zm-180.51 -155.29c0,14.19 -3.94,21.28 -11.83,21.28 -4.2,-0.01 -7.35,-1.31 -9.46,-3.94 -4.73,6.31 -8.41,9.46 -11.04,9.46 -6.83,-0 -10.24,-4.2 -10.24,-12.61 0,-3.68 0.52,-6.83 1.57,-9.46l2.36 -1.58c0,5.78 2.63,8.68 7.88,8.68 5.25,-0 7.88,-4.47 7.88,-13.4l3.94 -4.73c0,7.35 2.1,11.04 6.31,11.04 4.2,-0 6.83,-4.73 7.88,-14.19l3.15 -3.16c1.05,3.68 1.58,7.89 1.58,12.61zm85.92 89.07c0,8.94 -1.58,19.45 -4.73,31.53l-33.89 -150.55c0,-11.57 2.37,-19.71 7.09,-24.44 1.57,2.62 7.23,26.27 16.95,70.94 9.72,44.66 14.58,68.84 14.58,72.51zm167.89 10.24c0,25.23 -7.88,37.84 -23.64,37.84 -12.09,-0.01 -20.5,-5.25 -25.23,-15.76 -3.68,17.34 -13.4,26.01 -29.17,26.01 -8.41,0 -14.97,-3.42 -19.71,-10.25 -4.73,-6.83 -7.09,-14.45 -7.09,-22.86 -8.93,15.23 -17.87,22.86 -26.8,22.86 -10.51,-0.01 -15.76,-6.57 -15.76,-19.7 0,-9.47 6.7,-18 20.1,-25.62 13.4,-7.62 20.1,-11.96 20.1,-13 1.05,-4.73 1.58,-8.93 1.58,-12.61l7.09 -10.25c1.57,4.2 2.36,9.2 2.36,14.98 0,3.15 -0.39,7.75 -1.18,13.79 -0.79,6.04 -1.18,10.64 -1.18,13.8 0,15.23 7.62,22.86 22.86,22.86 14.71,-0 22.07,-7.09 22.07,-21.28 0,-4.73 -1.18,-12.22 -3.55,-22.47 -2.36,-10.25 -3.55,-17.73 -3.55,-22.46 0,-5.26 2.37,-12.61 7.09,-22.07 3.68,15.24 7.36,30.48 11.04,45.72 5.25,20.49 12.87,30.74 22.86,30.74 6.31,-0 9.46,-2.36 9.46,-7.09 0,-8.41 -3.15,-20.75 -9.46,-37.04 -6.31,-16.29 -9.46,-25.23 -9.46,-26.8 0,-3.16 1.05,-7.35 3.15,-12.61 2.1,-5.26 3.15,-9.2 3.15,-11.83 15.24,33.63 22.86,62.01 22.86,85.12zm-83.55 -90.64c-2.1,9.98 -8.41,13.66 -18.92,11.04 -4.2,9.46 -12.74,17.21 -25.62,23.25 -12.87,6.04 -25.62,9.06 -38.23,9.06l-1.57 -1.58c4.2,0 13.66,-3.68 28.37,-11.03 16.82,-7.89 27.33,-14.71 31.53,-20.5 -6.31,-2.63 -9.46,-6.05 -9.46,-10.25 0,-2.63 0.66,-5.65 1.97,-9.07 1.31,-3.41 1.71,-5.65 1.18,-6.7 -1.05,-0.53 -1.57,-1.58 -1.57,-3.16 0,-3.15 3.41,-4.73 10.25,-4.73 4.2,0 9.2,2.76 14.97,8.28 5.78,5.52 8.15,10.64 7.09,15.37zm189.18 149.76c-1.57,8.41 -6.57,14.45 -14.97,18.13 -14.19,7.35 -34.42,19.44 -60.69,36.26 3.15,-6.31 7.35,-12.09 12.61,-17.34 16.29,-11.57 37.31,-23.91 63.06,-37.05zm-242.78 -205.73c3.15,4.2 4.73,8.67 4.73,13.4 0,11.56 -4.2,17.34 -12.61,17.34 -8.94,-0 -13.4,-4.99 -13.4,-14.98 0,-6.83 1.97,-13.79 5.91,-20.89 3.94,-7.1 8.02,-13.8 12.22,-20.1l0.79 0.79c-5.25,19.97 -7.88,30.22 -7.88,30.74 0,5.25 1.57,7.88 4.73,7.88 5.26,0 7.09,-3.94 5.52,-11.82l0 -2.37zm109.57 42.56c0,14.19 -4.2,21.29 -12.61,21.29 -3.68,-0 -6.83,-1.31 -9.46,-3.94 -4.73,6.3 -8.14,9.46 -10.25,9.46 -7.36,0 -11.04,-4.2 -11.04,-12.61 0,-3.68 0.53,-6.83 1.58,-9.46l3.15 -1.58c0,5.78 2.63,8.67 7.88,8.67 4.73,-0.01 7.09,-4.46 7.09,-13.4l3.94 -4.73c0,7.36 2.37,11.04 7.09,11.04 3.68,0 6.04,-4.73 7.09,-14.19l3.15 -3.94c1.57,4.2 2.37,8.68 2.37,13.4zm62.27 93.8c0,8.94 -1.57,19.45 -4.73,31.53l-33.9 -150.55c0,-11.57 2.37,-19.71 7.09,-24.44 1.58,2.62 7.23,26.27 16.95,70.94 9.72,44.66 14.58,68.84 14.58,72.51zm-80.4 -134c0,11.56 -1.31,20.76 -3.94,27.59l-0.79 -0c0,-24.17 -5.26,-41.25 -15.76,-51.23l0.79 -20.5c13.14,13.66 19.7,28.38 19.7,44.14zm143.46 40.99c0,3.68 -1.84,8.41 -5.52,14.19l-1.58 0c1.05,-5.26 -0.26,-7.88 -3.94,-7.88 -4.2,-0 -6.31,7.09 -6.31,21.28 -0.53,9.46 -0.79,18.66 -0.79,27.59l-1.57 -0.01c0,-4.2 -1.97,-9.72 -5.91,-16.55 -3.94,-6.83 -8.54,-10.25 -13.8,-10.25 0,5.26 -3.42,7.89 -10.25,7.89 -6.31,-0 -9.46,-3.94 -9.46,-11.83 0,-7.36 4.2,-11.04 12.61,-11.04 12.09,-0 20.49,6.83 25.22,20.49 0,-8.94 0,-17.87 0,-26.8 1.05,-11.57 4.99,-17.34 11.82,-17.34 6.31,-0 9.46,3.42 9.46,10.24zm1058.99 102.01c-6.82,3.95 -14.3,-3.21 -18.5,-7.42 -2.63,4.2 -4.99,8.41 -7.09,12.61 -5.26,6.83 -11.3,10.24 -18.13,10.24 -5.78,-0.01 -11.3,-1.83 -16.55,-5.52 -7.88,8.41 -17.34,12.61 -28.38,12.61 -9.46,-0.01 -20.23,-4.46 -32.32,-13.4 -54.13,17.34 -124.81,32.05 -212.04,44.14 -99.32,13.66 -199.69,20.49 -301.11,20.49 -176.04,-0.01 -315.83,-12.61 -419.34,-37.84 -1.05,0 -2.76,1.97 -5.13,5.91 -2.36,3.94 -4.33,5.91 -5.91,5.91 -2.1,-0.01 -6.7,-1.84 -13.8,-5.52 -7.09,-3.68 -11.43,-5.52 -13.01,-5.52 -5.25,12.08 -13.4,21.02 -24.44,26.8 -13.66,7.88 -26.54,11.83 -38.62,11.83l0 -3.16c31,-13.66 49.66,-27.85 55.96,-42.56 0,-25.75 5.78,-38.63 17.34,-38.63 3.16,-0.01 8.02,3.02 14.58,9.06 6.57,6.04 12.22,9.85 16.95,11.43 95.11,22.6 239.37,33.9 432.75,33.9 200.22,-0 375.21,-22.07 524.98,-66.21l0 4.72c-1.05,1.58 -3.42,4.47 -7.09,8.68 4.2,4.2 9.72,6.31 16.55,6.31 8.94,-0 21.28,-7.88 37.05,-23.65 0.53,1.84 1.05,3.68 1.57,5.52 0,0.52 -1.31,3.41 -3.94,8.67 2.63,2.62 5.78,3.94 9.46,3.94 11.56,-0.01 13.32,-9.46 18.58,-28.38 1.73,-0.87 2.81,-1.16 4.91,-1.47 0.71,4.23 1.24,9.49 0.84,12.8 12.08,-1.07 25.14,-8.61 33.27,-16.61 -7.32,-12.72 -23.22,-27.86 -36.21,-43.37 -12.63,-15.09 -7.08,-26.29 -2.58,-43.18 6.41,1.24 40.11,52.29 52.88,89.86 -3.27,8.83 -6.55,17.65 -9.82,26.47 -7.89,5.47 -15.78,8.97 -23.67,10.5zm-106.78 39.87c-3.15,16.3 -8.14,24.44 -14.98,24.44 -2.63,-0.01 -6.04,-1.05 -10.25,-3.15 -6.83,5.78 -11.56,8.67 -14.19,8.67 -1.05,-0 -2.89,-0.92 -5.52,-2.76 -2.63,-1.84 -4.73,-2.76 -6.31,-2.76 -5.78,-0.01 -18.66,5.78 -38.63,17.34 -22.07,12.61 -40.2,20.49 -54.39,23.65l-0.79 -2.37c13.66,-3.68 32.32,-13.4 55.96,-29.16 19.97,-13.66 34.42,-20.49 43.36,-20.49 1.57,-0 3.55,0.79 5.91,2.37 2.37,1.57 4.34,2.36 5.91,2.36 0.53,-0 4.73,-2.89 12.61,-8.67 0.52,0 1.71,0.53 3.55,1.58 1.84,1.04 3.55,1.57 5.12,1.57 2.1,-0 3.55,-1.71 4.33,-5.12 0.79,-3.42 3.55,-5.91 8.28,-7.49zm89.07 -0.79c-1.58,8.41 -6.57,14.46 -14.97,18.14 -14.19,7.35 -34.42,19.44 -60.7,36.26 2.63,-6.31 6.83,-12.09 12.61,-17.34 16.29,-11.57 37.31,-23.91 63.06,-37.06zm43.35 -12.61l-14.97 14.97 -15.77 -15.77 14.98 -14.97 15.76 15.77zm-90.65 -133.22c-1.57,21.54 -20.49,37.05 -56.75,46.51l-2.36 -0.79c12.61,-4.72 25.49,-13.92 38.63,-27.58 0,-4.73 -4.99,-7.09 -14.98,-7.09 -8.41,-0 -16.55,2.1 -24.44,6.31 5.26,-12.09 9.72,-19.57 13.4,-22.47 3.68,-2.9 9.99,-4.33 18.92,-4.33 11.04,-0 20.23,3.15 27.59,9.46z"/>
 </g>
</svg>
