<?xml version="1.0" encoding="UTF-8"?>
<!DOCTYPE svg PUBLIC "-//W3C//DTD SVG 1.1//EN" "http://www.w3.org/Graphics/SVG/1.1/DTD/svg11.dtd">
<!-- Creator: CorelDRAW 2020 (64-Bit) -->
<svg xmlns="http://www.w3.org/2000/svg" xml:space="preserve" width="42.3577mm" height="42.0605mm" version="1.1" style="shape-rendering:geometricPrecision; text-rendering:geometricPrecision; image-rendering:optimizeQuality; fill-rule:evenodd; clip-rule:evenodd"
viewBox="0 0 509.01 505.44"
 xmlns:xlink="http://www.w3.org/1999/xlink"
 xmlns:xodm="http://www.corel.com/coreldraw/odm/2003">
 <defs>
  <style type="text/css">
   <![CDATA[
    .fil0 {fill:#EECE7A;fill-rule:nonzero}
   ]]>
  </style>
 </defs>
 <g id="Layer_x0020_1">
  <metadata id="CorelCorpID_0Corel-Layer"/>
  <g id="_2087925841296">
   <path class="fil0" d="M60.1 417.12c-9.8,5.45 -20.31,14 -29.74,25.5 -4.69,5.76 -9.13,12.26 -12.91,19.61 -1.89,3.69 -3.6,7.61 -4.99,11.8l-0.59 1.85 -0.77 2.87c-0.47,1.92 -0.86,3.84 -1.13,5.74 -0.51,3.75 -0.77,7.33 -1.16,11.22l0.09 0.01c3.85,0.34 7.32,0.74 11.03,0.96 1.88,0.06 3.82,0.01 5.78,-0.18 0.99,-0.11 1.95,-0.19 2.95,-0.33l1.48 -0.23 0.92 -0.16c4.5,-0.89 8.68,-2.32 12.6,-3.95 7.83,-3.34 14.55,-7.73 20.44,-12.39 11.73,-9.4 20.04,-20.1 25.6,-29.72 5.57,-9.64 8.28,-18.3 9.53,-24.24 1.23,-6 1.21,-9.35 1.25,-9.34 -0.11,-0.18 -3.87,13.23 -17.46,28.9 -6.71,7.76 -15.77,16.11 -26.94,23.22 -5.57,3.52 -11.68,6.74 -18.12,9.05 -3.22,1.14 -6.54,2.07 -9.82,2.6l-0.54 0.08 0.02 -0.01c0.01,-0.01 -0,-0.02 -0,-0.03l-0.01 -0.02c0,-0.02 0.01,-0.02 0.01,-0.02 0,0 -0.01,0 -0.03,0l-0.03 -0.01 -0.01 -0.01 0.27 -0.98c1.02,-3.36 2.27,-6.68 3.69,-9.92 2.86,-6.5 6.3,-12.59 9.93,-18.2 7.3,-11.2 15.46,-20.39 23.27,-26.93 7.77,-6.6 15.3,-10.41 20.9,-12.08 5.59,-1.67 9.03,-1.58 9,-1.65 0,0.09 -3.23,-1.06 -9.44,-0.84 -6.17,0.19 -15.25,2.31 -25.07,7.85z"/>
   <path class="fil0" d="M99.85 402.92c0,7.94 12.27,7.94 12.27,0 0,-7.94 -12.27,-7.94 -12.27,0z"/>
   <path class="fil0" d="M71.99 446.39c0,-11.12 -17.21,-11.12 -17.21,0 0,11.11 17.21,11.11 17.21,0z"/>
   <path class="fil0" d="M142.04 354.6c-0.49,0.09 -1.19,0.2 -1.39,0.25 -0.62,0.13 -1.22,0.3 -1.83,0.47 -1.2,0.32 -2.38,0.74 -3.51,1.18 -2.27,0.92 -4.4,2.12 -6.21,3.62 -1.81,1.5 -3.23,3.33 -4.07,5.15 -1.71,3.77 -1.15,6.91 -0.69,8.73 0.53,1.88 1.06,2.78 1.04,2.79 0.01,0 0.13,-1.06 0.63,-2.79 0.47,-1.71 1.45,-4.08 3.41,-5.72 1.91,-1.64 4.76,-2.6 8.37,-3.13 0.91,-0.12 1.85,-0.22 2.84,-0.31l1.49 -0.11c0.37,-0.03 0.25,0 0.32,0.02l0.04 0.05c0.08,0.13 -0.02,0.23 -0.03,0.24 0,0 0.11,-0.08 0.22,0.06 0.1,-0.19 -0.15,0.67 -0.27,1.08l-0.45 1.49c-0.28,0.97 -0.58,1.88 -0.9,2.72 -1.24,3.48 -2.74,5.98 -4.85,7.65 -2.1,1.66 -4.62,2.44 -6.34,2.87 -1.78,0.39 -2.84,0.5 -2.84,0.52 0.01,-0.02 0.91,0.54 2.74,1.13 1.82,0.57 4.75,1.29 8.62,0.38 1.91,-0.48 3.98,-1.47 5.81,-2.92 1.87,-1.47 3.51,-3.33 4.87,-5.39 0.69,-1.04 1.3,-2.1 1.88,-3.23 0.28,-0.54 0.55,-1.1 0.82,-1.65 0.28,-0.65 0.42,-0.88 0.91,-2.16 1.56,-4.25 3.13,-8.91 4.69,-13.62l0.11 -0.37c-4.73,0.14 -9.24,0.15 -13.76,0.75l-1.68 0.23z"/>
   <path class="fil0" d="M103.33 357.47c-0.18,0.39 -0.46,0.93 -0.52,1.1 -0.21,0.48 -0.4,0.99 -0.57,1.48 -0.35,1.01 -0.68,2.02 -0.91,3.05 -0.48,2.04 -0.71,4.13 -0.55,6.12 0.17,2 0.73,3.9 1.6,5.4 1.78,3.02 4.24,4.2 5.75,4.76 1.55,0.57 2.45,0.63 2.44,0.65 0.01,-0.01 -0.68,-0.63 -1.64,-1.82 -0.95,-1.16 -2.12,-3.02 -2.29,-5.19 -0.2,-2.15 0.54,-4.6 1.95,-7.39 0.35,-0.7 0.75,-1.41 1.17,-2.12l0.67 -1.1c0.15,-0.28 0.12,-0.16 0.16,-0.2l0.06 -0.01c0.14,0.02 0.15,0.14 0.15,0.14 0,0 0,-0.11 0.15,-0.12 -0.08,-0.19 0.4,0.42 0.63,0.71l0.82 1.03c0.51,0.68 1.02,1.33 1.45,1.98 1.81,2.59 2.81,4.88 2.92,7.17 0.14,2.29 -0.57,4.41 -1.13,5.84 -0.6,1.43 -1.03,2.24 -1.02,2.24 -0.01,-0.01 0.82,-0.37 2.15,-1.35 1.28,-0.99 3.24,-2.67 4.49,-5.84 0.62,-1.57 0.94,-3.48 0.84,-5.49 -0.09,-2.02 -0.59,-4.09 -1.35,-6.06 -0.4,-0.98 -0.83,-1.95 -1.32,-2.89 -0.25,-0.48 -0.49,-0.93 -0.75,-1.38 -0.33,-0.53 -0.41,-0.74 -1.06,-1.71 -2.18,-3.19 -4.66,-6.56 -7.17,-10.01l-0.19 -0.25c-2.25,3.37 -4.46,6.52 -6.27,9.98l-0.66 1.27z"/>
   <path class="fil0" d="M130.33 389.46c-1.03,1.26 -1.41,2.05 -1.41,2.04 0,0.02 0.79,-0.42 2.25,-0.97 1.42,-0.55 3.56,-1.19 5.84,-1.05 2.29,0.12 4.53,1.09 7.02,2.84 0.63,0.42 1.28,0.88 1.92,1.4l1 0.79c0.28,0.22 0.87,0.66 0.71,0.59 -0.01,0.14 -0.13,0.14 -0.13,0.14 0.01,0 0.13,0.03 0.13,0.17l-0.01 0.06c-0.04,0.03 0.07,0 -0.2,0.15l-1.11 0.62c-0.74,0.42 -1.47,0.78 -2.18,1.12 -2.8,1.36 -5.28,2.02 -7.41,1.82 -2.15,-0.17 -3.95,-1.3 -5.09,-2.22 -1.14,-0.93 -1.72,-1.58 -1.72,-1.56 0.01,-0 0.05,0.83 0.54,2.34 0.53,1.43 1.6,3.81 4.57,5.52 1.44,0.84 3.31,1.4 5.29,1.56 1.98,0.16 4.06,-0.03 6.11,-0.5 1.03,-0.22 2.04,-0.49 3.06,-0.86 0.49,-0.17 1.01,-0.34 1.49,-0.54 0.16,-0.06 0.72,-0.3 1.11,-0.49l1.29 -0.6c3.5,-1.74 6.7,-3.84 10.13,-5.95l-0.24 -0.18c-3.33,-2.42 -6.59,-4.82 -9.7,-6.92 -0.95,-0.63 -1.17,-0.74 -1.67,-1.03 -0.45,-0.25 -0.91,-0.49 -1.36,-0.73 -0.92,-0.47 -1.87,-0.89 -2.83,-1.27 -1.94,-0.72 -3.98,-1.23 -5.98,-1.33 -2,-0.1 -3.93,0.2 -5.49,0.78 -3.19,1.17 -4.92,3.04 -5.95,4.27z"/>
   <path class="fil0" d="M43.15 316.43l-1.29 1.3 -1.01 1.1c-3.55,3.94 -6.63,8.08 -9.15,12.29 -5.11,8.42 -7.94,17.09 -8.74,24.45 -0.86,7.39 0.18,13.29 1.25,17.09 1.07,3.81 2.12,5.71 2.09,5.72 0.03,0 -0.06,-2.18 0.37,-5.95 0.4,-3.74 1.41,-9.04 3.96,-14.92 2.49,-5.88 6.52,-12.25 12,-18.53 2.74,-3.14 5.83,-6.27 9.19,-9.35 0.28,-0.26 0.27,-0.24 0.28,-0.23l0.06 0c0.04,0.01 0.08,0.02 0.12,0.02 0.06,0.02 0.09,0.05 0.11,0.08 0.04,0.06 0.03,0.14 0.02,0.18l-0.01 0.02c0,0 0.03,-0.05 0.08,-0.06 0.03,-0.01 0.07,0 0.11,0.03 0.04,-0.15 0.17,1.58 0.22,2.54 0.26,4.5 0.1,8.79 -0.51,12.79 -1.22,7.99 -4.5,14.68 -8.64,19.67 -4.11,5.02 -8.73,8.35 -12.01,10.5 -3.34,2.14 -5.36,3.18 -5.34,3.21 -0,-0.03 2.26,-0.06 6.28,-0.85 3.99,-0.81 9.96,-2.38 16.48,-6.76 6.52,-4.27 13.22,-12.1 16.53,-22.36 1.71,-5.09 2.65,-10.63 2.81,-16.34 0.03,-1.55 0.07,-2.4 -0.07,-5.15 -0.15,-2.54 -0.44,-5.11 -0.85,-7.6 -0.4,-2.47 -0.92,-4.92 -1.54,-7.17l-2.01 -6.55 -1.41 -4.49c-3.87,2.76 -7.47,5.15 -11.21,8.05 -1.87,1.49 -3.72,3.07 -5.52,4.74 -0.9,0.85 -1.76,1.67 -2.62,2.54z"/>
   <path class="fil0" d="M46.3 354.99c-1.67,-7.75 -13.67,-5.17 -12.03,2.58 1.67,7.75 13.67,5.18 12.03,-2.58z"/>
   <path class="fil0" d="M24.48 289.75c0,7.94 12.29,7.94 12.29,0 0,-7.91 -12.29,-7.91 -12.29,0z"/>
   <path class="fil0" d="M75.07 269.87c0,-11.11 -17.21,-11.11 -17.21,0 0,11.12 17.21,11.12 17.21,0z"/>
   <path class="fil0" d="M52.71 234.77c0.01,-0.08 -9.89,0.75 -14.59,2.11 -7.54,2.65 -15.5,6.16 -21.5,11.19 -2.16,2.01 -4.08,4.19 -5.66,6.52 -4.05,5.87 -5.92,12.47 -6.18,18.4 -0.29,5.95 0.63,11.37 2.46,16.03 1.82,4.64 4.66,8.34 7.72,10.86 6.32,5.12 12.71,5.6 16.48,5.5 3.91,-0.2 5.8,-0.85 5.81,-0.8 0,-0.05 -2.03,0.38 -5.94,0.1 -3.77,-0.34 -9.89,-1.67 -14.95,-7.06 -5.08,-5.22 -7.84,-14.65 -6.01,-25 0.92,-5.1 3.19,-10.25 7.08,-14.52 0.66,-0.76 1.44,-1.45 2.2,-2.12 0.02,0.07 13.21,-11.07 31.39,-9.75 0.33,0.01 13,-1.52 21.68,7.87 6.5,7.02 21.94,18.54 20.98,60 -0.83,0.5 -1.65,1.04 -2.45,1.65 -0.65,0.48 -1.32,1.02 -1.96,1.58 -0.5,0.47 -0.95,0.88 -1.39,1.31 -0.03,-1.11 -0.09,-2.23 -0.19,-3.34 -0.55,-5.4 -2.31,-10.09 -4.67,-14.25 -2.35,-4.14 -5.41,-7.68 -9,-10.13 -3.54,-2.54 -8,-3.57 -10.83,-3.18 -2.82,0.31 -3.94,1.11 -3.96,1.03 -0.03,0.06 1.55,-0.13 3.66,0.47 2.11,0.58 3.69,2.53 5.74,4.74 5.04,5.4 8.42,15.18 8.73,29.91l-1.23 16.47c-0.17,0.78 -0.29,1.56 -0.38,2.27 -0.73,6.4 -2.25,16.68 -2.29,16.65 0.03,0 4.92,-10.25 8.67,-15.6 2.56,-3.61 5.93,-8.08 9.93,-12.72 -1.52,7.62 -4.23,14.97 -7.78,21.92 -2.24,4.38 -3.69,9.78 -6.26,14.24 11.78,-14.39 19.13,-29.98 22.84,-45.31 0.72,-0.59 1.51,-1.2 2.32,-1.75 1.84,-1.3 3.77,-2.49 5.7,-3.5 3.89,-2.02 7.7,-3.33 10.91,-3.6 3.22,-0.33 6,0.55 7.71,1.51 1.74,0.97 2.57,1.76 2.59,1.74 -0.04,0.01 -0.01,-0.97 -0.89,-2.68 -0.81,-1.61 -3.14,-4.28 -8.13,-5.39 -4.89,-1.13 -11.14,-0.55 -16.99,1.25 -0.37,0.13 -0.71,0.25 -1.05,0.36 0.27,-2.28 0.47,-4.59 0.59,-6.84 2.89,-56.84 -42.2,-68.14 -50.91,-68.17z"/>
   <path class="fil0" d="M26.26 180.55c4.2,-15.55 6.14,-33.75 4.01,-52.39 -0.23,-2.18 -0.51,-4.33 -0.85,-6.46 1.02,1.52 2.01,3.18 2.9,5.06 2.36,4.92 4.11,10.97 5.01,17.98 1.79,13.99 0.37,31.68 -5.1,50.84 -1.35,4.84 -3.12,9.42 -5.1,14.78 -1.91,5.26 -3.77,10.78 -5.39,16.68 -1.35,5.15 -2.64,10.51 -3.1,16.63 4.82,-3.1 9.88,-5.68 15.17,-7.55 0.3,-2.2 0.65,-4.38 1.08,-6.53 1.09,-5.54 2.46,-10.95 3.92,-16.22 1.47,-5.18 3.02,-10.84 3.97,-16.05 3.96,-21.09 3.42,-39.73 -0.2,-54.29 -1.83,-7.29 -4.47,-13.49 -7.62,-18.31 -2.01,-3.11 -4.18,-5.6 -6.31,-7.61 -2.59,-14.31 -6.73,-27.49 -9.92,-39.52 -2.02,-7.53 -3.64,-14.69 -4.59,-21.46 -0.98,-6.78 -1.28,-13.16 -1.01,-18.99 0.49,-11.67 3.02,-21.02 5,-27.35 2.01,-6.34 3.51,-9.77 3.47,-9.78 0.03,0.01 -1.95,3.15 -4.81,9.25 -2.77,6.1 -6.48,15.31 -8.18,27.48 -0.82,6.07 -1.12,12.82 -0.62,20.02 0.45,7.2 1.67,14.8 3.33,22.62 2.09,9.95 4.8,20.25 6.97,30.95 -0.12,-0.04 -0.25,-0.09 -0.37,-0.14 0.06,0.2 0.1,0.4 0.15,0.59 0.13,0.07 0.23,0.13 0.35,0.22 1.19,5.91 2.22,11.96 2.89,18.15 1.99,17.62 0.75,34.54 -2.46,49.65 -3.15,15.15 -7.63,28.73 -10.22,40.53 -2.69,11.81 -3.47,21.65 -3.35,28.38 0.11,6.73 0.75,10.41 0.71,10.41 0.16,0.08 -0.61,-15.13 7.02,-37.6 3.58,-11.24 9.11,-24.37 13.26,-39.97z"/>
   <path class="fil0" d="M51.19 172.63c1.25,2.4 2.16,5.67 2.35,9.58 0.2,3.92 -0.25,8.5 -1.27,13.59 -1.95,10.22 -6.39,22.27 -10.14,37.36 -0.03,0.12 -0.05,0.25 -0.08,0.38 1.68,-0.42 3.42,-0.79 5.2,-1.02 0.03,-0 0.06,-0.03 0.09,-0.03 0.14,-0.02 0.28,-0.01 0.41,-0.03 1.69,-0.2 3.39,-0.32 5.16,-0.32 0.05,0 0.09,0.02 0.13,0.03 1.86,-13.7 4.39,-25.93 4.73,-36.25 0.22,-5.47 -0.06,-10.37 -1.03,-14.53 -0.93,-4.16 -2.6,-7.5 -4.34,-9.77 -1.78,-2.28 -3.54,-3.57 -4.73,-4.36 -1.2,-0.78 -1.87,-1.07 -1.86,-1.08 -0.01,0.01 0.62,0.44 1.65,1.43 1.03,0.99 2.47,2.6 3.71,5.02z"/>
   <path class="fil0" d="M48.99 274.77c2.5,2.11 5.23,3.66 8.06,4.86 -3.42,-1.83 -5.97,-5.29 -5.97,-10.36 0,-4.06 1.63,-7.08 4.03,-9.07 -0.77,-1.16 -1.41,-2.53 -1.91,-4.09 -0.62,-2.06 -0.95,-4.37 -1.12,-6.77 -5.77,-1.06 -13.23,1.17 -13.23,1.17 1.68,6.7 5.3,20.22 10.14,24.26z"/>
   <path class="fil0" d="M21.33 259.68c1.57,2.65 4.01,4.8 6.9,5.97 1.46,0.62 3.01,0.95 4.6,1.1 1.63,0.16 4.65,0.1 7.45,3.11l-5.41 -19c-0.43,0.06 -10.83,4.63 -14.07,7.93 0.16,0.32 0.33,0.61 0.53,0.89z"/>
   <path class="fil0" d="M93.55 208.58c0.01,0.06 0.06,-0.05 0.01,0.26l-0.13 1.3c-0.09,0.86 -0.2,1.68 -0.33,2.48 -0.52,3.15 -1.43,5.6 -2.93,7.25 -1.45,1.66 -3.55,2.46 -5.05,2.86 -1.5,0.37 -2.44,0.45 -2.44,0.46 0.01,-0.01 0.78,0.49 2.39,0.98 1.59,0.44 4.3,1.01 7.63,-0.38 1.61,-0.7 3.24,-1.9 4.57,-3.45 1.35,-1.53 2.44,-3.37 3.3,-5.34 0.44,-0.98 0.8,-2 1.11,-3.05 0.18,-0.51 0.33,-1.05 0.45,-1.57 0.05,-0.19 0.16,-0.79 0.25,-1.22l0.24 -1.45c0.62,-3.94 0.73,-7.88 0.97,-12.02l-0.31 0.11c-4.16,1.27 -8.24,2.51 -11.99,3.78 -1.14,0.4 -1.34,0.52 -1.91,0.75 -0.49,0.21 -0.97,0.43 -1.47,0.69 -0.98,0.46 -1.93,0.99 -2.85,1.55 -1.81,1.14 -3.49,2.54 -4.8,4.12 -1.34,1.59 -2.23,3.36 -2.69,5.02 -0.91,3.35 -0.32,5.93 0.12,7.52 0.5,1.64 0.94,2.43 0.92,2.44 0.02,0.01 0.14,-0.93 0.55,-2.48 0.39,-1.5 1.13,-3.66 2.62,-5.46 1.51,-1.82 3.74,-3.07 6.78,-4.08 0.74,-0.25 1.55,-0.48 2.4,-0.73l1.29 -0.33c0.39,-0.09 1.12,-0.29 0.95,-0.21 0.11,0.09 0.04,0.19 0.04,0.19 0.01,-0 0.09,-0.09 0.21,-0.01l0.05 0.03z"/>
   <path class="fil0" d="M81.05 237.52c-1.01,-0.87 -1.52,-1.48 -1.52,-1.46 0.01,-0.01 0.04,0.76 0.49,2.16 0.47,1.32 1.43,3.49 4.03,5.12 1.3,0.79 2.92,1.34 4.66,1.51 1.72,0.18 3.55,0.05 5.35,-0.32 0.9,-0.19 1.79,-0.44 2.68,-0.73 0.43,-0.14 0.86,-0.3 1.31,-0.49 0.14,-0.05 0.61,-0.26 0.97,-0.41l1.13 -0.53c3.05,-1.52 5.84,-3.39 8.83,-5.26l-0.21 -0.17c-2.94,-2.27 -5.8,-4.5 -8.55,-6.49 -0.84,-0.59 -1.01,-0.69 -1.45,-0.97 -0.4,-0.23 -0.79,-0.46 -1.21,-0.7 -0.79,-0.44 -1.62,-0.84 -2.48,-1.21 -1.71,-0.7 -3.48,-1.2 -5.24,-1.32 -1.76,-0.13 -3.43,0.1 -4.82,0.62 -2.77,1.02 -4.29,2.67 -5.19,3.77 -0.9,1.13 -1.22,1.85 -1.23,1.85 0.01,0.01 0.72,-0.36 1.98,-0.85 1.24,-0.45 3.12,-1.03 5.12,-0.86 1.99,0.18 3.98,1.09 6.17,2.73 0.54,0.39 1.11,0.86 1.68,1.32l0.89 0.74c0.27,0.21 0.76,0.65 0.63,0.57 -0.01,0.12 -0.12,0.13 -0.12,0.13 0.01,-0 0.11,0.02 0.12,0.14l-0 0.04c-0.04,0.03 0.06,0.01 -0.17,0.14l-0.97 0.57c-0.65,0.35 -1.27,0.66 -1.89,0.97 -2.44,1.19 -4.6,1.76 -6.47,1.53 -1.89,-0.19 -3.49,-1.26 -4.49,-2.12z"/>
   <path class="fil0" d="M66.95 189.39c-1.93,2.96 -3.83,5.71 -5.42,8.73l-0.57 1.11c-0.16,0.34 -0.38,0.82 -0.44,0.96 -0.19,0.42 -0.36,0.87 -0.52,1.31 -0.31,0.88 -0.61,1.77 -0.82,2.65 -0.43,1.76 -0.64,3.59 -0.55,5.32 0.09,1.72 0.52,3.37 1.22,4.65 1.42,2.65 3.45,3.64 4.69,4.11 1.32,0.49 2.04,0.54 2.04,0.55 0.01,-0.01 -0.54,-0.54 -1.32,-1.57 -0.78,-1.01 -1.73,-2.6 -1.83,-4.49 -0.13,-1.87 0.53,-4.01 1.77,-6.43 0.31,-0.62 0.66,-1.22 1.03,-1.86l0.58 -0.96c0.13,-0.22 0.1,-0.13 0.13,-0.17l0.05 -0.01c0.11,0.01 0.12,0.12 0.12,0.12 0,0 0,-0.1 0.13,-0.11 -0.06,-0.14 0.31,0.36 0.51,0.61l0.65 0.9c0.44,0.59 0.83,1.15 1.18,1.71 1.47,2.22 2.25,4.21 2.32,6.2 0.07,1.99 -0.56,3.85 -1.06,5.08 -0.52,1.24 -0.9,1.96 -0.89,1.96 -0,-0.01 0.67,-0.35 1.8,-1.2 1.09,-0.87 2.76,-2.35 3.86,-5.09 0.54,-1.38 0.86,-3.03 0.81,-4.79 -0.04,-1.76 -0.43,-3.54 -1.03,-5.24 -0.29,-0.86 -0.66,-1.7 -1.04,-2.5 -0.19,-0.42 -0.39,-0.81 -0.62,-1.23 -0.24,-0.44 -0.31,-0.62 -0.85,-1.46 -1.76,-2.77 -3.76,-5.69 -5.8,-8.64l-0.15 -0.24z"/>
   <path class="fil0" d="M76.09 228.26c0,-7.94 -12.29,-7.94 -12.29,0 0,7.94 12.29,7.94 12.29,0z"/>
   <path class="fil0" d="M7.95 446.74c0.82,-7.45 3.06,-16.09 7.76,-24.38 2.12,-3.79 4.79,-7.5 7.87,-11.01 2.42,-2.77 5.15,-5.41 8.12,-7.91 1.52,-1.28 3.11,-2.53 4.75,-3.72 4.5,-3.21 9.19,-5.93 13.93,-8.08 4.69,-2.16 9.54,-3.72 14.31,-4.93 9.51,-2.41 18.46,-3.29 25.97,-3.02 7.51,0.26 13.54,1.76 17.55,3.33 4.03,1.53 6.07,2.95 6.09,2.9 -0.05,0.05 -1.57,-1.92 -5.26,-4.5 -3.64,-2.61 -9.62,-5.69 -17.64,-7.45 -7.96,-1.8 -17.84,-2.39 -28.59,-0.83 -5.36,0.79 -11.04,2.07 -16.7,4.28 -5.65,2.19 -11.18,5.16 -16.38,8.9 -0.43,0.29 -0.81,0.61 -1.21,0.93 -3.17,2.36 -6.11,4.94 -8.78,7.73 -5.55,5.82 -9.93,12.36 -12.78,19.05 -4.51,10.27 -5.41,20.47 -4.82,28.6 0.61,8.17 2.54,14.43 4.01,18.62 1.51,4.17 2.66,6.34 2.63,6.35 0.03,-0.01 -0.42,-2.41 -0.86,-6.75 -0.42,-4.32 -0.84,-10.64 0.01,-18.13z"/>
   <path class="fil0" d="M25.91 388.08c-1.84,-5.18 -4.09,-10.26 -6.52,-15.35 -1.21,-2.55 -2.48,-5.01 -3.73,-7.45 -0.66,-1.27 -1.18,-2.26 -1.66,-3.33 -0.51,-1.06 -0.94,-2.14 -1.36,-3.23 -1.61,-4.34 -2.53,-8.82 -2.88,-13.18 -0.67,-8.69 1.06,-16.74 4.15,-22.7 3.07,-5.99 7.51,-9.77 10.93,-11.77 3.44,-2.02 5.74,-2.59 5.71,-2.63 0.01,0.05 -2.32,-0.15 -6.42,0.96 -4.04,1.09 -10.01,3.98 -15.01,10.25 -5,6.18 -8.73,15.42 -9.09,26.05 -0.19,5.29 0.41,10.91 2.13,16.54 0.43,1.39 0.92,2.79 1.5,4.19 0.55,1.38 1.24,2.79 1.78,3.93l3.55 7.35c2.37,4.95 4.67,9.75 6.61,14.33 0.71,1.66 1.33,3.3 1.94,4.91 2.66,-2.78 5.58,-5.37 8.74,-7.73 -0.12,-0.39 -0.24,-0.78 -0.37,-1.16z"/>
   <path class="fil0" d="M24.43 414.24l0.78 2.9c0.52,1.93 0.82,3.88 0.98,5.8 0.34,3.84 -0.01,7.52 -0.74,10.79 -1.5,6.59 -4.78,11.4 -7.59,14.17 -2.81,2.82 -4.94,3.86 -4.89,3.9 -0.03,-0.06 2.29,-0.35 5.98,-2.45 3.66,-2.08 8.67,-6.43 11.94,-13.75 1.62,-3.6 2.85,-7.87 3.2,-12.62 0.17,-2.36 0.16,-4.85 -0.14,-7.41 -0.31,-2.47 -0.63,-4.67 -1.04,-7.19 -0.11,-0.66 -0.25,-1.36 -0.4,-2.06 -2.94,2.5 -5.67,5.14 -8.09,7.91z"/>
   <path class="fil0" d="M192.5 461.42l-1.26 1.33 -1.06 1.04c-3.88,3.63 -7.95,6.8 -12.09,9.44 -8.27,5.3 -16.87,8.32 -24.21,9.29 -7.36,1.01 -13.28,0.11 -17.1,-0.87 -3.83,-1 -5.75,-2 -5.76,-1.97 -0,-0.04 2.17,0.01 5.91,-0.48 3.75,-0.5 9.02,-1.64 14.83,-4.31 5.8,-2.62 12.08,-6.8 18.22,-12.44 3.08,-2.78 6.14,-5.94 9.14,-9.4 0.25,-0.28 0.23,-0.28 0.22,-0.28l-0 -0.06c-0.01,-0.03 -0.01,-0.06 -0.02,-0.09 -0.02,-0.05 -0.05,-0.08 -0.08,-0.1 -0.07,-0.04 -0.14,-0.02 -0.18,-0.01l-0.02 0.01c0,0 0.05,-0.03 0.06,-0.09 0,-0.03 -0.01,-0.07 -0.03,-0.11 0.15,-0.04 -1.56,-0.15 -2.54,-0.19 -4.5,-0.16 -8.79,0.11 -12.76,0.82 -7.94,1.4 -14.56,4.82 -19.43,9.08 -4.93,4.23 -8.15,8.95 -10.23,12.28 -2.06,3.36 -3.06,5.41 -3.08,5.39 0.03,0 0.01,-2.24 0.68,-6.29 0.74,-4.02 2.16,-10.03 6.42,-16.65 4.12,-6.61 11.77,-13.5 21.95,-17.06 5.04,-1.79 10.56,-2.85 16.26,-3.16 1.55,-0.07 2.4,-0.13 5.13,-0.04 2.56,0.1 5.11,0.35 7.62,0.69 2.48,0.34 4.94,0.81 7.2,1.38l6.6 1.87 4.51 1.29c-2.67,3.95 -4.98,7.62 -7.79,11.42 -1.43,1.9 -2.99,3.79 -4.6,5.63 -0.82,0.92 -1.65,1.82 -2.5,2.67z"/>
   <path class="fil0" d="M153.93 459.14c7.77,1.5 5.48,13.56 -2.3,12.09 -7.79,-1.49 -5.5,-13.56 2.3,-12.09z"/>
   <path class="fil0" d="M219.55 479.52c-7.9,0.18 -8.2,-12.13 -0.27,-12.3 7.93,-0.17 8.2,12.13 0.27,12.3z"/>
   <path class="fil0" d="M238.28 428.46c11.1,-0.27 11.5,16.96 0.4,17.2 -11.1,0.25 -11.47,-16.96 -0.4,-17.2z"/>
   <path class="fil0" d="M273.85 450.01c0.08,-0.01 -0.53,9.91 -1.79,14.66 -2.46,7.61 -5.81,15.65 -10.69,21.77 -1.96,2.21 -4.1,4.18 -6.39,5.81 -5.77,4.18 -12.31,6.2 -18.24,6.61 -5.94,0.4 -11.37,-0.4 -16.07,-2.11 -4.67,-1.71 -8.43,-4.48 -11.02,-7.51 -5.25,-6.19 -5.87,-12.57 -5.86,-16.36 0.09,-3.91 0.73,-5.81 0.67,-5.82 0.06,-0 -0.36,2.04 0.03,5.95 0.42,3.76 1.89,9.85 7.37,14.8 5.32,4.97 14.8,7.51 25.11,5.44 5.07,-1.03 10.16,-3.41 14.35,-7.4 0.74,-0.69 1.39,-1.47 2.08,-2.25 -0.07,-0.02 10.73,-13.46 9.02,-31.66 -0.02,-0.31 1.23,-13.01 -8.35,-21.51 -7.15,-6.33 -19.02,-21.52 -60.41,-19.64 -0.48,0.84 -1.01,1.67 -1.57,2.49 -0.49,0.68 -0.99,1.35 -1.56,2 -0.44,0.51 -0.86,0.97 -1.29,1.41 1.11,0.01 2.23,0.04 3.34,0.11 5.41,0.43 10.13,2.1 14.34,4.34 4.18,2.29 7.8,5.26 10.33,8.81 2.61,3.45 3.74,7.92 3.41,10.73 -0.25,2.84 -1.02,3.98 -0.95,3.99 -0.05,0.03 0.1,-1.52 -0.54,-3.62 -0.63,-2.1 -2.64,-3.66 -4.86,-5.66 -5.51,-4.91 -15.37,-8.07 -30.09,-8.05l-16.43 1.61c-0.76,0.16 -1.52,0.3 -2.24,0.41 -6.37,0.89 -16.6,2.64 -16.58,2.68 0,-0.03 10.14,-5.15 15.39,-9.05 3.53,-2.61 7.94,-6.12 12.47,-10.22 -7.55,1.71 -14.83,4.57 -21.72,8.28 -4.31,2.35 -9.66,3.92 -14.09,6.59 14.11,-12.11 29.53,-19.81 44.75,-23.85 0.57,-0.75 1.16,-1.56 1.7,-2.38 1.27,-1.85 2.4,-3.83 3.37,-5.79 1.91,-3.94 3.16,-7.78 3.36,-10.99 0.26,-3.24 -0.7,-5.99 -1.7,-7.68 -1,-1.72 -1.81,-2.54 -1.79,-2.55 -0.01,0.03 0.97,-0.01 2.7,0.83 1.65,0.78 4.34,3.04 5.56,8.01 1.26,4.87 0.81,11.14 -0.85,17.03 -0.1,0.37 -0.23,0.71 -0.34,1.05 2.29,-0.32 4.57,-0.57 6.82,-0.73 56.7,-4.16 69,40.69 69.22,49.4z"/>
   <path class="fil0" d="M328.61 475.27c15.44,-4.57 33.54,-6.91 52.21,-5.18 2.18,0.18 4.33,0.42 6.49,0.69 -1.56,-0.97 -3.24,-1.92 -5.12,-2.77 -4.96,-2.24 -11.07,-3.87 -18.09,-4.62 -13.99,-1.46 -31.64,0.34 -50.67,6.24 -4.81,1.49 -9.33,3.36 -14.63,5.45 -5.22,2.03 -10.68,4.03 -16.53,5.76 -5.12,1.49 -10.44,2.87 -16.54,3.5 2.99,-4.89 5.42,-10.02 7.21,-15.35 2.16,-0.37 4.34,-0.77 6.47,-1.23 5.53,-1.24 10.91,-2.73 16.13,-4.31 5.14,-1.58 10.73,-3.28 15.93,-4.35 20.98,-4.43 39.62,-4.3 54.25,-1.02 7.3,1.67 13.56,4.18 18.46,7.22 3.15,1.95 5.66,4.06 7.71,6.15 14.38,2.26 27.63,6.11 39.69,9.04 7.59,1.86 14.79,3.32 21.56,4.13 6.8,0.83 13.17,0.97 19,0.57 11.65,-0.75 20.93,-3.49 27.21,-5.61 6.28,-2.17 9.66,-3.75 9.66,-3.71 -0.01,-0.03 -3.1,2.03 -9.14,5.01 -6,2.93 -15.12,6.85 -27.24,8.82 -6.04,0.98 -12.78,1.4 -19.98,1.09 -7.2,-0.3 -14.83,-1.36 -22.66,-2.83 -9.98,-1.88 -20.33,-4.34 -31.07,-6.28 0.05,0.12 0.1,0.23 0.15,0.35 -0.2,-0.06 -0.4,-0.1 -0.63,-0.14 -0.07,-0.11 -0.13,-0.21 -0.2,-0.32 -5.95,-1.06 -12,-1.97 -18.2,-2.49 -17.66,-1.59 -34.51,0.03 -49.53,3.57 -15.07,3.49 -28.53,8.29 -40.26,11.14 -11.73,2.98 -21.54,3.96 -28.27,3.99 -6.72,0.03 -10.41,-0.52 -10.41,-0.48 -0.08,-0.16 15.12,0.25 37.37,-7.85 11.18,-3.85 24.16,-9.7 39.65,-14.2z"/>
   <path class="fil0" d="M335.95 450.15c-2.43,-1.2 -5.72,-2.02 -9.62,-2.15 -3.92,-0.12 -8.49,0.46 -13.55,1.59 -10.17,2.18 -22.1,6.88 -37.06,10.99 -0.13,0.03 -0.28,0.06 -0.4,0.09 0.41,-1.72 0.71,-3.46 0.9,-5.23 0.01,-0.03 0.02,-0.06 0.03,-0.09 0.01,-0.17 0,-0.3 0.01,-0.44 0.16,-1.68 0.24,-3.4 0.2,-5.17 0,-0.05 -0.02,-0.08 -0.03,-0.13 13.63,-2.16 25.8,-4.96 36.1,-5.54 5.44,-0.36 10.36,-0.19 14.54,0.69 4.18,0.84 7.55,2.43 9.85,4.13 2.32,1.72 3.65,3.46 4.46,4.63 0.8,1.18 1.11,1.84 1.12,1.84 -0.01,0 -0.45,-0.61 -1.47,-1.63 -1.01,-1 -2.65,-2.41 -5.09,-3.6z"/>
   <path class="fil0" d="M233.98 454.63c-2.17,-2.46 -3.77,-5.16 -5.03,-7.96 1.9,3.39 5.42,5.85 10.5,5.74 4.04,-0.09 7.02,-1.79 8.95,-4.23 1.17,0.75 2.56,1.36 4.12,1.8 2.08,0.6 4.39,0.88 6.79,0.98 1.19,5.78 -0.87,13.28 -0.87,13.28 -6.74,-1.54 -20.32,-4.86 -24.46,-9.61z"/>
   <path class="fil0" d="M249.65 481.98c-2.66,-1.51 -4.85,-3.9 -6.1,-6.78 -0.65,-1.45 -1.01,-2.99 -1.22,-4.58 -0.2,-1.62 -0.21,-4.65 -3.27,-7.38l19.13 5c-0.05,0.41 -4.4,10.93 -7.62,14.25 -0.31,-0.15 -0.61,-0.32 -0.92,-0.5z"/>
   <path class="fil0" d="M299.09 408.54c-0.06,0 0.05,-0.04 -0.26,0l-1.29 0.15c-0.86,0.13 -1.68,0.26 -2.47,0.41 -3.14,0.59 -5.56,1.55 -7.17,3.08 -1.63,1.49 -2.38,3.61 -2.72,5.12 -0.36,1.52 -0.42,2.45 -0.44,2.45 0.01,-0.01 -0.48,-0.77 -1.03,-2.38 -0.47,-1.57 -1.11,-4.27 0.23,-7.64 0.64,-1.62 1.8,-3.28 3.32,-4.65 1.5,-1.38 3.32,-2.54 5.26,-3.42 0.98,-0.46 1.99,-0.84 3.02,-1.2 0.5,-0.17 1.04,-0.32 1.56,-0.46 0.18,-0.06 0.78,-0.18 1.21,-0.28l1.45 -0.29c3.93,-0.69 7.83,-0.89 11.96,-1.24l-0.08 0.33c-1.17,4.19 -2.32,8.31 -3.51,12.06 -0.36,1.14 -0.47,1.37 -0.71,1.93 -0.2,0.52 -0.41,1.01 -0.63,1.51 -0.47,0.98 -0.95,1.93 -1.52,2.86 -1.1,1.86 -2.44,3.58 -4.01,4.91 -1.54,1.35 -3.31,2.29 -4.93,2.79 -3.34,1 -5.92,0.45 -7.54,0.06 -1.62,-0.47 -2.43,-0.89 -2.44,-0.88 -0.01,-0.02 0.92,-0.16 2.43,-0.6 1.51,-0.43 3.66,-1.21 5.42,-2.74 1.76,-1.56 2.97,-3.81 3.91,-6.88 0.25,-0.76 0.47,-1.56 0.68,-2.41l0.31 -1.3c0.09,-0.39 0.29,-1.15 0.19,-0.96 -0.1,-0.13 -0.19,-0.04 -0.19,-0.04 0.01,-0.01 0.09,-0.12 0.02,-0.23l-0.04 -0.05z"/>
   <path class="fil0" d="M270.48 421.7c0.87,1 1.5,1.49 1.49,1.5 0,-0.02 -0.78,-0.03 -2.16,-0.44 -1.33,-0.43 -3.53,-1.33 -5.21,-3.92 -0.83,-1.26 -1.39,-2.89 -1.62,-4.61 -0.22,-1.74 -0.13,-3.57 0.22,-5.35 0.17,-0.9 0.39,-1.81 0.66,-2.7 0.13,-0.44 0.27,-0.89 0.46,-1.33 0.04,-0.15 0.25,-0.64 0.39,-0.98l0.51 -1.15c1.45,-3.08 3.25,-5.93 5.04,-8.97l0.19 0.21c2.34,2.89 4.63,5.73 6.67,8.4 0.63,0.83 0.72,1.01 1,1.46 0.24,0.38 0.48,0.76 0.73,1.18 0.45,0.81 0.88,1.61 1.26,2.45 0.76,1.69 1.27,3.49 1.44,5.22 0.17,1.76 -0.03,3.46 -0.48,4.84 -0.96,2.82 -2.61,4.34 -3.68,5.28 -1.12,0.92 -1.83,1.26 -1.82,1.27 -0.02,0 0.36,-0.7 0.8,-2 0.45,-1.25 0.96,-3.14 0.74,-5.14 -0.19,-1.99 -1.16,-3.93 -2.85,-6.12 -0.41,-0.53 -0.88,-1.09 -1.36,-1.65l-0.76 -0.87c-0.21,-0.24 -0.64,-0.75 -0.56,-0.62 -0.14,0.02 -0.14,0.14 -0.14,0.14 0,-0 -0.02,-0.14 -0.14,-0.14l-0.05 0c-0.03,0.06 -0.01,-0.06 -0.13,0.2l-0.52 0.99c-0.36,0.64 -0.66,1.28 -0.94,1.89 -1.12,2.5 -1.66,4.67 -1.4,6.54 0.26,1.88 1.36,3.44 2.24,4.42z"/>
   <path class="fil0" d="M318.84 434.77c-2.89,1.99 -5.6,3.95 -8.57,5.6l-1.1 0.61c-0.33,0.16 -0.81,0.4 -0.95,0.46 -0.42,0.18 -0.86,0.37 -1.29,0.55 -0.87,0.33 -1.75,0.62 -2.64,0.86 -1.75,0.49 -3.56,0.74 -5.3,0.68 -1.75,-0.05 -3.38,-0.44 -4.67,-1.12 -2.67,-1.37 -3.71,-3.38 -4.21,-4.61 -0.52,-1.31 -0.58,-2.03 -0.59,-2.03 0,-0 0.53,0.53 1.59,1.3 1.03,0.75 2.64,1.66 4.53,1.73 1.87,0.09 3.99,-0.63 6.38,-1.91 0.61,-0.34 1.21,-0.69 1.84,-1.07l0.95 -0.6c0.22,-0.14 0.13,-0.1 0.16,-0.14l0 -0.05c-0.01,-0.12 -0.12,-0.13 -0.12,-0.12 0,0 0.1,-0 0.11,-0.13 0.14,0.06 -0.37,-0.32 -0.64,-0.5l-0.91 -0.63c-0.58,-0.43 -1.17,-0.81 -1.72,-1.17 -2.25,-1.4 -4.25,-2.16 -6.25,-2.17 -1.98,-0.03 -3.83,0.65 -5.05,1.16 -1.23,0.56 -1.93,0.96 -1.93,0.94 0.01,0.01 0.31,-0.68 1.15,-1.82 0.85,-1.12 2.27,-2.82 5.01,-3.98 1.34,-0.57 3.01,-0.92 4.75,-0.91 1.75,0 3.56,0.34 5.28,0.91 0.84,0.28 1.68,0.61 2.51,0.99 0.4,0.18 0.82,0.37 1.22,0.56 0.47,0.26 0.65,0.33 1.5,0.83 2.78,1.72 5.74,3.66 8.75,5.63l0.22 0.15z"/>
   <path class="fil0" d="M279.84 426.5c7.91,-0.19 8.2,12.1 0.27,12.3 -7.93,0.17 -8.2,-12.13 -0.27,-12.3z"/>
   <path class="fil0" d="M63.14 499.58c7.43,-1.01 16.02,-3.42 24.18,-8.33 3.75,-2.21 7.39,-4.94 10.82,-8.12 2.72,-2.49 5.29,-5.27 7.7,-8.3 1.27,-1.55 2.48,-3.17 3.63,-4.84 3.11,-4.57 5.7,-9.32 7.75,-14.11 2.05,-4.75 3.49,-9.63 4.61,-14.43 2.19,-9.57 2.87,-18.57 2.42,-26.06 -0.41,-7.51 -2.05,-13.51 -3.69,-17.49 -1.64,-4 -3.1,-6.01 -3.05,-6.03 -0.05,0.03 1.94,1.53 4.61,5.14 2.69,3.61 5.89,9.51 7.85,17.49 1.97,7.95 2.75,17.79 1.46,28.62 -0.67,5.38 -1.83,11.08 -3.92,16.81 -2.06,5.68 -4.88,11.3 -8.5,16.59 -0.28,0.41 -0.6,0.82 -0.9,1.22 -2.29,3.23 -4.81,6.22 -7.53,8.95 -5.7,5.69 -12.13,10.23 -18.73,13.23 -10.18,4.71 -20.36,5.86 -28.47,5.44 -8.18,-0.41 -14.48,-2.2 -18.68,-3.6 -4.21,-1.43 -6.4,-2.5 -6.41,-2.48 0,-0.02 2.42,0.35 6.78,0.72 4.33,0.3 10.63,0.58 18.08,-0.43z"/>
   <path class="fil0" d="M121.33 480.29c5.23,1.71 10.36,3.85 15.49,6.19 2.58,1.17 5.06,2.36 7.52,3.55 1.29,0.64 2.28,1.13 3.35,1.61 1.07,0.46 2.16,0.89 3.25,1.27 4.37,1.51 8.9,2.33 13.24,2.57 8.69,0.5 16.7,-1.42 22.57,-4.65 5.91,-3.2 9.6,-7.73 11.52,-11.19 1.93,-3.49 2.45,-5.8 2.5,-5.77 -0.06,-0.01 0.17,2.32 -0.84,6.45 -0.99,4.07 -3.73,10.11 -9.88,15.25 -6.06,5.14 -15.21,9.08 -25.79,9.69 -5.28,0.31 -10.93,-0.18 -16.56,-1.77 -1.43,-0.38 -2.83,-0.86 -4.22,-1.38 -1.41,-0.54 -2.84,-1.18 -3.99,-1.71l-7.42 -3.36c-5,-2.27 -9.84,-4.46 -14.46,-6.31 -1.67,-0.68 -3.31,-1.27 -4.95,-1.83 2.72,-2.73 5.24,-5.72 7.53,-8.95 0.4,0.12 0.78,0.24 1.15,0.37z"/>
   <path class="fil0" d="M95.25 482.36l-2.92 -0.73c-1.96,-0.47 -3.9,-0.73 -5.81,-0.85 -3.84,-0.24 -7.52,0.17 -10.76,1.01 -6.55,1.65 -11.28,5.03 -13.99,7.9 -2.75,2.89 -3.74,5.04 -3.79,5 0.06,0.03 0.3,-2.32 2.32,-6.06 2,-3.71 6.23,-8.82 13.44,-12.25 3.58,-1.72 7.82,-3.03 12.54,-3.5 2.38,-0.24 4.86,-0.28 7.42,-0.03 2.47,0.28 4.68,0.53 7.21,0.88 0.66,0.1 1.37,0.24 2.07,0.35 -2.43,3.02 -5,5.78 -7.72,8.29z"/>
  </g>
 </g>
</svg>
