<?xml version="1.0" encoding="UTF-8"?>
<!DOCTYPE svg PUBLIC "-//W3C//DTD SVG 1.1//EN" "http://www.w3.org/Graphics/SVG/1.1/DTD/svg11.dtd">
<!-- Creator: CorelDRAW 2020 (64-Bit) -->
<svg xmlns="http://www.w3.org/2000/svg" xml:space="preserve" width="42.0162mm" height="42.4026mm" version="1.1" style="shape-rendering:geometricPrecision; text-rendering:geometricPrecision; image-rendering:optimizeQuality; fill-rule:evenodd; clip-rule:evenodd"
viewBox="0 0 500.83 505.44"
 xmlns:xlink="http://www.w3.org/1999/xlink"
 xmlns:xodm="http://www.corel.com/coreldraw/odm/2003">
 <defs>
  <style type="text/css">
   <![CDATA[
    .fil0 {fill:#EECE7A;fill-rule:nonzero}
   ]]>
  </style>
 </defs>
 <g id="Layer_x0020_1">
  <metadata id="CorelCorpID_0Corel-Layer"/>
  <g id="_2088053786608">
   <path class="fil0" d="M87.51 59.67c-5.4,-9.73 -13.88,-20.15 -25.27,-29.53 -5.71,-4.66 -12.15,-9.06 -19.44,-12.82 -3.66,-1.88 -7.54,-3.57 -11.68,-4.95l-1.83 -0.59 -2.84 -0.77c-1.9,-0.46 -3.81,-0.85 -5.69,-1.12 -3.72,-0.5 -7.26,-0.76 -11.12,-1.14l-0.01 0.07c-0.33,3.83 -0.73,7.27 -0.95,10.95 -0.06,1.87 -0.01,3.79 0.17,5.74 0.11,0.98 0.19,1.93 0.33,2.93l0.23 1.46 0.16 0.92c0.88,4.46 2.3,8.62 3.92,12.51 3.31,7.77 7.66,14.45 12.27,20.29 9.32,11.65 19.91,19.9 29.45,25.42 9.56,5.54 18.12,8.23 24.02,9.47 5.94,1.22 9.26,1.2 9.26,1.24 0.16,-0.11 -13.12,-3.82 -28.64,-17.33 -7.69,-6.66 -15.97,-15.66 -23,-26.75 -3.49,-5.53 -6.68,-11.6 -8.97,-18 -1.13,-3.2 -2.05,-6.5 -2.58,-9.75l-0.08 -0.54 0.01 0.03c0.01,0.01 0.01,-0.01 0.02,-0.01l0.03 0c0.01,0 0.02,0.01 0.02,0.01 0,0 -0.01,-0.01 -0.01,-0.03l0.01 -0.03 0.01 -0.01 0.97 0.27c3.32,1.01 6.62,2.26 9.83,3.68 6.42,2.83 12.47,6.24 18.04,9.84 11.1,7.26 20.19,15.35 26.69,23.1 6.54,7.72 10.31,15.19 11.95,20.75 1.67,5.54 1.58,8.97 1.66,8.95 -0.09,0 1.05,-3.22 0.84,-9.38 -0.18,-6.12 -2.29,-15.14 -7.78,-24.89z"/>
   <path class="fil0" d="M101.58 99.14c-7.87,0 -7.87,12.2 0,12.2 7.87,0 7.87,-12.2 0,-12.2z"/>
   <path class="fil0" d="M58.51 71.48c11.01,0 11.01,-17.09 0,-17.09 -11.01,0 -11.01,17.09 0,17.09z"/>
   <path class="fil0" d="M149.46 141.05c-0.09,-0.5 -0.2,-1.2 -0.27,-1.39 -0.13,-0.6 -0.27,-1.21 -0.44,-1.82 -0.32,-1.19 -0.73,-2.36 -1.17,-3.49 -0.91,-2.25 -2.1,-4.37 -3.6,-6.17 -1.47,-1.8 -3.28,-3.21 -5.11,-4.04 -3.71,-1.7 -6.82,-1.14 -8.63,-0.68 -1.86,0.53 -2.76,1.05 -2.77,1.04 -0.01,0.02 1.05,0.15 2.77,0.63 1.69,0.47 4.04,1.44 5.64,3.38 1.64,1.9 2.6,4.74 3.11,8.32 0.13,0.9 0.23,1.84 0.31,2.81l0.11 1.5c0.03,0.35 -0,0.23 -0.02,0.29l-0.05 0.04c-0.14,0.09 -0.23,-0.02 -0.24,-0.03 0,-0.01 0.08,0.11 -0.05,0.21 0.19,0.1 -0.66,-0.15 -1.08,-0.26l-1.47 -0.44c-0.96,-0.28 -1.87,-0.57 -2.73,-0.87 -3.42,-1.25 -5.9,-2.75 -7.55,-4.84 -1.67,-2.08 -2.42,-4.59 -2.84,-6.3 -0.39,-1.77 -0.51,-2.82 -0.52,-2.82 0.01,0.02 -0.54,0.9 -1.12,2.74 -0.57,1.79 -1.31,4.7 -0.38,8.54 0.48,1.9 1.45,3.95 2.89,5.79 1.46,1.83 3.3,3.47 5.34,4.81 1.02,0.69 2.09,1.31 3.18,1.87 0.56,0.28 1.11,0.56 1.67,0.82 0.64,0.28 0.87,0.42 2.14,0.91 4.22,1.55 8.83,3.1 13.5,4.66l0.37 0.11c-0.15,-4.7 -0.17,-9.17 -0.74,-13.66l-0.24 -1.65z"/>
   <path class="fil0" d="M146.62 102.6c-0.38,-0.18 -0.92,-0.44 -1.09,-0.49 -0.51,-0.23 -0.99,-0.42 -1.5,-0.59 -0.99,-0.35 -2,-0.67 -3,-0.9 -2.01,-0.47 -4.09,-0.7 -6.06,-0.52 -1.98,0.15 -3.86,0.69 -5.35,1.56 -3.02,1.77 -4.16,4.21 -4.71,5.71 -0.57,1.54 -0.63,2.43 -0.64,2.42 0.01,0.01 0.62,-0.67 1.8,-1.63 1.16,-0.91 3,-2.11 5.15,-2.27 2.13,-0.2 4.55,0.54 7.32,1.94 0.7,0.35 1.38,0.75 2.11,1.16l1.09 0.67c0.26,0.15 0.15,0.11 0.19,0.16l0 0.05c-0,0.14 -0.13,0.15 -0.13,0.15 0,0 0.11,0 0.12,0.15 0.18,-0.08 -0.42,0.39 -0.7,0.62l-1.03 0.82c-0.68,0.51 -1.34,1.01 -1.96,1.44 -2.56,1.8 -4.83,2.8 -7.1,2.91 -2.27,0.13 -4.37,-0.56 -5.79,-1.13 -1.42,-0.59 -2.21,-1.03 -2.22,-1.01 0.01,-0.01 0.36,0.82 1.34,2.13 0.98,1.27 2.65,3.22 5.78,4.46 1.54,0.62 3.44,0.94 5.44,0.84 2,-0.09 4.05,-0.58 6.01,-1.34 0.98,-0.37 1.93,-0.83 2.87,-1.29 0.46,-0.26 0.93,-0.5 1.37,-0.76 0.53,-0.3 0.73,-0.4 1.7,-1.06 3.17,-2.17 6.5,-4.63 9.92,-7.12l0.25 -0.19c-3.35,-2.21 -6.47,-4.43 -9.89,-6.22l-1.27 -0.66z"/>
   <path class="fil0" d="M114.93 129.41c-1.25,-1.02 -2.03,-1.39 -2.03,-1.4 -0.02,0 0.39,0.81 0.95,2.24 0.54,1.41 1.18,3.54 1.04,5.81 -0.12,2.25 -1.08,4.49 -2.81,6.96 -0.42,0.62 -0.9,1.28 -1.39,1.9l-0.79 1c-0.22,0.3 -0.66,0.87 -0.58,0.7 -0.16,-0.01 -0.16,-0.13 -0.16,-0.13 0,0 -0.02,0.13 -0.15,0.13l-0.06 -0.01c-0.03,-0.03 -0,0.07 -0.15,-0.2l-0.63 -1.1c-0.39,-0.74 -0.76,-1.46 -1.11,-2.14 -1.33,-2.8 -2.02,-5.27 -1.79,-7.38 0.17,-2.13 1.29,-3.91 2.2,-5.05 0.92,-1.14 1.56,-1.71 1.54,-1.71 0.01,0.01 -0.83,0.05 -2.32,0.54 -1.42,0.53 -3.78,1.59 -5.47,4.54 -0.83,1.44 -1.4,3.29 -1.54,5.26 -0.16,1.96 0.03,4.03 0.49,6.06 0.22,1.01 0.49,2.03 0.84,3.03 0.17,0.49 0.35,1 0.53,1.49 0.06,0.17 0.3,0.72 0.48,1.1l0.61 1.31c1.72,3.45 3.8,6.63 5.9,10.04l0.18 -0.24c2.39,-3.31 4.77,-6.55 6.86,-9.63 0.62,-0.94 0.71,-1.14 1.02,-1.66 0.25,-0.43 0.48,-0.9 0.71,-1.35 0.48,-0.91 0.89,-1.85 1.27,-2.81 0.72,-1.92 1.22,-3.95 1.32,-5.93 0.1,-1.99 -0.2,-3.9 -0.78,-5.45 -1.16,-3.17 -3.02,-4.89 -4.23,-5.91z"/>
   <path class="fil0" d="M187.29 42.84l-1.3 -1.26 -1.07 -1.01c-3.92,-3.54 -8.03,-6.6 -12.2,-9.1 -8.32,-5.08 -16.91,-7.89 -24.2,-8.69 -7.33,-0.85 -13.17,0.18 -16.94,1.24 -3.77,1.07 -5.65,2.12 -5.67,2.08 -0,0.04 2.15,-0.05 5.88,0.37 3.72,0.39 8.98,1.4 14.8,3.93 5.83,2.47 12.15,6.47 18.37,11.92 3.12,2.72 6.22,5.79 9.27,9.12 0.26,0.27 0.23,0.27 0.23,0.28l-0 0.06c-0.01,0.05 -0.01,0.09 -0.02,0.11 -0.02,0.05 -0.04,0.09 -0.08,0.11 -0.07,0.04 -0.14,0.03 -0.18,0.01l-0.02 -0c0,0 0.05,0.03 0.06,0.08 0,0.03 0,0.07 -0.03,0.11 0.15,0.04 -1.57,0.16 -2.54,0.22 -4.44,0.26 -8.69,0.1 -12.64,-0.51 -7.92,-1.21 -14.55,-4.47 -19.5,-8.58 -4.98,-4.08 -8.27,-8.67 -10.41,-11.93 -2.12,-3.32 -3.15,-5.32 -3.17,-5.3 0.03,-0 0.06,2.24 0.84,6.25 0.8,3.94 2.36,9.88 6.7,16.36 4.23,6.46 11.99,13.12 22.17,16.41 5.04,1.69 10.53,2.62 16.18,2.77 1.55,0.03 2.39,0.07 5.09,-0.07 2.54,-0.15 5.06,-0.43 7.55,-0.84 2.45,-0.4 4.88,-0.91 7.11,-1.53l6.5 -1.99 4.42 -1.38c-2.71,-3.86 -5.1,-7.43 -7.95,-11.15 -1.48,-1.85 -3.05,-3.69 -4.7,-5.48 -0.84,-0.89 -1.68,-1.74 -2.52,-2.6z"/>
   <path class="fil0" d="M149.07 45.97c7.7,-1.66 5.13,-13.57 -2.54,-11.94 -7.7,1.66 -5.13,13.57 2.54,11.94z"/>
   <path class="fil0" d="M213.71 24.31c-7.84,0 -7.84,12.2 0,12.2 7.86,0 7.86,-12.2 0,-12.2z"/>
   <path class="fil0" d="M233.43 74.54c10.99,0 10.99,-17.09 0,-17.09 -11.01,0 -11.01,17.09 0,17.09z"/>
   <path class="fil0" d="M268.19 52.34c0.1,0.01 -0.72,-9.81 -2.09,-14.48 -2.61,-7.49 -6.1,-15.39 -11.07,-21.35 -1.99,-2.15 -4.15,-4.05 -6.48,-5.62 -5.79,-4.03 -12.34,-5.88 -18.21,-6.14 -5.9,-0.29 -11.26,0.62 -15.89,2.44 -4.6,1.81 -8.27,4.64 -10.77,7.67 -5.07,6.27 -5.55,12.61 -5.45,16.36 0.18,3.89 0.85,5.77 0.8,5.77 0.05,0.01 -0.38,-2.02 -0.1,-5.9 0.34,-3.74 1.66,-9.82 6.99,-14.85 5.17,-5.04 14.51,-7.79 24.78,-5.97 5.05,0.91 10.15,3.16 14.39,7.03 0.75,0.66 1.41,1.42 2.11,2.18 -0.07,0.02 10.96,13.12 9.63,31.17 -0.02,0.33 1.53,12.9 -7.78,21.53 -6.96,6.45 -18.38,21.79 -59.46,20.83 -0.52,-0.82 -1.04,-1.64 -1.63,-2.43 -0.48,-0.64 -1.02,-1.31 -1.57,-1.94 -0.47,-0.5 -0.88,-0.93 -1.33,-1.38 1.12,-0.03 2.23,-0.08 3.34,-0.19 5.35,-0.54 9.97,-2.3 14.1,-4.63 4.1,-2.34 7.63,-5.37 10.06,-8.94 2.52,-3.51 3.53,-7.94 3.15,-10.75 -0.31,-2.8 -1.1,-3.91 -1.04,-3.94 -0.04,-0.03 0.12,1.54 -0.44,3.63 -0.58,2.1 -2.54,3.67 -4.7,5.7 -5.35,5.01 -15.05,8.37 -29.66,8.67l-16.32 -1.22c-0.76,-0.14 -1.52,-0.29 -2.24,-0.38 -6.34,-0.72 -16.52,-2.23 -16.5,-2.27 0,0.02 10.16,4.89 15.46,8.63 3.58,2.52 8.01,5.87 12.6,9.84 -7.54,-1.51 -14.83,-4.19 -21.74,-7.72 -4.32,-2.24 -9.66,-3.67 -14.09,-6.2 14.23,11.67 29.71,18.97 44.88,22.65 0.61,0.71 1.2,1.49 1.76,2.3 1.28,1.83 2.44,3.77 3.44,5.66 2.01,3.87 3.33,7.65 3.6,10.84 0.33,3.19 -0.56,5.95 -1.52,7.65 -0.94,1.73 -1.71,2.55 -1.69,2.57 -0.01,-0.04 0.96,-0.01 2.63,-0.88 1.62,-0.81 4.24,-3.12 5.37,-8.07 1.12,-4.86 0.54,-11.06 -1.26,-16.87 -0.11,-0.36 -0.23,-0.7 -0.34,-1.04 2.27,0.27 4.52,0.47 6.78,0.58 56.32,2.87 67.5,-41.9 67.53,-50.55z"/>
   <path class="fil0" d="M321.95 26.07c15.41,4.18 33.42,6.1 51.89,3.98 2.18,-0.23 4.31,-0.51 6.42,-0.85 -1.53,1.01 -3.15,1.99 -5.02,2.88 -4.87,2.35 -10.89,4.07 -17.84,4.97 -13.84,1.78 -31.38,0.39 -50.38,-5.07 -4.78,-1.34 -9.33,-3.1 -14.62,-5.06 -5.22,-1.9 -10.68,-3.74 -16.52,-5.36 -5.11,-1.34 -10.42,-2.61 -16.47,-3.09 3.07,4.79 5.6,9.82 7.48,15.07 2.16,0.29 4.32,0.64 6.45,1.07 5.51,1.09 10.87,2.45 16.09,3.9 5.13,1.46 10.74,3.01 15.91,3.94 20.89,3.94 39.36,3.4 53.79,-0.2 7.2,-1.81 13.36,-4.44 18.15,-7.57 3.09,-1.99 5.52,-4.15 7.51,-6.26 14.21,-2.57 27.27,-6.68 39.16,-9.85 7.49,-2 14.59,-3.61 21.29,-4.56 6.72,-0.97 13.04,-1.27 18.8,-1 11.59,0.48 20.86,2.99 27.13,4.96 6.28,2.01 9.66,3.48 9.66,3.44 -0.01,0.03 -3.12,-1.93 -9.17,-4.77 -6.04,-2.75 -15.14,-6.43 -27.2,-8.13 -6.01,-0.81 -12.73,-1.11 -19.86,-0.62 -7.12,0.45 -14.66,1.66 -22.39,3.3 -9.86,2.08 -20.07,4.76 -30.67,6.92 0.05,-0.12 0.1,-0.25 0.15,-0.37 -0.2,0.06 -0.42,0.1 -0.62,0.16 -0.07,0.12 -0.12,0.22 -0.19,0.34 -5.88,1.18 -11.87,2.2 -17.99,2.87 -17.48,1.98 -34.23,0.74 -49.2,-2.44 -15.02,-3.14 -28.47,-7.58 -40.19,-10.15 -11.67,-2.67 -21.45,-3.44 -28.1,-3.32 -6.69,0.11 -10.3,0.75 -10.31,0.71 -0.08,0.16 14.99,-0.6 37.23,6.97 11.16,3.55 24.17,9.05 39.63,13.17z"/>
   <path class="fil0" d="M329.79 50.84c-2.4,1.23 -5.62,2.14 -9.51,2.33 -3.89,0.2 -8.4,-0.25 -13.45,-1.26 -10.15,-1.93 -22.07,-6.34 -37.02,-10.06 -0.12,-0.03 -0.25,-0.05 -0.37,-0.08 0.41,1.67 0.76,3.4 1.01,5.16 0.01,0.03 0.02,0.06 0.03,0.09 0.02,0.14 0.01,0.28 0.03,0.41 0.2,1.68 0.32,3.39 0.32,5.12 0,0.05 -0.02,0.08 -0.03,0.13 13.55,1.85 25.69,4.36 35.92,4.7 5.39,0.22 10.28,-0.06 14.4,-1.02 4.12,-0.93 7.41,-2.58 9.66,-4.31 2.28,-1.77 3.57,-3.52 4.35,-4.7 0.75,-1.19 1.06,-1.85 1.07,-1.85 -0.01,-0.01 -0.46,0.61 -1.44,1.65 -0.98,1.02 -2.55,2.45 -4.95,3.68z"/>
   <path class="fil0" d="M228.58 48.64c-2.1,2.49 -3.65,5.21 -4.82,8.01 1.82,-3.41 5.22,-5.93 10.26,-5.93 4.03,0 7.02,1.62 8.99,4 1.15,-0.77 2.48,-1.41 4.05,-1.88 2.04,-0.64 4.33,-0.96 6.68,-1.14 1.06,-5.73 -1.15,-13.13 -1.15,-13.13 -6.62,1.67 -20.01,5.27 -24.02,10.06z"/>
   <path class="fil0" d="M243.51 21.18c-2.61,1.56 -4.73,3.99 -5.9,6.85 -0.61,1.45 -0.94,2.98 -1.09,4.57 -0.19,1.61 -0.13,4.62 -3.08,7.39l18.84 -5.37c-0.06,-0.42 -4.61,-10.74 -7.87,-13.96 -0.31,0.16 -0.6,0.33 -0.9,0.52z"/>
   <path class="fil0" d="M294.17 92.92c-0.06,0 0.05,0.04 -0.25,0.01l-1.31 -0.15c-0.85,-0.09 -1.64,-0.21 -2.43,-0.33 -3.12,-0.52 -5.57,-1.42 -7.18,-2.91 -1.67,-1.44 -2.45,-3.53 -2.83,-5.02 -0.37,-1.49 -0.45,-2.42 -0.46,-2.42 0.02,0.01 -0.49,0.78 -0.97,2.38 -0.46,1.58 -1,4.29 0.38,7.58 0.69,1.6 1.88,3.22 3.4,4.54 1.53,1.35 3.37,2.45 5.32,3.28 0.98,0.44 1.99,0.8 3.02,1.1 0.5,0.18 1.04,0.32 1.56,0.44 0.17,0.05 0.78,0.17 1.2,0.25l1.45 0.24c3.89,0.62 7.78,0.72 11.89,0.96l-0.09 -0.3c-1.25,-4.13 -2.48,-8.18 -3.77,-11.91 -0.38,-1.13 -0.49,-1.33 -0.72,-1.88 -0.21,-0.51 -0.45,-0.98 -0.68,-1.48 -0.45,-0.97 -0.98,-1.92 -1.54,-2.83 -1.15,-1.79 -2.52,-3.47 -4.08,-4.76 -1.58,-1.32 -3.35,-2.2 -4.97,-2.67 -3.32,-0.9 -5.88,-0.31 -7.48,0.12 -1.6,0.5 -2.39,0.94 -2.4,0.92 -0,0.01 0.92,0.14 2.45,0.55 1.49,0.39 3.64,1.11 5.42,2.6 1.8,1.5 3.05,3.71 4.04,6.74 0.24,0.75 0.47,1.54 0.7,2.38l0.36 1.29c0.1,0.38 0.29,1.11 0.21,0.95 -0.1,0.11 -0.19,0.04 -0.19,0.04 0.01,0.01 0.1,0.09 0.02,0.24l-0.04 0.04z"/>
   <path class="fil0" d="M265.49 80.48c0.86,-1 1.45,-1.51 1.44,-1.51 0,0.01 -0.76,0.05 -2.13,0.49 -1.3,0.47 -3.46,1.42 -5.08,4 -0.79,1.29 -1.31,2.9 -1.49,4.64 -0.18,1.73 -0.04,3.52 0.32,5.31 0.18,0.89 0.42,1.78 0.72,2.66 0.14,0.43 0.29,0.86 0.46,1.3 0.05,0.14 0.26,0.62 0.43,0.97l0.53 1.12c1.51,3.03 3.34,5.8 5.19,8.78l0.17 -0.23c2.28,-2.91 4.49,-5.75 6.45,-8.48 0.59,-0.83 0.67,-1.01 0.97,-1.44 0.23,-0.41 0.45,-0.8 0.67,-1.21 0.46,-0.79 0.85,-1.62 1.19,-2.46 0.71,-1.69 1.21,-3.46 1.33,-5.21 0.13,-1.74 -0.1,-3.4 -0.61,-4.79 -1.01,-2.75 -2.65,-4.25 -3.77,-5.15 -1.13,-0.89 -1.81,-1.21 -1.81,-1.22 -0.01,0 0.35,0.71 0.82,1.96 0.46,1.24 1.02,3.1 0.84,5.09 -0.15,1.98 -1.07,3.95 -2.68,6.13 -0.41,0.54 -0.84,1.1 -1.33,1.69l-0.72 0.85c-0.21,0.27 -0.64,0.76 -0.56,0.62 -0.12,-0.01 -0.13,-0.11 -0.13,-0.11 0,0.01 -0.01,0.11 -0.13,0.12l-0.05 -0.01c-0.03,-0.03 -0.01,0.06 -0.13,-0.17l-0.56 -0.97c-0.35,-0.64 -0.66,-1.25 -0.97,-1.88 -1.17,-2.43 -1.73,-4.57 -1.51,-6.43 0.19,-1.88 1.25,-3.47 2.1,-4.46z"/>
   <path class="fil0" d="M313.16 66.47c-2.93,-1.92 -5.64,-3.81 -8.62,-5.37l-1.11 -0.58c-0.35,-0.15 -0.81,-0.38 -0.95,-0.44 -0.44,-0.2 -0.86,-0.36 -1.29,-0.52 -0.87,-0.31 -1.75,-0.59 -2.64,-0.82 -1.76,-0.43 -3.55,-0.64 -5.27,-0.54 -1.73,0.09 -3.33,0.51 -4.62,1.22 -2.6,1.41 -3.58,3.43 -4.08,4.67 -0.46,1.29 -0.51,2.01 -0.52,2.01 0,0.01 0.51,-0.54 1.53,-1.31 1,-0.77 2.6,-1.7 4.47,-1.81 1.85,-0.13 3.97,0.52 6.37,1.75 0.6,0.3 1.21,0.66 1.84,1.02l0.95 0.58c0.23,0.13 0.14,0.1 0.17,0.13l0 0.05c-0.01,0.11 -0.12,0.12 -0.12,0.12 0,0 0.1,0 0.11,0.12 0.14,-0.06 -0.36,0.31 -0.63,0.51l-0.89 0.64c-0.57,0.44 -1.14,0.83 -1.68,1.18 -2.2,1.46 -4.17,2.25 -6.15,2.31 -1.97,0.07 -3.81,-0.56 -5.03,-1.05 -1.23,-0.53 -1.94,-0.9 -1.94,-0.89 0.01,-0.01 0.32,0.66 1.18,1.79 0.86,1.1 2.31,2.74 5.05,3.83 1.34,0.54 3.01,0.85 4.75,0.8 1.72,-0.04 3.5,-0.41 5.2,-1.02 0.85,-0.29 1.65,-0.65 2.47,-1.03 0.42,-0.19 0.81,-0.39 1.19,-0.62 0.46,-0.24 0.64,-0.31 1.47,-0.84 2.72,-1.76 5.61,-3.74 8.55,-5.77l0.22 -0.15z"/>
   <path class="fil0" d="M274.67 75.55c7.84,0 7.84,-12.2 0,-12.2 -7.87,0 -7.87,12.2 0,12.2z"/>
   <path class="fil0" d="M58.16 7.89c7.39,0.82 15.94,3.03 24.16,7.71 3.76,2.11 7.41,4.75 10.9,7.82 2.75,2.41 5.36,5.11 7.84,8.06 1.27,1.51 2.51,3.08 3.68,4.72 3.19,4.46 5.88,9.12 8.01,13.83 2.13,4.65 3.67,9.47 4.88,14.21 2.38,9.44 3.26,18.34 2.99,25.79 -0.27,7.45 -1.75,13.44 -3.31,17.43 -1.51,4 -2.92,6.03 -2.87,6.05 -0.05,-0.03 1.87,-1.55 4.46,-5.2 2.56,-3.64 5.61,-9.58 7.38,-17.52 1.78,-7.91 2.35,-17.72 0.83,-28.4 -0.78,-5.32 -2.05,-10.97 -4.25,-16.58 -2.17,-5.6 -5.11,-11.1 -8.82,-16.26 -0.29,-0.43 -0.61,-0.8 -0.92,-1.2 -2.34,-3.15 -4.91,-6.07 -7.66,-8.72 -5.77,-5.51 -12.26,-9.85 -18.89,-12.69 -10.19,-4.47 -20.28,-5.37 -28.33,-4.78 -8.1,0.61 -14.31,2.53 -18.45,3.98 -4.14,1.51 -6.29,2.64 -6.3,2.62 0,0.02 2.39,-0.42 6.69,-0.86 4.29,-0.42 10.53,-0.83 17.96,0.01z"/>
   <path class="fil0" d="M116.27 25.72c5.15,-1.83 10.19,-4.06 15.23,-6.47 2.53,-1.21 4.97,-2.46 7.36,-3.7 1.28,-0.64 2.26,-1.17 3.31,-1.65 1.05,-0.5 2.12,-0.93 3.19,-1.34 4.3,-1.6 8.75,-2.51 13.04,-2.86 8.64,-0.67 16.61,1.05 22.49,4.12 5.95,3.04 9.71,7.46 11.69,10.85 2,3.42 2.56,5.7 2.6,5.67 -0.06,0.01 0.12,-2.3 -0.97,-6.38 -1.07,-4.02 -3.92,-9.95 -10.16,-14.91 -6.11,-4.96 -15.26,-8.67 -25.79,-9.02 -5.25,-0.19 -10.82,0.41 -16.39,2.12 -1.38,0.43 -2.76,0.91 -4.15,1.49 -1.36,0.54 -2.77,1.23 -3.92,1.76l-7.29 3.52c-4.88,2.35 -9.63,4.64 -14.18,6.57 -1.64,0.71 -3.27,1.32 -4.87,1.93 2.74,2.64 5.32,5.54 7.66,8.68 0.39,-0.12 0.77,-0.23 1.13,-0.37z"/>
   <path class="fil0" d="M90.37 24.26l-2.88 0.77c-1.94,0.52 -3.84,0.82 -5.75,0.98 -3.81,0.34 -7.46,-0.01 -10.7,-0.74 -6.53,-1.49 -11.3,-4.75 -14.04,-7.53 -2.79,-2.78 -3.82,-4.9 -3.86,-4.85 0.06,-0.02 0.34,2.27 2.43,5.94 2.06,3.64 6.37,8.61 13.59,11.85 3.59,1.62 7.82,2.83 12.54,3.18 2.34,0.18 4.8,0.16 7.34,-0.13 2.44,-0.31 4.63,-0.63 7.13,-1.03 0.65,-0.1 1.35,-0.24 2.04,-0.38 -2.48,-2.93 -5.09,-5.63 -7.84,-8.04z"/>
   <path class="fil0" d="M43.61 191.14l-1.3 -1.25 -1.04 -1.05c-3.59,-3.85 -6.73,-7.89 -9.35,-12.01 -5.25,-8.22 -8.24,-16.76 -9.21,-24.03 -1,-7.31 -0.11,-13.19 0.87,-16.98 0.99,-3.8 1.98,-5.71 1.95,-5.72 0.04,-0.01 -0.01,2.16 0.47,5.89 0.5,3.7 1.62,8.94 4.27,14.71 2.6,5.78 6.74,12.01 12.33,18.12 2.76,3.06 5.9,6.09 9.32,9.05 0.28,0.27 0.27,0.25 0.29,0.24l0.06 0c0.03,-0.01 0.07,-0.02 0.09,-0.03 0.05,-0.02 0.08,-0.05 0.1,-0.08 0.04,-0.09 0.02,-0.17 0.01,-0.21l-0.01 -0.02c0,0 0.03,0.04 0.08,0.06 0.03,0 0.07,-0.01 0.11,-0.03 0.04,0.16 0.13,-1.54 0.18,-2.52 0.17,-4.45 -0.11,-8.73 -0.8,-12.64 -1.38,-7.91 -4.78,-14.49 -8.99,-19.33 -4.19,-4.89 -8.87,-8.08 -12.17,-10.15 -3.33,-2.05 -5.36,-3.04 -5.34,-3.06 -0,0.03 2.21,0.02 6.24,0.69 3.98,0.72 9.94,2.15 16.5,6.36 6.53,4.08 13.38,11.68 16.9,21.79 1.78,5.01 2.83,10.48 3.14,16.15 0.06,1.53 0.12,2.37 0.04,5.1 -0.1,2.53 -0.35,5.08 -0.68,7.55 -0.34,2.47 -0.81,4.91 -1.37,7.15l-1.85 6.55 -1.28 4.48c-3.92,-2.66 -7.55,-4.95 -11.32,-7.74 -1.88,-1.42 -3.76,-2.97 -5.57,-4.57 -0.91,-0.82 -1.8,-1.64 -2.66,-2.48z"/>
   <path class="fil0" d="M45.88 152.84c-1.49,7.74 -13.44,5.44 -11.98,-2.28 1.47,-7.74 13.44,-5.46 11.98,2.28z"/>
   <path class="fil0" d="M25.69 218.03c-0.17,-7.88 12.01,-8.14 12.19,-0.29 0.17,7.88 -12.01,8.14 -12.19,0.29z"/>
   <path class="fil0" d="M76.28 236.62c0.27,11 -16.81,11.39 -17.05,0.38 -0.25,-11.02 16.8,-11.4 17.05,-0.38z"/>
   <path class="fil0" d="M54.93 271.92c0.01,0.07 -9.82,-0.51 -14.54,-1.78 -7.54,-2.44 -15.5,-5.75 -21.57,-10.61 -2.19,-1.94 -4.14,-4.06 -5.76,-6.34 -4.14,-5.73 -6.14,-12.22 -6.55,-18.11 -0.4,-5.9 0.4,-11.29 2.09,-15.93 1.7,-4.66 4.45,-8.4 7.44,-10.97 6.13,-5.21 12.46,-5.83 16.2,-5.81 3.89,0.09 5.77,0.72 5.78,0.67 0.01,0.05 -2.02,-0.33 -5.9,0.03 -3.73,0.41 -9.77,1.88 -14.67,7.32 -4.92,5.29 -7.43,14.7 -5.4,24.93 1.02,5.04 3.38,10.09 7.33,14.25 0.69,0.73 1.46,1.41 2.24,2.06 0.02,-0.07 13.34,10.68 31.37,8.96 0.31,-0.02 12.9,1.23 21.3,-8.29 6.29,-7.1 21.34,-18.86 19.46,-59.97 -0.81,-0.49 -1.63,-0.99 -2.44,-1.57 -0.67,-0.47 -1.33,-0.99 -1.98,-1.54 -0.5,-0.44 -0.96,-0.84 -1.4,-1.28 -0.01,1.1 -0.04,2.21 -0.11,3.32 -0.43,5.39 -2.08,10.05 -4.32,14.24 -2.24,4.15 -5.2,7.75 -8.7,10.26 -3.43,2.59 -7.85,3.71 -10.64,3.4 -2.81,-0.27 -3.93,-1 -3.95,-0.95 -0.03,-0.04 1.51,0.09 3.59,-0.55 2.09,-0.6 3.64,-2.59 5.61,-4.82 4.86,-5.48 7.98,-15.25 7.95,-29.88l-1.57 -16.31c-0.16,-0.75 -0.29,-1.52 -0.41,-2.23 -0.87,-6.33 -2.6,-16.49 -2.64,-16.47 0.03,0 5.11,10.06 8.96,15.28 2.59,3.53 6.06,7.89 10.11,12.38 -1.68,-7.5 -4.53,-14.73 -8.22,-21.57 -2.31,-4.27 -3.86,-9.59 -6.51,-13.97 12,13.99 19.63,29.3 23.63,44.41 0.75,0.57 1.54,1.15 2.34,1.71 1.85,1.24 3.82,2.36 5.75,3.33 3.9,1.92 7.71,3.14 10.89,3.34 3.2,0.25 5.92,-0.7 7.61,-1.7 1.7,-1 2.51,-1.77 2.53,-1.75 -0.04,-0.01 0.01,0.96 -0.82,2.65 -0.77,1.64 -3.02,4.3 -7.94,5.55 -4.83,1.23 -11.03,0.79 -16.88,-0.86 -0.36,-0.1 -0.7,-0.21 -1.04,-0.34 0.32,2.28 0.57,4.53 0.73,6.77 4.13,56.3 -40.32,68.51 -48.95,68.73z"/>
   <path class="fil0" d="M29.89 326.29c4.53,15.32 6.85,33.33 5.14,51.87 -0.18,2.16 -0.42,4.3 -0.71,6.41 0.98,-1.55 1.92,-3.19 2.76,-5.09 2.21,-4.92 3.83,-10.99 4.57,-17.96 1.45,-13.89 -0.34,-31.41 -6.19,-50.31 -1.47,-4.75 -3.32,-9.27 -5.4,-14.52 -2.01,-5.18 -3.99,-10.61 -5.71,-16.42 -1.48,-5.09 -2.85,-10.37 -3.47,-16.42 4.85,2.97 9.93,5.4 15.21,7.15 0.37,2.16 0.76,4.31 1.22,6.44 1.23,5.49 2.71,10.82 4.27,16.01 1.56,5.1 3.25,10.67 4.31,15.84 4.39,20.82 4.26,39.32 1.01,53.84 -1.65,7.25 -4.15,13.46 -7.16,18.33 -1.93,3.13 -4.02,5.61 -6.09,7.66 -2.23,14.27 -6.05,27.44 -8.96,39.43 -1.83,7.51 -3.29,14.66 -4.09,21.41 -0.82,6.72 -0.96,13.04 -0.56,18.83 0.74,11.56 3.45,20.79 5.55,27.02 2.15,6.25 3.71,9.61 3.68,9.62 0.02,-0.01 -2,-3.08 -4.97,-9.07 -2.9,-5.98 -6.78,-15.04 -8.74,-27.05 -0.97,-5.99 -1.39,-12.71 -1.08,-19.85 0.29,-7.15 1.34,-14.71 2.81,-22.5 1.86,-9.89 4.29,-20.17 6.22,-30.85 -0.12,0.05 -0.23,0.1 -0.34,0.15 0.06,-0.2 0.09,-0.4 0.14,-0.6 0.11,-0.07 0.21,-0.13 0.32,-0.2 1.05,-5.91 1.94,-11.94 2.45,-18.09 1.6,-17.51 -0.01,-34.26 -3.52,-49.19 -3.46,-14.95 -8.21,-28.33 -11.04,-39.97 -2.95,-11.62 -3.93,-21.4 -3.96,-28.05 -0.04,-6.7 0.52,-10.33 0.48,-10.33 0.16,-0.1 -0.25,14.99 7.77,37.1 3.82,11.1 9.61,23.97 14.07,39.35z"/>
   <path class="fil0" d="M54.78 333.57c1.21,-2.41 2.01,-5.65 2.12,-9.55 0.14,-3.9 -0.44,-8.41 -1.56,-13.43 -2.16,-10.12 -6.82,-21.97 -10.89,-36.83 -0.03,-0.12 -0.06,-0.26 -0.09,-0.38 1.7,0.38 3.43,0.68 5.18,0.87 0.03,0.01 0.06,0.02 0.09,0.02 0.16,0.02 0.3,0 0.43,0.02 1.66,0.18 3.37,0.26 5.12,0.22 0.05,0 0.08,-0.02 0.13,-0.03 2.14,13.52 4.91,25.61 5.48,35.85 0.36,5.39 0.16,10.29 -0.68,14.43 -0.84,4.15 -2.42,7.47 -4.09,9.76 -1.71,2.3 -3.43,3.65 -4.59,4.44 -1.17,0.79 -1.83,1.11 -1.82,1.12 -0.01,-0 0.6,-0.47 1.61,-1.48 1,-1.01 2.39,-2.61 3.55,-5.06z"/>
   <path class="fil0" d="M50.34 232.35c2.41,-2.17 5.11,-3.77 7.89,-4.99 -3.37,1.87 -5.81,5.35 -5.69,10.4 0.09,4.03 1.77,6.99 4.19,8.88 -0.74,1.19 -1.34,2.54 -1.78,4.09 -0.59,2.06 -0.87,4.38 -0.97,6.74 -5.73,1.18 -13.16,-0.86 -13.16,-0.86 1.52,-6.66 4.8,-20.15 9.53,-24.27z"/>
   <path class="fil0" d="M23.24 247.91c1.5,-2.67 3.86,-4.84 6.72,-6.08 1.43,-0.64 2.96,-1.01 4.54,-1.19 1.61,-0.22 4.61,-0.23 7.32,-3.27l-4.95 19c-0.41,-0.05 -10.84,-4.35 -14.12,-7.55 0.15,-0.33 0.32,-0.63 0.5,-0.91z"/>
   <path class="fil0" d="M96.02 297c0.01,-0.08 0.05,0.05 0.01,-0.28l-0.18 -1.28c-0.11,-0.85 -0.24,-1.67 -0.38,-2.43 -0.6,-3.11 -1.54,-5.55 -3.06,-7.12 -1.47,-1.64 -3.57,-2.39 -5.07,-2.73 -1.5,-0.33 -2.43,-0.39 -2.42,-0.41 0,0.02 0.76,-0.5 2.35,-1.02 1.57,-0.49 4.24,-1.1 7.55,0.21 1.63,0.64 3.28,1.81 4.64,3.29 1.37,1.51 2.49,3.29 3.39,5.22 0.46,0.97 0.84,1.97 1.17,3 0.19,0.52 0.34,1.03 0.48,1.57 0.06,0.17 0.18,0.75 0.28,1.2l0.27 1.42c0.7,3.9 0.9,7.8 1.25,11.9l-0.33 -0.08c-4.15,-1.17 -8.22,-2.33 -11.95,-3.51 -1.13,-0.35 -1.36,-0.46 -1.92,-0.68 -0.51,-0.22 -0.99,-0.43 -1.5,-0.65 -0.97,-0.44 -1.93,-0.94 -2.83,-1.48 -1.84,-1.12 -3.54,-2.44 -4.87,-3.98 -1.35,-1.56 -2.28,-3.3 -2.77,-4.92 -0.98,-3.3 -0.45,-5.88 -0.05,-7.46 0.45,-1.63 0.88,-2.43 0.87,-2.44 0.01,-0 0.15,0.92 0.58,2.44 0.44,1.48 1.22,3.61 2.74,5.36 1.54,1.76 3.77,2.97 6.81,3.9 0.76,0.22 1.55,0.44 2.4,0.64l1.29 0.33c0.39,0.08 1.12,0.26 0.95,0.18 0.11,-0.1 0.04,-0.19 0.04,-0.19 0,0 0.09,0.09 0.23,0.01l0.05 -0.04z"/>
   <path class="fil0" d="M82.97 268.57c-0.99,0.89 -1.5,1.49 -1.5,1.48 0.01,0 0.03,-0.75 0.46,-2.15 0.42,-1.31 1.32,-3.49 3.88,-5.17 1.25,-0.82 2.85,-1.38 4.57,-1.59 1.72,-0.25 3.54,-0.15 5.31,0.2 0.89,0.16 1.79,0.38 2.67,0.65 0.43,0.15 0.88,0.29 1.31,0.45 0.14,0.04 0.63,0.24 0.97,0.38l1.13 0.53c3.05,1.42 5.87,3.21 8.89,5l-0.21 0.17c-2.86,2.32 -5.68,4.59 -8.33,6.62 -0.82,0.63 -1,0.71 -1.44,0.99 -0.38,0.25 -0.79,0.5 -1.17,0.73 -0.79,0.45 -1.62,0.89 -2.43,1.25 -1.67,0.75 -3.45,1.26 -5.17,1.45 -1.74,0.17 -3.43,-0.04 -4.8,-0.51 -2.79,-0.95 -4.31,-2.56 -5.22,-3.65 -0.91,-1.12 -1.25,-1.8 -1.26,-1.79 0,-0.02 0.7,0.33 1.98,0.8 1.24,0.42 3.11,0.93 5.08,0.72 1.96,-0.19 3.91,-1.16 6.05,-2.84 0.55,-0.4 1.09,-0.85 1.65,-1.34l0.87 -0.76c0.24,-0.21 0.74,-0.63 0.59,-0.55 -0.02,-0.13 -0.12,-0.13 -0.12,-0.13 0,0.01 0.11,-0.01 0.11,-0.13l-0 -0.05c-0.04,-0.03 0.07,-0.01 -0.18,-0.16l-0.98 -0.51c-0.63,-0.33 -1.27,-0.66 -1.89,-0.93 -2.45,-1.11 -4.61,-1.65 -6.46,-1.37 -1.87,0.23 -3.41,1.33 -4.38,2.2z"/>
   <path class="fil0" d="M70.03 316.61c-1.98,-2.9 -3.93,-5.58 -5.55,-8.53l-0.6 -1.09c-0.16,-0.33 -0.39,-0.79 -0.45,-0.95 -0.18,-0.42 -0.38,-0.83 -0.55,-1.28 -0.33,-0.86 -0.61,-1.74 -0.87,-2.59 -0.47,-1.76 -0.72,-3.56 -0.66,-5.29 0.05,-1.71 0.44,-3.35 1.11,-4.64 1.35,-2.65 3.35,-3.68 4.57,-4.18 1.3,-0.51 2.01,-0.58 2.01,-0.59 0.01,0.01 -0.52,0.55 -1.28,1.59 -0.75,1.02 -1.66,2.61 -1.72,4.49 -0.09,1.86 0.62,3.96 1.9,6.33 0.34,0.6 0.68,1.23 1.05,1.83l0.6 0.94c0.14,0.22 0.1,0.13 0.14,0.17l0.05 0c0.11,-0.01 0.12,-0.12 0.12,-0.12 0,0 0,0.1 0.12,0.1 -0.06,0.14 0.32,-0.36 0.5,-0.62l0.63 -0.9c0.42,-0.61 0.8,-1.16 1.14,-1.74 1.41,-2.23 2.16,-4.21 2.17,-6.2 0.03,-1.98 -0.64,-3.8 -1.18,-5.02 -0.53,-1.22 -0.92,-1.92 -0.9,-1.92 -0,0 0.67,0.32 1.81,1.14 1.1,0.85 2.79,2.28 3.94,4.97 0.57,1.34 0.91,2.99 0.9,4.74 -0,1.73 -0.33,3.51 -0.9,5.23 -0.27,0.86 -0.6,1.69 -0.98,2.49 -0.18,0.43 -0.37,0.82 -0.56,1.22 -0.25,0.45 -0.32,0.63 -0.82,1.48 -1.7,2.78 -3.62,5.72 -5.58,8.69l-0.14 0.24z"/>
   <path class="fil0" d="M78.22 277.86c0.18,7.87 -11.99,8.14 -12.19,0.27 -0.17,-7.87 12.02,-8.14 12.19,-0.27z"/>
   <path class="fil0" d="M5.81 62.7c0.99,7.38 3.38,15.91 8.25,24.04 2.18,3.69 4.89,7.31 8.05,10.72 2.47,2.7 5.22,5.25 8.22,7.65 1.54,1.26 3.14,2.47 4.8,3.6 4.53,3.09 9.24,5.68 13.99,7.7 4.69,2.03 9.54,3.47 14.3,4.57 9.48,2.17 18.4,2.85 25.82,2.41 7.44,-0.41 13.39,-2.04 17.33,-3.67 3.96,-1.63 5.96,-3.08 5.98,-3.03 -0.04,-0.04 -1.52,1.93 -5.1,4.57 -3.57,2.67 -9.42,5.85 -17.33,7.79 -7.88,1.96 -17.64,2.74 -28.36,1.45 -5.32,-0.64 -10.98,-1.81 -16.66,-3.89 -5.64,-2.04 -11.19,-4.85 -16.44,-8.44 -0.41,-0.28 -0.81,-0.59 -1.22,-0.9 -3.2,-2.27 -6.17,-4.77 -8.87,-7.47 -5.64,-5.64 -10.13,-12.05 -13.11,-18.61 -4.67,-10.1 -5.81,-20.21 -5.4,-28.27 0.41,-8.12 2.18,-14.37 3.57,-18.54 1.41,-4.18 2.47,-6.35 2.45,-6.36 0.02,0 -0.35,2.4 -0.72,6.73 -0.3,4.3 -0.57,10.56 0.43,17.95z"/>
   <path class="fil0" d="M24.92 120.47c-1.69,5.21 -3.81,10.29 -6.13,15.38 -1.15,2.56 -2.33,5.03 -3.51,7.47 -0.63,1.28 -1.12,2.26 -1.6,3.33 -0.46,1.06 -0.88,2.14 -1.25,3.22 -1.5,4.34 -2.31,8.83 -2.54,13.14 -0.5,8.63 1.41,16.58 4.61,22.41 3.18,5.89 7.66,9.53 11.09,11.44 3.46,1.93 5.75,2.44 5.72,2.48 0.01,-0.06 -2.29,0.19 -6.39,-0.81 -4.03,-0.99 -10.02,-3.73 -15.11,-9.84 -5.09,-6.01 -9,-15.1 -9.6,-25.61 -0.3,-5.25 0.17,-10.86 1.75,-16.45 0.38,-1.39 0.85,-2.81 1.37,-4.19 0.54,-1.38 1.17,-2.82 1.7,-3.96l3.33 -7.37c2.24,-4.96 4.42,-9.77 6.25,-14.36 0.67,-1.66 1.24,-3.28 1.81,-4.91 2.7,2.7 5.67,5.2 8.87,7.48 -0.12,0.39 -0.24,0.77 -0.37,1.14z"/>
   <path class="fil0" d="M22.86 94.58l0.73 -2.9c0.45,-1.94 0.73,-3.86 0.85,-5.77 0.23,-3.82 -0.17,-7.46 -1,-10.69 -1.63,-6.5 -4.99,-11.2 -7.83,-13.88 -2.87,-2.74 -5,-3.72 -4.95,-3.77 -0.03,0.06 2.3,0.3 6.01,2.31 3.68,1.98 8.73,6.19 12.13,13.35 1.71,3.55 3,7.76 3.45,12.47 0.25,2.34 0.28,4.8 0.03,7.35 -0.26,2.45 -0.51,4.65 -0.85,7.15 -0.09,0.66 -0.24,1.36 -0.35,2.05 -3,-2.41 -5.73,-4.96 -8.22,-7.66z"/>
  </g>
 </g>
</svg>
