<?xml version="1.0" encoding="UTF-8"?>
<!DOCTYPE svg PUBLIC "-//W3C//DTD SVG 1.1//EN" "http://www.w3.org/Graphics/SVG/1.1/DTD/svg11.dtd">
<!-- Creator: CorelDRAW 2020 (64-Bit) -->
<svg xmlns="http://www.w3.org/2000/svg" xml:space="preserve" width="42.3576mm" height="42.0609mm" version="1.1" style="shape-rendering:geometricPrecision; text-rendering:geometricPrecision; image-rendering:optimizeQuality; fill-rule:evenodd; clip-rule:evenodd"
viewBox="0 0 602.57 598.35"
 xmlns:xlink="http://www.w3.org/1999/xlink"
 xmlns:xodm="http://www.corel.com/coreldraw/odm/2003">
 <defs>
  <style type="text/css">
   <![CDATA[
    .fil0 {fill:#EECE7A;fill-rule:nonzero}
   ]]>
  </style>
 </defs>
 <g id="Layer_x0020_1">
  <metadata id="CorelCorpID_0Corel-Layer"/>
  <g id="_2086145600368">
   <path class="fil0" d="M531.43 104.55c11.6,-6.45 24.05,-16.58 35.2,-30.19 5.56,-6.83 10.82,-14.51 15.28,-23.22 2.23,-4.37 4.26,-9.01 5.91,-13.96l0.69 -2.19 0.92 -3.39c0.56,-2.27 1.02,-4.55 1.33,-6.8 0.61,-4.44 0.91,-8.67 1.38,-13.29l-0.11 -0.01c-4.56,-0.4 -8.67,-0.87 -13.06,-1.13 -2.23,-0.08 -4.52,-0.02 -6.83,0.2 -1.17,0.14 -2.31,0.23 -3.49,0.4l-1.75 0.27 -1.09 0.19c-5.33,1.06 -10.28,2.75 -14.92,4.69 -9.27,3.95 -17.23,9.15 -24.19,14.66 -13.89,11.13 -23.73,23.79 -30.31,35.18 -6.59,11.41 -9.8,21.66 -11.28,28.7 -1.46,7.1 -1.43,11.07 -1.49,11.06 0.13,0.22 4.58,-15.66 20.66,-34.21 7.95,-9.19 18.68,-19.07 31.9,-27.48 6.59,-4.16 13.83,-7.99 21.46,-10.72 3.81,-1.35 7.74,-2.45 11.63,-3.08l0.64 -0.09 -0.03 0.01c-0.01,0.01 0.01,0.02 0.01,0.02l0 0.04c0,0.02 -0.01,0.02 -0.01,0.02 0,0 0.01,-0.01 0.03,-0.01l0.03 0.01 0.01 0.01 -0.32 1.17c-1.2,3.96 -2.69,7.91 -4.37,11.73 -3.39,7.7 -7.46,14.9 -11.75,21.55 -8.65,13.26 -18.29,24.14 -27.54,31.89 -9.19,7.81 -18.11,12.32 -24.74,14.29 -6.61,1.98 -10.7,1.87 -10.68,1.97 0,-0.11 3.84,1.25 11.19,1 7.3,-0.22 18.06,-2.73 29.68,-9.29z"/>
   <path class="fil0" d="M484.37 121.36c0,-9.4 -14.52,-9.4 -14.52,0 0,9.4 14.52,9.4 14.52,0z"/>
   <path class="fil0" d="M517.34 69.9c0,13.16 20.38,13.16 20.38,0 0,-13.15 -20.38,-13.15 -20.38,0z"/>
   <path class="fil0" d="M434.43 178.56c0.58,-0.11 1.41,-0.23 1.64,-0.3 0.74,-0.18 1.45,-0.36 2.16,-0.55 1.42,-0.38 2.82,-0.87 4.16,-1.4 2.69,-1.09 5.21,-2.51 7.35,-4.27 2.14,-1.78 3.82,-3.95 4.82,-6.1 2.02,-4.47 1.35,-8.17 0.81,-10.34 -0.63,-2.23 -1.25,-3.29 -1.24,-3.31 -0.01,-0.01 -0.16,1.25 -0.75,3.31 -0.55,2.02 -1.71,4.83 -4.03,6.76 -2.27,1.94 -5.64,3.08 -9.92,3.7 -1.07,0.15 -2.19,0.27 -3.35,0.36l-1.77 0.13c-0.44,0.04 -0.3,-0.01 -0.37,-0.02l-0.05 -0.07c-0.1,-0.16 0.02,-0.28 0.03,-0.28 0.01,0 -0.13,0.08 -0.26,-0.07 -0.12,0.23 0.17,-0.79 0.32,-1.28l0.53 -1.77c0.34,-1.14 0.68,-2.23 1.07,-3.23 1.46,-4.11 3.24,-7.08 5.74,-9.05 2.48,-1.97 5.47,-2.88 7.51,-3.39 2.11,-0.47 3.36,-0.61 3.35,-0.62 -0.01,0.02 -1.07,-0.64 -3.25,-1.34 -2.13,-0.67 -5.6,-1.53 -10.19,-0.45 -2.26,0.58 -4.7,1.74 -6.87,3.46 -2.21,1.74 -4.16,3.95 -5.76,6.38 -0.82,1.22 -1.54,2.51 -2.23,3.82 -0.33,0.64 -0.65,1.3 -0.97,1.96 -0.33,0.77 -0.5,1.04 -1.09,2.56 -1.85,5.04 -3.7,10.55 -5.55,16.12l-0.13 0.44c5.6,-0.17 10.94,-0.19 16.29,-0.89l1.98 -0.27z"/>
   <path class="fil0" d="M480.25 175.16c0.22,-0.46 0.52,-1.11 0.61,-1.3 0.24,-0.58 0.47,-1.18 0.68,-1.76 0.43,-1.19 0.8,-2.4 1.08,-3.6 0.56,-2.41 0.84,-4.89 0.63,-7.25 -0.19,-2.36 -0.85,-4.61 -1.88,-6.38 -2.11,-3.59 -5.02,-4.99 -6.81,-5.64 -1.84,-0.68 -2.89,-0.75 -2.89,-0.77 -0.01,0.01 0.8,0.74 1.95,2.15 1.13,1.38 2.51,3.58 2.71,6.15 0.24,2.55 -0.63,5.46 -2.31,8.74 -0.41,0.83 -0.88,1.68 -1.39,2.52l-0.79 1.3c-0.18,0.34 -0.14,0.19 -0.19,0.25l-0.06 0c-0.17,-0.01 -0.19,-0.17 -0.19,-0.18 0.01,0.01 0,0.15 -0.17,0.16 0.09,0.21 -0.47,-0.51 -0.75,-0.86l-0.98 -1.22c-0.6,-0.81 -1.2,-1.58 -1.71,-2.34 -2.14,-3.06 -3.33,-5.77 -3.46,-8.48 -0.16,-2.71 0.68,-5.23 1.34,-6.92 0.71,-1.7 1.22,-2.65 1.21,-2.65 0,0.01 -0.97,0.45 -2.54,1.6 -1.52,1.18 -3.84,3.17 -5.31,6.92 -0.74,1.85 -1.11,4.11 -1,6.49 0.11,2.39 0.69,4.85 1.6,7.18 0.47,1.16 0.98,2.3 1.55,3.42 0.3,0.57 0.6,1.1 0.9,1.64 0.39,0.63 0.49,0.88 1.26,2.03 2.58,3.78 5.52,7.77 8.49,11.85l0.22 0.3c2.66,-3.99 5.28,-7.72 7.42,-11.83l0.79 -1.51z"/>
   <path class="fil0" d="M448.28 137.3c1.22,-1.49 1.67,-2.43 1.68,-2.42 -0.01,-0.02 -0.94,0.5 -2.67,1.14 -1.69,0.65 -4.22,1.41 -6.9,1.25 -2.72,-0.15 -5.38,-1.29 -8.33,-3.36 -0.75,-0.5 -1.49,-1.05 -2.27,-1.67l-1.19 -0.93c-0.33,-0.26 -1.02,-0.78 -0.83,-0.69 0.01,-0.16 0.15,-0.16 0.15,-0.16 -0.01,0 -0.15,-0.02 -0.16,-0.2l0.01 -0.06c0.04,-0.04 -0.08,-0.01 0.23,-0.17l1.32 -0.74c0.88,-0.5 1.74,-0.93 2.58,-1.31 3.31,-1.62 6.25,-2.41 8.77,-2.16 2.54,0.2 4.69,1.54 6.03,2.62 1.35,1.1 2.03,1.86 2.04,1.85 -0.02,0.01 -0.06,-0.98 -0.64,-2.77 -0.63,-1.7 -1.89,-4.5 -5.42,-6.53 -1.71,-1 -3.92,-1.67 -6.27,-1.84 -2.34,-0.19 -4.81,0.03 -7.23,0.58 -1.21,0.26 -2.42,0.59 -3.61,1.02 -0.58,0.2 -1.2,0.41 -1.77,0.63 -0.2,0.08 -0.86,0.36 -1.32,0.59l-1.53 0.71c-4.15,2.06 -7.94,4.54 -12,7.05l0.29 0.21c3.93,2.86 7.81,5.7 11.48,8.2 1.11,0.74 1.39,0.87 1.97,1.21 0.55,0.3 1.07,0.58 1.6,0.88 1.09,0.55 2.21,1.05 3.36,1.5 2.29,0.85 4.71,1.45 7.08,1.57 2.37,0.13 4.65,-0.23 6.5,-0.92 3.77,-1.39 5.82,-3.61 7.04,-5.06z"/>
   <path class="fil0" d="M551.5 223.75l1.53 -1.53 1.18 -1.31c4.22,-4.65 7.86,-9.56 10.84,-14.54 6.05,-9.96 9.4,-20.23 10.36,-28.94 1.02,-8.75 -0.21,-15.73 -1.48,-20.24 -1.28,-4.51 -2.53,-6.76 -2.47,-6.77 -0.06,-0.01 0.06,2.57 -0.44,7.04 -0.47,4.43 -1.67,10.71 -4.68,17.66 -2.94,6.97 -7.71,14.51 -14.2,21.94 -3.24,3.72 -6.9,7.43 -10.88,11.07 -0.33,0.3 -0.32,0.28 -0.33,0.27l-0.07 -0.01c-0.05,-0.01 -0.08,-0.01 -0.12,-0.02 -0.08,-0.02 -0.12,-0.05 -0.14,-0.09 -0.05,-0.08 -0.03,-0.17 -0.02,-0.21l0.01 -0.03c0,0 -0.04,0.06 -0.1,0.07 -0.03,0.01 -0.08,0 -0.13,-0.03 -0.05,0.18 -0.2,-1.87 -0.26,-3.02 -0.32,-5.32 -0.12,-10.4 0.61,-15.12 1.45,-9.46 5.32,-17.38 10.23,-23.29 4.87,-5.95 10.34,-9.89 14.22,-12.44 3.95,-2.53 6.34,-3.77 6.32,-3.79 0.01,0.04 -2.68,0.08 -7.45,1 -4.71,0.96 -11.78,2.82 -19.49,8 -7.72,5.05 -15.66,14.32 -19.57,26.48 -2.02,6.02 -3.13,12.58 -3.32,19.34 -0.03,1.84 -0.08,2.84 0.09,6.09 0.18,3.01 0.52,6.06 1.01,9 0.47,2.93 1.1,5.83 1.83,8.49l2.38 7.77 1.67 5.31c4.58,-3.27 8.85,-6.1 13.27,-9.53 2.21,-1.77 4.4,-3.64 6.53,-5.62 1.07,-1 2.08,-1.98 3.11,-3z"/>
   <path class="fil0" d="M547.77 178.09c1.98,9.19 16.18,6.14 14.24,-3.04 -1.98,-9.18 -16.18,-6.13 -14.24,3.04z"/>
   <path class="fil0" d="M573.6 255.33c0,-9.4 -14.55,-9.4 -14.55,0 0,9.37 14.55,9.37 14.55,0z"/>
   <path class="fil0" d="M513.71 278.87c0,13.15 20.37,13.15 20.37,0 0,-13.15 -20.37,-13.15 -20.37,0z"/>
   <path class="fil0" d="M540.17 320.43c-0.01,0.09 11.7,-0.89 17.26,-2.5 8.93,-3.14 18.35,-7.29 25.46,-13.25 2.56,-2.38 4.84,-4.96 6.7,-7.72 4.8,-6.95 7.01,-14.74 7.32,-21.78 0.34,-7.05 -0.75,-13.46 -2.91,-18.98 -2.15,-5.49 -5.52,-9.88 -9.13,-12.86 -7.49,-6.06 -15.05,-6.63 -19.52,-6.51 -4.63,0.24 -6.87,1.01 -6.87,0.95 -0.01,0.06 2.4,-0.45 7.03,-0.12 4.46,0.4 11.7,1.98 17.7,8.35 6.01,6.17 9.28,17.34 7.12,29.61 -1.09,6.04 -3.77,12.13 -8.38,17.19 -0.8,0.9 -1.7,1.72 -2.6,2.52 -0.03,-0.09 -15.64,13.1 -37.16,11.54 -0.4,-0.02 -15.39,1.8 -25.67,-9.33 -7.69,-8.3 -25.98,-21.95 -24.84,-71.03 0.98,-0.59 1.95,-1.24 2.9,-1.95 0.77,-0.57 1.57,-1.22 2.32,-1.87 0.59,-0.56 1.13,-1.04 1.64,-1.56 0.04,1.32 0.1,2.65 0.23,3.96 0.65,6.39 2.74,11.94 5.52,16.87 2.79,4.89 6.4,9.08 10.65,11.99 4.19,3.01 9.47,4.23 12.82,3.78 3.34,-0.38 4.66,-1.33 4.69,-1.26 0.04,-0.05 -1.83,0.17 -4.33,-0.54 -2.5,-0.67 -4.37,-3 -6.79,-5.61 -5.97,-6.4 -9.96,-17.98 -10.33,-35.41l1.45 -19.5c0.18,-0.93 0.34,-1.84 0.45,-2.7 0.87,-7.58 2.66,-19.74 2.71,-19.71 -0.03,0 -5.82,12.13 -10.26,18.47 -3.03,4.28 -7.03,9.57 -11.76,15.06 1.8,-9.01 5,-17.72 9.21,-25.97 2.66,-5.17 4.37,-11.55 7.41,-16.84 -13.95,17.03 -22.65,35.49 -27.03,53.64 -0.85,0.69 -1.78,1.42 -2.75,2.08 -2.18,1.53 -4.47,2.94 -6.75,4.14 -4.61,2.4 -9.11,3.94 -12.91,4.26 -3.81,0.39 -7.09,-0.64 -9.12,-1.78 -2.07,-1.15 -3.05,-2.08 -3.07,-2.05 0.04,-0.01 0.01,1.15 1.05,3.17 0.96,1.91 3.71,5.06 9.62,6.38 5.79,1.35 13.19,0.65 20.12,-1.47 0.43,-0.16 0.83,-0.3 1.24,-0.44 -0.32,2.71 -0.56,5.43 -0.69,8.1 -3.42,67.28 49.95,80.66 60.26,80.7z"/>
   <path class="fil0" d="M571.49 384.61c-4.99,18.41 -7.28,39.95 -4.75,62.02 0.27,2.58 0.61,5.12 1.01,7.64 -1.21,-1.8 -2.38,-3.76 -3.44,-5.99 -2.8,-5.81 -4.86,-12.98 -5.93,-21.28 -2.12,-16.56 -0.44,-37.51 6.05,-60.19 1.6,-5.73 3.69,-11.14 6.03,-17.5 2.26,-6.23 4.46,-12.76 6.38,-19.74 1.6,-6.1 3.12,-12.45 3.68,-19.68 -5.71,3.67 -11.71,6.72 -17.97,8.93 -0.35,2.61 -0.77,5.19 -1.28,7.73 -1.3,6.56 -2.91,12.97 -4.65,19.2 -1.74,6.13 -3.57,12.83 -4.7,19.01 -4.69,24.95 -4.05,47.02 0.23,64.26 2.17,8.63 5.3,15.98 9.03,21.68 2.38,3.69 4.94,6.63 7.47,9.01 3.07,16.95 7.97,32.55 11.75,46.78 2.38,8.92 4.3,17.4 5.43,25.43 1.15,8.01 1.52,15.56 1.19,22.47 -0.58,13.82 -3.57,24.89 -5.92,32.38 -2.39,7.5 -4.15,11.56 -4.11,11.57 -0.03,-0.02 2.31,-3.73 5.69,-10.96 3.28,-7.22 7.67,-18.12 9.68,-32.53 0.98,-7.18 1.33,-15.18 0.74,-23.7 -0.53,-8.52 -1.98,-17.51 -3.94,-26.78 -2.48,-11.77 -5.68,-23.97 -8.25,-36.64 0.14,0.06 0.29,0.11 0.44,0.17 -0.07,-0.23 -0.12,-0.48 -0.19,-0.71 -0.14,-0.08 -0.26,-0.15 -0.4,-0.26 -1.4,-7 -2.62,-14.16 -3.42,-21.49 -2.36,-20.86 -0.89,-40.87 2.92,-58.77 3.74,-17.94 9.04,-34.02 12.1,-47.99 3.19,-13.97 4.11,-25.63 3.96,-33.6 -0.13,-7.96 -0.89,-12.31 -0.85,-12.31 -0.19,-0.09 0.72,17.91 -8.3,44.5 -4.24,13.31 -10.78,28.85 -15.7,47.32z"/>
   <path class="fil0" d="M541.96 393.99c-1.47,-2.84 -2.55,-6.72 -2.78,-11.34 -0.24,-4.65 0.3,-10.07 1.5,-16.09 2.31,-12.1 7.56,-26.36 12.01,-44.22 0.03,-0.15 0.06,-0.3 0.09,-0.45 -1.99,0.5 -4.05,0.93 -6.16,1.2 -0.04,0.01 -0.06,0.04 -0.11,0.04 -0.17,0.02 -0.33,0.01 -0.49,0.03 -2.01,0.23 -4.04,0.38 -6.11,0.38 -0.06,0 -0.1,-0.02 -0.16,-0.04 -2.2,16.2 -5.19,30.69 -5.6,42.91 -0.26,6.47 0.08,12.28 1.22,17.21 1.11,4.93 3.07,8.88 5.14,11.56 2.11,2.71 4.19,4.24 5.59,5.17 1.42,0.93 2.22,1.27 2.21,1.28 0.01,-0.01 -0.72,-0.52 -1.95,-1.7 -1.22,-1.17 -2.93,-3.08 -4.4,-5.94z"/>
   <path class="fil0" d="M544.58 273.08c-2.97,-2.51 -6.2,-4.34 -9.54,-5.76 4.05,2.18 7.07,6.25 7.07,12.27 0,4.82 -1.93,8.39 -4.77,10.73 0.92,1.38 1.67,3 2.25,4.84 0.74,2.45 1.14,5.17 1.34,8.02 6.84,1.26 15.66,-1.37 15.66,-1.37 -1.99,-7.94 -6.28,-23.94 -12,-28.73z"/>
   <path class="fil0" d="M577.32 290.93c-1.86,-3.14 -4.74,-5.68 -8.17,-7.08 -1.73,-0.74 -3.56,-1.13 -5.45,-1.31 -1.92,-0.19 -5.5,-0.13 -8.82,-3.68l6.4 22.5c0.51,-0.07 12.82,-5.48 16.65,-9.37 -0.19,-0.39 -0.39,-0.74 -0.62,-1.07z"/>
   <path class="fil0" d="M491.82 351.43c-0.01,-0.06 -0.07,0.06 -0.01,-0.3l0.15 -1.54c0.11,-1.02 0.24,-1.99 0.38,-2.94 0.62,-3.73 1.7,-6.63 3.47,-8.58 1.71,-1.96 4.2,-2.91 5.98,-3.38 1.78,-0.44 2.89,-0.53 2.88,-0.55 -0.01,0.02 -0.93,-0.58 -2.83,-1.16 -1.88,-0.53 -5.08,-1.2 -9.04,0.45 -1.9,0.82 -3.83,2.24 -5.42,4.08 -1.59,1.81 -2.89,3.99 -3.91,6.32 -0.52,1.17 -0.95,2.37 -1.32,3.61 -0.2,0.6 -0.38,1.24 -0.53,1.86 -0.06,0.23 -0.19,0.93 -0.3,1.46l-0.29 1.7c-0.73,4.67 -0.87,9.33 -1.15,14.23l0.36 -0.14c4.92,-1.5 9.75,-2.97 14.19,-4.47 1.35,-0.49 1.58,-0.62 2.27,-0.89 0.57,-0.25 1.14,-0.51 1.74,-0.82 1.15,-0.54 2.28,-1.17 3.36,-1.84 2.15,-1.35 4.14,-3.01 5.68,-4.88 1.59,-1.88 2.62,-3.97 3.19,-5.94 1.08,-3.96 0.37,-7.02 -0.14,-8.9 -0.59,-1.94 -1.12,-2.88 -1.1,-2.89 -0.02,-0.01 -0.16,1.1 -0.65,2.93 -0.46,1.77 -1.33,4.34 -3.1,6.47 -1.79,2.15 -4.42,3.64 -8.03,4.83 -0.87,0.29 -1.84,0.59 -2.84,0.87l-1.53 0.39c-0.46,0.12 -1.32,0.35 -1.13,0.25 -0.13,-0.12 -0.05,-0.23 -0.05,-0.23 -0.01,0.01 -0.11,0.11 -0.25,0.02l-0.05 -0.05z"/>
   <path class="fil0" d="M506.62 317.17c1.19,1.03 1.8,1.77 1.8,1.75 -0.02,0 -0.06,-0.92 -0.58,-2.58 -0.56,-1.56 -1.69,-4.13 -4.76,-6.06 -1.53,-0.92 -3.46,-1.58 -5.52,-1.79 -2.05,-0.21 -4.21,-0.05 -6.33,0.39 -1.06,0.23 -2.12,0.52 -3.18,0.86 -0.51,0.17 -1.01,0.36 -1.55,0.55 -0.17,0.08 -0.72,0.33 -1.15,0.51l-1.34 0.63c-3.61,1.81 -6.9,4.02 -10.45,6.21l0.25 0.22c3.48,2.69 6.86,5.33 10.12,7.68 0.99,0.72 1.2,0.82 1.71,1.15 0.49,0.28 0.95,0.55 1.44,0.84 0.94,0.52 1.93,0.99 2.94,1.43 2.02,0.82 4.12,1.41 6.2,1.57 2.09,0.16 4.06,-0.12 5.71,-0.74 3.28,-1.21 5.07,-3.17 6.13,-4.47 1.06,-1.34 1.45,-2.19 1.45,-2.19 0,-0.01 -0.85,0.42 -2.34,1 -1.47,0.54 -3.7,1.22 -6.06,1.02 -2.36,-0.21 -4.71,-1.28 -7.31,-3.23 -0.64,-0.47 -1.31,-1.01 -1.98,-1.56l-1.05 -0.88c-0.32,-0.24 -0.9,-0.76 -0.74,-0.67 0.02,-0.15 0.14,-0.15 0.14,-0.15 -0.01,0.01 -0.14,-0.02 -0.14,-0.16l0.01 -0.06c0.04,-0.04 -0.07,-0.01 0.2,-0.16l1.16 -0.66c0.77,-0.41 1.5,-0.79 2.24,-1.13 2.9,-1.43 5.46,-2.1 7.67,-1.83 2.24,0.23 4.13,1.49 5.32,2.51z"/>
   <path class="fil0" d="M523.32 374.14c2.29,-3.5 4.54,-6.76 6.41,-10.33l0.68 -1.32c0.19,-0.4 0.46,-0.97 0.54,-1.14 0.21,-0.5 0.41,-1.03 0.59,-1.54 0.37,-1.04 0.72,-2.09 0.97,-3.15 0.51,-2.08 0.76,-4.24 0.65,-6.3 -0.11,-2.04 -0.61,-3.98 -1.45,-5.5 -1.67,-3.14 -4.09,-4.31 -5.55,-4.87 -1.56,-0.57 -2.42,-0.64 -2.42,-0.65 -0.01,0.01 0.64,0.64 1.56,1.86 0.92,1.2 2.05,3.08 2.17,5.31 0.15,2.21 -0.63,4.75 -2.09,7.61 -0.36,0.72 -0.79,1.45 -1.21,2.2l-0.69 1.14c-0.15,0.27 -0.12,0.16 -0.16,0.2l-0.07 0c-0.13,-0.01 -0.15,-0.13 -0.14,-0.14 0,0 -0.01,0.12 -0.15,0.13 0.08,0.16 -0.36,-0.43 -0.6,-0.72l-0.77 -1.06c-0.52,-0.71 -0.98,-1.37 -1.4,-2.03 -1.74,-2.62 -2.68,-4.98 -2.75,-7.35 -0.09,-2.35 0.66,-4.56 1.27,-6.02 0.6,-1.47 1.05,-2.31 1.03,-2.31 0.01,0.01 -0.79,0.41 -2.12,1.41 -1.3,1.03 -3.28,2.79 -4.58,6.03 -0.65,1.63 -1.01,3.59 -0.96,5.67 0.05,2.08 0.5,4.19 1.22,6.21 0.35,1.01 0.78,2.01 1.24,2.95 0.22,0.5 0.46,0.97 0.73,1.45 0.29,0.52 0.37,0.73 1.02,1.73 2.07,3.28 4.44,6.73 6.85,10.21l0.18 0.29z"/>
   <path class="fil0" d="M512.5 328.13c0,9.39 14.55,9.39 14.55,0 0,-9.41 -14.55,-9.41 -14.55,0z"/>
   <path class="fil0" d="M593.16 69.49c-0.96,8.83 -3.62,19.04 -9.19,28.86 -2.51,4.49 -5.67,8.88 -9.32,13.03 -2.87,3.29 -6.1,6.41 -9.61,9.37 -1.8,1.52 -3.68,2.99 -5.62,4.4 -5.32,3.8 -10.88,7.02 -16.49,9.57 -5.55,2.54 -11.29,4.39 -16.94,5.83 -11.26,2.84 -21.85,3.88 -30.75,3.57 -8.89,-0.32 -16.03,-2.08 -20.78,-3.92 -4.78,-1.83 -7.16,-3.51 -7.21,-3.45 0.06,-0.06 1.85,2.27 6.21,5.33 4.33,3.09 11.41,6.73 20.9,8.82 9.42,2.13 21.11,2.83 33.85,0.98 6.34,-0.93 13.07,-2.45 19.77,-5.07 6.68,-2.59 13.23,-6.1 19.39,-10.54 0.51,-0.34 0.96,-0.72 1.43,-1.1 3.77,-2.8 7.24,-5.86 10.39,-9.15 6.58,-6.9 11.75,-14.64 15.12,-22.55 5.33,-12.17 6.41,-24.24 5.7,-33.86 -0.72,-9.68 -3.01,-17.09 -4.75,-22.04 -1.79,-4.94 -3.14,-7.51 -3.1,-7.52 -0.04,0 0.48,2.86 1.01,7.99 0.5,5.12 0.99,12.6 -0.01,21.46z"/>
   <path class="fil0" d="M571.9 138.92c2.18,6.16 4.85,12.16 7.72,18.18 1.44,3.03 2.94,5.94 4.41,8.83 0.79,1.51 1.41,2.67 1.97,3.94 0.6,1.25 1.11,2.53 1.6,3.81 1.9,5.14 3,10.45 3.41,15.61 0.79,10.29 -1.25,19.82 -4.93,26.86 -3.62,7.09 -8.88,11.57 -12.92,13.93 -4.08,2.39 -6.8,3.06 -6.76,3.12 -0.01,-0.08 2.75,0.16 7.61,-1.14 4.78,-1.29 11.85,-4.71 17.77,-12.13 5.92,-7.31 10.33,-18.26 10.76,-30.84 0.22,-6.27 -0.5,-12.93 -2.53,-19.58 -0.5,-1.66 -1.08,-3.31 -1.77,-4.96 -0.65,-1.63 -1.47,-3.3 -2.1,-4.66l-4.2 -8.72c-2.8,-5.85 -5.53,-11.53 -7.83,-16.96 -0.85,-1.97 -1.58,-3.91 -2.29,-5.81 -3.15,3.29 -6.6,6.35 -10.35,9.15 0.15,0.47 0.28,0.92 0.44,1.36z"/>
   <path class="fil0" d="M573.65 107.96l-0.92 -3.44c-0.62,-2.29 -0.97,-4.59 -1.16,-6.86 -0.41,-4.55 0.01,-8.9 0.89,-12.78 1.77,-7.79 5.66,-13.5 8.98,-16.77 3.33,-3.34 5.86,-4.58 5.79,-4.62 0.05,0.07 -2.71,0.42 -7.08,2.91 -4.34,2.46 -10.26,7.61 -14.13,16.26 -1.92,4.26 -3.38,9.32 -3.79,14.95 -0.21,2.79 -0.19,5.74 0.16,8.77 0.38,2.91 0.75,5.53 1.23,8.51 0.13,0.79 0.29,1.61 0.46,2.44 3.5,-2.96 6.72,-6.08 9.59,-9.37z"/>
   <path class="fil0" d="M374.69 52.11l1.49 -1.56 1.25 -1.24c4.59,-4.3 9.41,-8.05 14.32,-11.17 9.79,-6.27 19.97,-9.85 28.65,-11 8.71,-1.2 15.72,-0.13 20.24,1.04 4.53,1.18 6.8,2.37 6.82,2.32 0.01,0.05 -2.57,-0.01 -7,0.57 -4.44,0.59 -10.68,1.93 -17.56,5.1 -6.86,3.1 -14.3,8.04 -21.57,14.73 -3.65,3.29 -7.26,7.04 -10.82,11.13 -0.31,0.33 -0.27,0.33 -0.25,0.34l0 0.06c0.01,0.05 0.02,0.08 0.03,0.12 0.02,0.06 0.06,0.09 0.09,0.12 0.08,0.04 0.17,0.02 0.22,0.01l0.02 -0.01c0,0 -0.06,0.04 -0.07,0.11 -0.01,0.03 0.01,0.08 0.04,0.13 -0.17,0.05 1.84,0.19 3.01,0.23 5.33,0.2 10.4,-0.14 15.1,-0.97 9.39,-1.65 17.24,-5.71 23.01,-10.74 5.84,-5.01 9.65,-10.6 12.1,-14.54 2.44,-3.99 3.63,-6.41 3.65,-6.39 -0.03,0 -0.01,2.65 -0.81,7.46 -0.88,4.75 -2.57,11.87 -7.6,19.71 -4.88,7.81 -13.94,15.98 -25.99,20.19 -5.97,2.13 -12.5,3.38 -19.23,3.75 -1.86,0.07 -2.85,0.15 -6.1,0.05 -3.01,-0.12 -6.04,-0.42 -9.01,-0.82 -2.94,-0.4 -5.85,-0.97 -8.52,-1.64l-7.81 -2.2 -5.34 -1.53c3.17,-4.68 5.9,-9.02 9.22,-13.52 1.69,-2.25 3.54,-4.48 5.44,-6.66 0.98,-1.09 1.95,-2.15 2.96,-3.17z"/>
   <path class="fil0" d="M420.35 54.81c-9.21,-1.78 -6.48,-16.06 2.72,-14.31 9.22,1.78 6.51,16.06 -2.72,14.31z"/>
   <path class="fil0" d="M342.66 30.69c9.36,-0.21 9.71,14.36 0.32,14.56 -9.39,0.2 -9.71,-14.36 -0.32,-14.56z"/>
   <path class="fil0" d="M320.49 91.13c-13.14,0.32 -13.61,-20.07 -0.47,-20.36 13.14,-0.29 13.58,20.07 0.47,20.36z"/>
   <path class="fil0" d="M278.38 65.62c-0.09,0.01 0.64,-11.73 2.12,-17.36 2.92,-9.01 6.85,-18.52 12.65,-25.76 2.33,-2.62 4.86,-4.95 7.56,-6.89 6.83,-4.95 14.57,-7.34 21.59,-7.83 7.03,-0.47 13.46,0.48 19.03,2.5 5.53,2.03 9.99,5.31 13.05,8.89 6.21,7.32 6.94,14.88 6.93,19.36 -0.11,4.64 -0.86,6.9 -0.8,6.9 -0.07,0.01 0.43,-2.42 -0.04,-7.04 -0.5,-4.45 -2.24,-11.67 -8.73,-17.52 -6.3,-5.88 -17.52,-8.89 -29.73,-6.45 -6,1.22 -12.03,4.04 -16.99,8.76 -0.87,0.83 -1.64,1.74 -2.46,2.67 0.09,0.02 -12.7,15.93 -10.68,37.47 0.02,0.36 -1.46,15.41 9.88,25.47 8.47,7.49 22.52,25.47 71.51,23.23 0.57,-0.98 1.19,-1.97 1.86,-2.93 0.58,-0.8 1.18,-1.59 1.84,-2.36 0.52,-0.6 1.02,-1.15 1.53,-1.67 -1.32,-0.01 -2.64,-0.05 -3.96,-0.13 -6.42,-0.51 -11.98,-2.49 -16.97,-5.15 -4.95,-2.69 -9.24,-6.22 -12.24,-10.41 -3.09,-4.09 -4.42,-9.38 -4.03,-12.72 0.29,-3.35 1.2,-4.69 1.14,-4.72 0.05,-0.03 -0.13,1.8 0.63,4.29 0.75,2.49 3.12,4.34 5.75,6.7 6.52,5.81 18.2,9.57 35.62,9.52l19.45 -1.9c0.89,-0.19 1.8,-0.35 2.65,-0.48 7.54,-1.06 19.65,-3.13 19.63,-3.17 0,0.03 -12,6.1 -18.22,10.7 -4.18,3.1 -9.41,7.24 -14.76,12.09 8.94,-2.02 17.56,-5.42 25.72,-9.81 5.09,-2.78 11.43,-4.63 16.68,-7.8 -16.7,14.34 -34.96,23.45 -52.98,28.24 -0.68,0.89 -1.38,1.84 -2.02,2.82 -1.5,2.19 -2.85,4.53 -3.99,6.85 -2.27,4.65 -3.74,9.21 -3.98,13.01 -0.31,3.83 0.83,7.1 2.02,9.09 1.19,2.04 2.14,3 2.11,3.03 0.01,-0.05 -1.14,0.01 -3.18,-0.98 -1.95,-0.92 -5.14,-3.6 -6.58,-9.49 -1.49,-5.77 -0.97,-13.18 1,-20.16 0.12,-0.44 0.28,-0.85 0.41,-1.25 -2.73,0.38 -5.42,0.68 -8.07,0.87 -67.13,4.92 -81.69,-48.17 -81.95,-58.49z"/>
   <path class="fil0" d="M213.56 35.71c-18.27,5.41 -39.71,8.18 -61.81,6.14 -2.58,-0.21 -5.13,-0.5 -7.68,-0.83 1.85,1.16 3.84,2.28 6.06,3.29 5.87,2.64 13.1,4.58 21.42,5.46 16.56,1.73 37.44,-0.41 59.98,-7.39 5.69,-1.76 11.05,-3.97 17.32,-6.45 6.18,-2.4 12.64,-4.77 19.57,-6.82 6.06,-1.77 12.37,-3.4 19.58,-4.15 -3.54,5.79 -6.43,11.86 -8.53,18.17 -2.56,0.44 -5.14,0.91 -7.67,1.45 -6.55,1.47 -12.91,3.24 -19.1,5.11 -6.08,1.87 -12.7,3.88 -18.85,5.15 -24.86,5.24 -46.91,5.08 -64.22,1.21 -8.65,-1.98 -16.05,-4.96 -21.85,-8.55 -3.74,-2.3 -6.69,-4.8 -9.13,-7.28 -17.02,-2.66 -32.71,-7.23 -46.99,-10.7 -8.98,-2.19 -17.5,-3.93 -25.52,-4.89 -8.05,-0.98 -15.59,-1.14 -22.49,-0.68 -13.79,0.89 -24.78,4.13 -32.21,6.64 -7.44,2.57 -11.43,4.43 -11.44,4.39 0.01,0.03 3.67,-2.4 10.81,-5.94 7.11,-3.47 17.9,-8.1 32.25,-10.44 7.15,-1.16 15.12,-1.66 23.65,-1.28 8.52,0.35 17.55,1.59 26.83,3.35 11.82,2.22 24.07,5.13 36.78,7.43 -0.06,-0.14 -0.12,-0.27 -0.18,-0.41 0.23,0.07 0.48,0.11 0.75,0.16 0.08,0.13 0.15,0.25 0.23,0.38 7.05,1.25 14.2,2.32 21.54,2.93 20.9,1.9 40.85,-0.02 58.63,-4.21 17.84,-4.13 33.77,-9.82 47.66,-13.2 13.89,-3.52 25.5,-4.69 33.47,-4.73 7.96,-0.05 12.31,0.62 12.31,0.57 0.1,0.19 -17.9,-0.3 -44.24,9.29 -13.23,4.56 -28.61,11.48 -46.94,16.81z"/>
   <path class="fil0" d="M204.87 65.45c2.89,1.44 6.76,2.4 11.38,2.55 4.65,0.14 10.05,-0.54 16.04,-1.88 12.04,-2.58 26.16,-8.15 43.88,-13.01 0.17,-0.04 0.33,-0.07 0.47,-0.1 -0.49,2.03 -0.85,4.1 -1.07,6.19 -0,0.04 -0.03,0.07 -0.03,0.1 -0.02,0.2 -0.01,0.36 -0.02,0.52 -0.19,1.99 -0.29,4.02 -0.24,6.12 0,0.05 0.03,0.1 0.03,0.15 -16.12,2.56 -30.54,5.87 -42.74,6.55 -6.46,0.44 -12.27,0.21 -17.21,-0.81 -4.94,-1 -8.93,-2.89 -11.66,-4.89 -2.74,-2.05 -4.32,-4.1 -5.28,-5.49 -0.96,-1.39 -1.31,-2.18 -1.33,-2.18 0.02,-0 0.54,0.72 1.74,1.92 1.19,1.2 3.14,2.86 6.03,4.25z"/>
   <path class="fil0" d="M325.57 60.15c2.56,2.89 4.47,6.1 5.96,9.42 -2.25,-4.01 -6.41,-6.93 -12.42,-6.8 -4.8,0.11 -8.32,2.12 -10.6,5.01 -1.38,-0.88 -3.03,-1.61 -4.87,-2.12 -2.46,-0.71 -5.2,-1.04 -8.03,-1.17 -1.41,-6.84 1.02,-15.72 1.02,-15.72 7.98,1.81 24.05,5.75 28.95,11.38z"/>
   <path class="fil0" d="M307.03 27.77c3.15,1.79 5.74,4.61 7.22,8.02 0.77,1.71 1.19,3.53 1.45,5.42 0.24,1.92 0.25,5.5 3.87,8.75l-22.65 -5.91c0.06,-0.48 5.21,-12.94 9.03,-16.87 0.36,0.17 0.72,0.39 1.08,0.59z"/>
   <path class="fil0" d="M248.51 114.71c0.07,0.01 -0.06,0.05 0.3,0.01l1.53 -0.19c1.01,-0.16 1.99,-0.31 2.92,-0.48 3.71,-0.7 6.59,-1.84 8.49,-3.66 1.92,-1.76 2.82,-4.27 3.22,-6.06 0.43,-1.79 0.5,-2.9 0.51,-2.9 -0.01,0.01 0.58,0.91 1.22,2.81 0.56,1.87 1.31,5.06 -0.29,9.05 -0.75,1.92 -2.13,3.89 -3.93,5.51 -1.77,1.63 -3.92,2.99 -6.23,4.05 -1.15,0.55 -2.34,1 -3.57,1.42 -0.6,0.2 -1.23,0.38 -1.85,0.55 -0.22,0.07 -0.91,0.22 -1.42,0.33l-1.73 0.35c-4.65,0.81 -9.28,1.04 -14.16,1.46l0.1 -0.39c1.39,-4.96 2.75,-9.82 4.16,-14.28 0.43,-1.35 0.55,-1.63 0.85,-2.28 0.23,-0.62 0.48,-1.19 0.73,-1.79 0.55,-1.17 1.13,-2.28 1.8,-3.38 1.31,-2.2 2.89,-4.23 4.75,-5.82 1.82,-1.6 3.91,-2.71 5.84,-3.31 3.96,-1.17 7,-0.53 8.92,-0.06 1.92,0.55 2.87,1.06 2.88,1.03 0.01,0.02 -1.09,0.19 -2.88,0.72 -1.79,0.5 -4.34,1.43 -6.42,3.24 -2.09,1.84 -3.52,4.51 -4.63,8.14 -0.3,0.91 -0.55,1.85 -0.8,2.86l-0.37 1.54c-0.1,0.46 -0.34,1.36 -0.22,1.13 0.12,0.15 0.23,0.05 0.23,0.05 -0.01,0 -0.12,0.13 -0.02,0.27l0.05 0.06z"/>
   <path class="fil0" d="M282.37 99.13c-1.03,-1.18 -1.77,-1.77 -1.76,-1.77 -0.01,0.02 0.93,0.04 2.55,0.52 1.57,0.51 4.17,1.57 6.17,4.65 0.98,1.49 1.66,3.42 1.93,5.46 0.26,2.06 0.15,4.23 -0.26,6.34 -0.2,1.07 -0.46,2.14 -0.78,3.2 -0.16,0.51 -0.33,1.05 -0.54,1.57 -0.05,0.17 -0.3,0.76 -0.46,1.16l-0.61 1.36c-1.72,3.64 -3.85,7.01 -5.96,10.62l-0.23 -0.24c-2.76,-3.42 -5.48,-6.78 -7.9,-9.95 -0.75,-0.98 -0.84,-1.19 -1.18,-1.72 -0.29,-0.45 -0.57,-0.91 -0.86,-1.4 -0.53,-0.95 -1.03,-1.9 -1.49,-2.9 -0.9,-2 -1.51,-4.12 -1.7,-6.18 -0.2,-2.08 0.04,-4.09 0.57,-5.73 1.13,-3.33 3.08,-5.14 4.36,-6.24 1.32,-1.09 2.16,-1.49 2.15,-1.5 0.02,0.01 -0.43,0.84 -0.94,2.37 -0.54,1.49 -1.14,3.72 -0.88,6.08 0.22,2.37 1.38,4.66 3.38,7.24 0.48,0.63 1.04,1.3 1.6,1.95l0.9 1.04c0.25,0.28 0.76,0.89 0.66,0.73 0.17,-0.02 0.17,-0.17 0.17,-0.17 0,0 0.02,0.16 0.16,0.16l0.06 -0.01c0.03,-0.05 0.01,0.06 0.15,-0.24l0.61 -1.17c0.42,-0.76 0.79,-1.52 1.11,-2.24 1.33,-2.95 1.97,-5.53 1.66,-7.74 -0.3,-2.23 -1.61,-4.07 -2.65,-5.23z"/>
   <path class="fil0" d="M225.13 83.66c3.42,-2.36 6.62,-4.66 10.14,-6.63l1.3 -0.72c0.4,-0.2 0.96,-0.47 1.13,-0.54 0.5,-0.22 1.02,-0.43 1.53,-0.66 1.03,-0.39 2.06,-0.73 3.12,-1.01 2.07,-0.58 4.22,-0.88 6.27,-0.81 2.06,0.05 3.99,0.52 5.53,1.32 3.17,1.61 4.38,4 4.99,5.45 0.6,1.55 0.68,2.41 0.69,2.4 -0.01,0.01 -0.63,-0.62 -1.88,-1.53 -1.19,-0.89 -3.12,-1.96 -5.36,-2.05 -2.21,-0.11 -4.73,0.74 -7.56,2.26 -0.72,0.4 -1.43,0.82 -2.17,1.26l-1.12 0.72c-0.27,0.16 -0.16,0.12 -0.2,0.16l0 0.06c0.01,0.13 0.13,0.15 0.14,0.14 0,0 -0.12,0.01 -0.13,0.15 -0.16,-0.07 0.44,0.38 0.76,0.6l1.08 0.75c0.69,0.51 1.38,0.95 2.03,1.38 2.66,1.66 5.04,2.55 7.4,2.56 2.35,0.03 4.53,-0.76 5.98,-1.39 1.46,-0.66 2.29,-1.12 2.29,-1.11 -0.01,-0.01 -0.36,0.8 -1.37,2.16 -1,1.31 -2.69,3.34 -5.92,4.71 -1.59,0.68 -3.57,1.1 -5.64,1.08 -2.05,0 -4.19,-0.4 -6.23,-1.08 -0.99,-0.32 -1.99,-0.71 -2.97,-1.17 -0.48,-0.21 -0.97,-0.44 -1.44,-0.67 -0.55,-0.29 -0.77,-0.39 -1.77,-0.99 -3.29,-2.03 -6.8,-4.32 -10.36,-6.66l-0.26 -0.18z"/>
   <path class="fil0" d="M271.29 93.45c-9.35,0.24 -9.69,-14.32 -0.31,-14.56 9.39,-0.2 9.7,14.36 0.31,14.56z"/>
   <path class="fil0" d="M527.82 6.94c-8.8,1.18 -18.97,4.04 -28.63,9.86 -4.44,2.61 -8.74,5.85 -12.81,9.61 -3.22,2.94 -6.26,6.24 -9.11,9.81 -1.5,1.84 -2.94,3.75 -4.3,5.74 -3.68,5.4 -6.75,11.04 -9.17,16.71 -2.42,5.63 -4.14,11.39 -5.45,17.08 -2.59,11.33 -3.4,21.99 -2.87,30.86 0.49,8.89 2.44,15.99 4.37,20.7 1.94,4.74 3.67,7.12 3.6,7.15 0.06,-0.05 -2.3,-1.81 -5.45,-6.1 -3.18,-4.26 -6.97,-11.25 -9.29,-20.69 -2.34,-9.42 -3.26,-21.08 -1.73,-33.89 0.79,-6.36 2.16,-13.11 4.64,-19.89 2.44,-6.72 5.78,-13.38 10.07,-19.64 0.33,-0.49 0.72,-0.98 1.07,-1.46 2.71,-3.81 5.69,-7.36 8.91,-10.59 6.75,-6.73 14.37,-12.1 22.18,-15.66 12.05,-5.57 24.1,-6.94 33.71,-6.45 9.68,0.49 17.14,2.61 22.12,4.27 4.98,1.68 7.58,2.95 7.59,2.92 0,0.03 -2.86,-0.41 -8.03,-0.85 -5.13,-0.36 -12.59,-0.69 -21.4,0.51z"/>
   <path class="fil0" d="M458.95 29.77c-6.19,-2.02 -12.26,-4.56 -18.34,-7.32 -3.05,-1.38 -5.99,-2.78 -8.92,-4.19 -1.52,-0.76 -2.69,-1.34 -3.96,-1.91 -1.26,-0.54 -2.55,-1.04 -3.84,-1.49 -5.18,-1.79 -10.53,-2.76 -15.67,-3.04 -10.3,-0.59 -19.77,1.68 -26.72,5.51 -7,3.8 -11.36,9.15 -13.63,13.25 -2.3,4.13 -2.9,6.87 -2.96,6.84 0.07,0.01 -0.2,-2.75 1,-7.64 1.17,-4.81 4.41,-11.96 11.7,-18.05 7.17,-6.08 17.99,-10.75 30.53,-11.47 6.25,-0.37 12.94,0.21 19.61,2.09 1.69,0.46 3.35,1.01 4.99,1.63 1.67,0.64 3.36,1.39 4.73,2.03l8.79 3.98c5.92,2.68 11.64,5.28 17.12,7.46 1.98,0.81 3.93,1.49 5.86,2.16 -3.22,3.23 -6.2,6.78 -8.92,10.6 -0.47,-0.15 -0.92,-0.29 -1.36,-0.44z"/>
   <path class="fil0" d="M489.82 27.32l3.45 0.87c2.32,0.55 4.61,0.87 6.89,1.01 4.55,0.27 8.9,-0.21 12.74,-1.19 7.75,-1.95 13.36,-5.96 16.56,-9.35 3.26,-3.43 4.44,-5.97 4.48,-5.92 -0.07,-0.03 -0.35,2.74 -2.74,7.19 -2.37,4.38 -7.37,10.43 -15.91,14.49 -4.25,2.04 -9.26,3.58 -14.85,4.13 -2.82,0.28 -5.75,0.33 -8.79,0.04 -2.92,-0.33 -5.54,-0.62 -8.52,-1.03 -0.79,-0.11 -1.62,-0.29 -2.45,-0.42 2.88,-3.58 5.92,-6.85 9.14,-9.82z"/>
  </g>
 </g>
</svg>
