<?xml version="1.0" encoding="UTF-8"?>
<!DOCTYPE svg PUBLIC "-//W3C//DTD SVG 1.1//EN" "http://www.w3.org/Graphics/SVG/1.1/DTD/svg11.dtd">
<!-- Creator: CorelDRAW 2020 (64-Bit) -->
<svg xmlns="http://www.w3.org/2000/svg" xml:space="preserve" width="42.0162mm" height="42.4023mm" version="1.1" style="shape-rendering:geometricPrecision; text-rendering:geometricPrecision; image-rendering:optimizeQuality; fill-rule:evenodd; clip-rule:evenodd"
viewBox="0 0 591.54 596.98"
 xmlns:xlink="http://www.w3.org/1999/xlink"
 xmlns:xodm="http://www.corel.com/coreldraw/odm/2003">
 <defs>
  <style type="text/css">
   <![CDATA[
    .fil0 {fill:#EECE7A;fill-rule:nonzero}
   ]]>
  </style>
 </defs>
 <g id="Layer_x0020_1">
  <metadata id="CorelCorpID_0Corel-Layer"/>
  <g id="_2087985220112">
   <path class="fil0" d="M488.18 526.5c6.38,11.49 16.39,23.81 29.84,34.88 6.75,5.5 14.35,10.7 22.95,15.13 4.32,2.22 8.9,4.22 13.8,5.86l2.16 0.67 3.36 0.93c2.24,0.55 4.5,1.01 6.72,1.33 4.4,0.59 8.57,0.9 13.14,1.35l0.01 -0.1c0.39,-4.51 0.86,-8.59 1.12,-12.94 0.07,-2.21 0.01,-4.48 -0.2,-6.77 -0.14,-1.16 -0.23,-2.29 -0.39,-3.45l-0.27 -1.74 -0.19 -1.08c-1.04,-5.28 -2.71,-10.18 -4.63,-14.78 -3.91,-9.18 -9.04,-17.06 -14.5,-23.97 -11.01,-13.76 -23.52,-23.5 -34.78,-30.02 -11.29,-6.53 -21.42,-9.71 -28.37,-11.18 -7.02,-1.44 -10.95,-1.41 -10.94,-1.47 -0.19,0.13 15.48,4.51 33.82,20.47 9.09,7.86 18.86,18.49 27.17,31.6 4.12,6.53 7.89,13.7 10.6,21.25 1.33,3.78 2.42,7.67 3.04,11.52l0.09 0.63 -0.01 -0.03c-0.01,-0.01 -0.01,0.01 -0.02,0.01l-0.04 0c-0.01,0 -0.02,-0.01 -0.02,-0.01 0,0 0.01,0.01 0.01,0.03l-0.01 0.03 -0.01 0.02 -1.14 -0.32c-3.94,-1.19 -7.83,-2.67 -11.62,-4.33 -7.6,-3.36 -14.73,-7.39 -21.3,-11.65 -13.11,-8.56 -23.84,-18.12 -31.53,-27.29 -7.72,-9.11 -12.18,-17.94 -14.1,-24.51 -1.98,-6.55 -1.88,-10.6 -1.97,-10.58 0.11,0 -1.24,3.8 -0.98,11.08 0.21,7.24 2.69,17.89 9.19,29.4z"/>
   <path class="fil0" d="M471.56 479.88c9.29,0 9.29,-14.41 0,-14.41 -9.29,0 -9.29,14.41 0,14.41z"/>
   <path class="fil0" d="M522.43 512.55c-13,0 -13,20.18 0,20.18 13,0 13,-20.18 0,-20.18z"/>
   <path class="fil0" d="M415.01 430.38c0.1,0.59 0.23,1.42 0.31,1.65 0.16,0.7 0.34,1.43 0.53,2.14 0.38,1.41 0.86,2.79 1.39,4.12 1.07,2.67 2.48,5.17 4.25,7.29 1.74,2.12 3.88,3.78 6.04,4.77 4.39,2.01 8.06,1.34 10.2,0.81 2.2,-0.62 3.25,-1.24 3.26,-1.22 0.01,-0.02 -1.25,-0.18 -3.27,-0.74 -2,-0.55 -4.77,-1.7 -6.66,-4 -1.94,-2.25 -3.06,-5.59 -3.69,-9.82 -0.14,-1.07 -0.26,-2.17 -0.35,-3.33l-0.13 -1.78c-0.04,-0.4 0.01,-0.26 0.02,-0.34l0.06 -0.05c0.16,-0.1 0.27,0.02 0.28,0.04 -0.01,0 -0.09,-0.13 0.06,-0.25 -0.22,-0.13 0.78,0.17 1.3,0.31l1.72 0.52c1.13,0.34 2.2,0.68 3.22,1.03 4.04,1.48 6.96,3.24 8.92,5.72 1.97,2.46 2.85,5.42 3.35,7.44 0.46,2.09 0.6,3.34 0.61,3.33 -0.02,-0.01 0.63,-1.07 1.33,-3.23 0.67,-2.11 1.55,-5.54 0.44,-10.09 -0.57,-2.23 -1.71,-4.66 -3.42,-6.84 -1.72,-2.16 -3.9,-4.09 -6.31,-5.68 -1.21,-0.81 -2.46,-1.55 -3.75,-2.2 -0.66,-0.34 -1.3,-0.67 -1.97,-0.97 -0.76,-0.33 -1.03,-0.5 -2.53,-1.07 -4.97,-1.83 -10.42,-3.67 -15.94,-5.51l-0.43 -0.13c0.19,5.55 0.21,10.81 0.87,16.14l0.28 1.94z"/>
   <path class="fil0" d="M418.37 475.8c0.44,0.21 1.09,0.51 1.28,0.58 0.59,0.27 1.17,0.49 1.78,0.7 1.17,0.41 2.36,0.79 3.53,1.06 2.39,0.55 4.83,0.84 7.17,0.62 2.33,-0.17 4.56,-0.82 6.32,-1.85 3.57,-2.09 4.91,-4.97 5.57,-6.75 0.67,-1.82 0.74,-2.87 0.75,-2.86 0,-0.02 -0.73,0.8 -2.12,1.93 -1.36,1.09 -3.54,2.49 -6.08,2.68 -2.52,0.24 -5.39,-0.63 -8.64,-2.29 -0.83,-0.42 -1.63,-0.89 -2.49,-1.38l-1.29 -0.79c-0.31,-0.18 -0.18,-0.14 -0.22,-0.18l0 -0.07c0,-0.16 0.15,-0.18 0.15,-0.18 0,0.01 -0.13,0 -0.14,-0.17 -0.2,0.1 0.5,-0.46 0.83,-0.74l1.21 -0.96c0.8,-0.61 1.58,-1.19 2.31,-1.7 3.02,-2.12 5.71,-3.3 8.39,-3.42 2.67,-0.16 5.16,0.66 6.84,1.32 1.67,0.7 2.62,1.21 2.62,1.2 -0.02,0 -0.42,-0.97 -1.58,-2.52 -1.17,-1.51 -3.13,-3.8 -6.83,-5.27 -1.82,-0.73 -4.07,-1.1 -6.43,-0.99 -2.37,0.11 -4.79,0.69 -7.09,1.59 -1.15,0.46 -2.29,0.98 -3.39,1.53 -0.54,0.3 -1.1,0.6 -1.62,0.89 -0.62,0.35 -0.87,0.49 -2,1.25 -3.74,2.56 -7.68,5.47 -11.72,8.41l-0.28 0.22c3.95,2.62 7.63,5.23 11.68,7.35l1.5 0.78z"/>
   <path class="fil0" d="M455.8 444.13c1.48,1.21 2.4,1.65 2.39,1.66 0.02,0 -0.46,-0.96 -1.12,-2.64 -0.65,-1.67 -1.4,-4.18 -1.24,-6.86 0.15,-2.66 1.28,-5.3 3.32,-8.22 0.5,-0.74 1.07,-1.5 1.64,-2.25l0.92 -1.18c0.27,-0.35 0.8,-1.02 0.69,-0.83 0.18,0.02 0.18,0.16 0.18,0.16 0,-0 0.03,-0.16 0.18,-0.16l0.06 0.01c0.04,0.05 0.01,-0.07 0.17,0.23l0.72 1.31c0.49,0.88 0.92,1.72 1.33,2.53 1.58,3.31 2.38,6.22 2.11,8.72 -0.2,2.52 -1.52,4.62 -2.59,5.96 -1.09,1.35 -1.85,2.02 -1.83,2.03 -0.01,-0.02 0.97,-0.06 2.74,-0.63 1.68,-0.62 4.46,-1.88 6.45,-5.36 0.99,-1.7 1.66,-3.89 1.83,-6.21 0.19,-2.32 -0.04,-4.76 -0.58,-7.16 -0.26,-1.21 -0.58,-2.4 -0.98,-3.58 -0.22,-0.58 -0.43,-1.19 -0.65,-1.76 -0.07,-0.2 -0.35,-0.84 -0.58,-1.3l-0.71 -1.54c-2.04,-4.08 -4.49,-7.83 -6.97,-11.86l-0.21 0.28c-2.83,3.9 -5.64,7.73 -8.1,11.37 -0.74,1.11 -0.84,1.35 -1.2,1.96 -0.3,0.51 -0.57,1.06 -0.84,1.59 -0.57,1.08 -1.06,2.19 -1.51,3.32 -0.85,2.27 -1.44,4.67 -1.56,7.01 -0.13,2.35 0.23,4.61 0.91,6.44 1.38,3.74 3.57,5.77 5,6.98z"/>
   <path class="fil0" d="M370.33 546.38l1.53 1.49 1.26 1.19c4.63,4.18 9.48,7.78 14.41,10.74 9.83,5.99 19.98,9.31 28.59,10.26 8.65,1 15.55,-0.2 20.01,-1.46 4.46,-1.26 6.68,-2.52 6.69,-2.45 0,-0.06 -2.54,0.07 -6.94,-0.43 -4.4,-0.46 -10.61,-1.66 -17.48,-4.64 -6.88,-2.91 -14.35,-7.64 -21.69,-14.07 -3.68,-3.21 -7.35,-6.84 -10.95,-10.78 -0.3,-0.32 -0.27,-0.32 -0.26,-0.33l0 -0.07c0,-0.05 0.01,-0.1 0.03,-0.13 0.02,-0.06 0.06,-0.1 0.09,-0.13 0.08,-0.05 0.17,-0.03 0.21,-0.02l0.02 0.01c0,0 -0.06,-0.03 -0.06,-0.1 -0,-0.04 0,-0.08 0.03,-0.13 -0.18,-0.04 1.85,-0.19 3.01,-0.25 5.24,-0.31 10.26,-0.12 14.93,0.59 9.36,1.44 17.18,5.28 23.02,10.14 5.88,4.82 9.78,10.25 12.3,14.09 2.5,3.92 3.72,6.28 3.75,6.26 -0.03,0 -0.08,-2.64 -0.99,-7.38 -0.95,-4.66 -2.79,-11.67 -7.91,-19.34 -5,-7.62 -14.17,-15.49 -26.19,-19.39 -5.95,-1.98 -12.43,-3.07 -19.11,-3.26 -1.82,-0.03 -2.82,-0.08 -6.01,0.08 -3,0.18 -5.98,0.52 -8.92,1 -2.9,0.47 -5.76,1.09 -8.4,1.81l-7.68 2.36 -5.22 1.65c3.2,4.54 6.03,8.76 9.39,13.15 1.75,2.19 3.6,4.36 5.55,6.47 0.99,1.05 1.99,2.06 2.97,3.07z"/>
   <path class="fil0" d="M415.47 542.68c-9.09,1.97 -6.07,16.04 3,14.1 9.09,-1.95 6.06,-16.03 -3,-14.1z"/>
   <path class="fil0" d="M339.13 568.27c9.27,0 9.27,-14.41 0,-14.41 -9.29,0 -9.29,14.41 0,14.41z"/>
   <path class="fil0" d="M315.83 508.94c-12.98,0 -12.98,20.19 0,20.19 13.01,0 13.01,-20.19 0,-20.19z"/>
   <path class="fil0" d="M274.77 535.16c-0.11,-0.02 0.86,11.58 2.48,17.1 3.08,8.85 7.19,18.18 13.08,25.22 2.36,2.53 4.91,4.79 7.66,6.64 6.84,4.76 14.58,6.95 21.51,7.25 6.96,0.34 13.3,-0.74 18.76,-2.88 5.43,-2.13 9.77,-5.47 12.72,-9.05 5.98,-7.4 6.55,-14.9 6.44,-19.33 -0.21,-4.58 -1.01,-6.8 -0.94,-6.81 -0.07,-0.01 0.44,2.38 0.12,6.97 -0.4,4.42 -1.96,11.59 -8.26,17.53 -6.11,5.96 -17.14,9.2 -29.27,7.05 -5.97,-1.08 -11.99,-3.73 -17,-8.3 -0.88,-0.8 -1.67,-1.69 -2.49,-2.59 0.09,-0.03 -12.94,-15.5 -11.38,-36.82 0.02,-0.38 -1.81,-15.24 9.19,-25.42 8.22,-7.62 21.71,-25.73 70.22,-24.6 0.61,0.97 1.23,1.93 1.93,2.87 0.57,0.76 1.21,1.55 1.85,2.3 0.55,0.58 1.03,1.09 1.57,1.63 -1.33,0.04 -2.64,0.1 -3.94,0.22 -6.32,0.64 -11.78,2.72 -16.66,5.47 -4.84,2.76 -9.01,6.35 -11.88,10.55 -2.97,4.15 -4.17,9.38 -3.72,12.69 0.36,3.31 1.29,4.63 1.23,4.65 0.05,0.04 -0.14,-1.81 0.53,-4.29 0.69,-2.48 2.99,-4.33 5.56,-6.73 6.33,-5.91 17.77,-9.88 35.03,-10.23l19.28 1.43c0.9,0.18 1.79,0.35 2.64,0.45 7.49,0.86 19.52,2.64 19.49,2.68 0,-0.03 -12,-5.77 -18.25,-10.19 -4.24,-2.98 -9.47,-6.94 -14.88,-11.63 8.9,1.78 17.5,4.96 25.66,9.12 5.11,2.64 11.41,4.34 16.65,7.33 -16.83,-13.79 -35.09,-22.41 -53.01,-26.75 -0.72,-0.84 -1.4,-1.77 -2.08,-2.73 -1.51,-2.16 -2.88,-4.45 -4.07,-6.69 -2.37,-4.56 -3.93,-9.02 -4.25,-12.8 -0.39,-3.77 0.66,-7.03 1.8,-9.03 1.11,-2.05 2.03,-3.02 2.01,-3.04 0.01,0.05 -1.14,0.02 -3.11,1.04 -1.91,0.95 -5.02,3.68 -6.34,9.53 -1.33,5.74 -0.64,13.06 1.49,19.93 0.12,0.43 0.27,0.83 0.4,1.23 -2.68,-0.32 -5.34,-0.55 -8.02,-0.69 -66.51,-3.39 -79.71,49.48 -79.76,59.71z"/>
   <path class="fil0" d="M211.28 566.19c-18.2,-4.95 -39.46,-7.21 -61.29,-4.71 -2.58,0.27 -5.09,0.6 -7.58,1 1.8,-1.2 3.72,-2.36 5.93,-3.4 5.75,-2.77 12.86,-4.82 21.07,-5.88 16.35,-2.1 37.06,-0.44 59.51,5.98 5.64,1.59 11.02,3.66 17.26,5.98 6.16,2.24 12.61,4.42 19.51,6.33 6.04,1.59 12.31,3.08 19.46,3.64 -3.63,-5.65 -6.61,-11.6 -8.83,-17.8 -2.55,-0.34 -5.11,-0.76 -7.62,-1.26 -6.51,-1.29 -12.84,-2.89 -19.01,-4.61 -6.06,-1.71 -12.69,-3.54 -18.8,-4.65 -24.67,-4.66 -46.49,-4.02 -63.54,0.23 -8.51,2.14 -15.77,5.25 -21.44,8.94 -3.64,2.36 -6.52,4.91 -8.87,7.4 -16.78,3.04 -32.21,7.89 -46.25,11.64 -8.85,2.37 -17.23,4.27 -25.15,5.39 -7.94,1.14 -15.4,1.5 -22.21,1.18 -13.69,-0.57 -24.63,-3.54 -32.04,-5.86 -7.42,-2.38 -11.41,-4.12 -11.41,-4.08 0.02,-0.03 3.69,2.29 10.83,5.64 7.13,3.25 17.88,7.6 32.13,9.6 7.1,0.97 15.03,1.31 23.46,0.73 8.42,-0.53 17.31,-1.96 26.44,-3.9 11.64,-2.45 23.7,-5.62 36.23,-8.17 -0.05,0.14 -0.11,0.29 -0.17,0.44 0.23,-0.07 0.5,-0.12 0.73,-0.21 0.07,-0.13 0.14,-0.24 0.23,-0.37 6.95,-1.4 14,-2.61 21.25,-3.39 20.65,-2.34 40.43,-0.87 58.11,2.89 17.74,3.7 33.63,8.95 47.46,11.99 13.79,3.16 25.32,4.06 33.2,3.92 7.91,-0.13 12.17,-0.88 12.17,-0.83 0.09,-0.19 -17.7,0.71 -43.97,-8.23 -13.18,-4.2 -28.55,-10.69 -46.81,-15.55z"/>
   <path class="fil0" d="M202.02 536.94c2.83,-1.46 6.64,-2.53 11.24,-2.75 4.59,-0.24 9.93,0.29 15.89,1.49 11.99,2.29 26.06,7.49 43.72,11.89 0.14,0.03 0.3,0.06 0.44,0.1 -0.5,-1.98 -0.89,-4.02 -1.19,-6.1 -0.01,-0.04 -0.03,-0.06 -0.04,-0.1 -0.02,-0.16 -0.01,-0.33 -0.03,-0.48 -0.23,-1.99 -0.37,-4.01 -0.37,-6.05 0,-0.06 0.02,-0.1 0.03,-0.15 -16.01,-2.18 -30.35,-5.15 -42.43,-5.56 -6.36,-0.26 -12.14,0.07 -17.01,1.21 -4.87,1.09 -8.75,3.04 -11.4,5.09 -2.69,2.08 -4.22,4.15 -5.14,5.54 -0.88,1.41 -1.25,2.19 -1.26,2.18 0.01,0.01 0.54,-0.72 1.7,-1.94 1.16,-1.21 3.01,-2.9 5.85,-4.36z"/>
   <path class="fil0" d="M321.56 539.53c2.48,-2.93 4.32,-6.14 5.69,-9.46 -2.15,4.02 -6.17,7.01 -12.12,7.01 -4.77,0 -8.3,-1.92 -10.62,-4.73 -1.36,0.91 -2.93,1.65 -4.78,2.21 -2.42,0.76 -5.11,1.13 -7.9,1.35 -1.25,6.77 1.36,15.51 1.36,15.51 7.82,-1.97 23.65,-6.22 28.37,-11.89z"/>
   <path class="fil0" d="M303.94 571.96c3.08,-1.84 5.59,-4.71 6.96,-8.1 0.73,-1.71 1.11,-3.53 1.29,-5.4 0.23,-1.9 0.16,-5.45 3.65,-8.73l-22.25 6.34c0.07,0.51 5.44,12.69 9.29,16.5 0.36,-0.19 0.7,-0.39 1.06,-0.62z"/>
   <path class="fil0" d="M244.1 487.24c0.06,-0 -0.06,-0.05 0.31,-0.01l1.54 0.18c1.01,0.11 1.95,0.24 2.87,0.39 3.69,0.61 6.58,1.68 8.48,3.43 1.96,1.7 2.88,4.17 3.34,5.93 0.44,1.76 0.54,2.86 0.55,2.85 -0.02,-0.01 0.58,-0.92 1.14,-2.81 0.54,-1.86 1.19,-5.06 -0.44,-8.95 -0.82,-1.89 -2.22,-3.8 -4.01,-5.36 -1.82,-1.61 -3.97,-2.89 -6.28,-3.88 -1.15,-0.51 -2.32,-0.94 -3.57,-1.3 -0.6,-0.21 -1.23,-0.38 -1.84,-0.53 -0.2,-0.06 -0.92,-0.19 -1.42,-0.29l-1.71 -0.28c-4.59,-0.73 -9.19,-0.86 -14.03,-1.14l0.1 0.36c1.48,4.88 2.93,9.67 4.44,14.07 0.46,1.33 0.59,1.56 0.87,2.22 0.25,0.6 0.53,1.16 0.8,1.75 0.54,1.14 1.17,2.26 1.82,3.34 1.34,2.12 2.97,4.09 4.82,5.63 1.87,1.56 3.96,2.6 5.87,3.15 3.94,1.07 6.95,0.37 8.83,-0.14 1.89,-0.58 2.82,-1.11 2.83,-1.08 0.01,-0.02 -1.08,-0.16 -2.89,-0.65 -1.76,-0.46 -4.3,-1.32 -6.4,-3.07 -2.12,-1.77 -3.6,-4.39 -4.77,-7.96 -0.29,-0.87 -0.57,-1.81 -0.83,-2.82l-0.42 -1.51c-0.12,-0.46 -0.35,-1.32 -0.25,-1.12 0.12,-0.13 0.23,-0.05 0.23,-0.05 -0,-0.01 -0.11,-0.1 -0.02,-0.27l0.05 -0.06z"/>
   <path class="fil0" d="M277.97 501.92c-1.03,1.17 -1.72,1.78 -1.71,1.79 -0.01,-0.02 0.89,-0.06 2.52,-0.59 1.54,-0.54 4.08,-1.66 5.99,-4.71 0.94,-1.52 1.56,-3.43 1.77,-5.48 0.21,-2.04 0.05,-4.16 -0.38,-6.27 -0.21,-1.05 -0.5,-2.1 -0.85,-3.14 -0.17,-0.51 -0.35,-1.01 -0.54,-1.54 -0.06,-0.17 -0.33,-0.75 -0.51,-1.14l-0.62 -1.32c-1.78,-3.58 -3.94,-6.86 -6.13,-10.38l-0.2 0.28c-2.69,3.44 -5.3,6.8 -7.62,10.02 -0.69,0.98 -0.78,1.19 -1.14,1.7 -0.27,0.48 -0.54,0.93 -0.79,1.43 -0.54,0.92 -1.01,1.91 -1.41,2.91 -0.84,2 -1.43,4.08 -1.58,6.15 -0.16,2.06 0.13,4.02 0.72,5.66 1.19,3.24 3.13,5.03 4.44,6.08 1.33,1.05 2.15,1.42 2.13,1.44 0.02,-0.01 -0.41,-0.84 -0.96,-2.32 -0.56,-1.46 -1.23,-3.66 -1.01,-6.01 0.18,-2.34 1.27,-4.66 3.16,-7.24 0.49,-0.63 1,-1.31 1.57,-2l0.84 -1.01c0.28,-0.31 0.75,-0.9 0.67,-0.73 0.15,0.01 0.15,0.13 0.15,0.13 0,-0.01 0.02,-0.13 0.16,-0.14l0.06 0.01c0.04,0.04 0.01,-0.07 0.15,0.2l0.66 1.14c0.4,0.76 0.78,1.48 1.14,2.22 1.39,2.87 2.04,5.4 1.78,7.6 -0.22,2.21 -1.48,4.09 -2.48,5.26z"/>
   <path class="fil0" d="M221.67 518.47c3.46,2.26 6.66,4.5 10.18,6.35l1.31 0.68c0.4,0.18 0.96,0.45 1.13,0.52 0.52,0.24 1.02,0.43 1.52,0.61 1.03,0.37 2.06,0.68 3.11,0.97 2.08,0.5 4.19,0.75 6.23,0.65 2.04,-0.11 3.94,-0.61 5.46,-1.44 3.07,-1.66 4.23,-4.05 4.81,-5.51 0.54,-1.54 0.6,-2.38 0.62,-2.38 -0,-0.01 -0.6,0.63 -1.8,1.55 -1.19,0.92 -3.07,2 -5.29,2.14 -2.19,0.16 -4.69,-0.62 -7.52,-2.07 -0.72,-0.36 -1.42,-0.78 -2.18,-1.21l-1.13 -0.68c-0.26,-0.16 -0.16,-0.12 -0.2,-0.16l0 -0.06c0.01,-0.13 0.13,-0.14 0.14,-0.14 0,0 -0.12,-0.01 -0.13,-0.15 -0.17,0.07 0.42,-0.36 0.74,-0.61l1.05 -0.76c0.67,-0.52 1.34,-0.97 1.98,-1.38 2.59,-1.73 4.92,-2.67 7.26,-2.72 2.33,-0.09 4.51,0.66 5.94,1.23 1.46,0.62 2.29,1.06 2.29,1.05 -0.01,0.01 -0.37,-0.78 -1.4,-2.12 -1.02,-1.28 -2.73,-3.23 -5.97,-4.51 -1.58,-0.64 -3.55,-1.01 -5.61,-0.95 -2.03,0.05 -4.14,0.5 -6.14,1.21 -1,0.35 -1.96,0.77 -2.92,1.22 -0.49,0.22 -0.95,0.46 -1.4,0.73 -0.54,0.28 -0.75,0.36 -1.74,0.98 -3.21,2.08 -6.63,4.42 -10.1,6.81l-0.25 0.17z"/>
   <path class="fil0" d="M267.13 507.75c-9.26,0 -9.26,14.42 0,14.42 9.3,0 9.3,-14.42 0,-14.42z"/>
   <path class="fil0" d="M522.85 587.66c-8.73,-0.95 -18.83,-3.58 -28.54,-9.11 -4.44,-2.49 -8.77,-5.61 -12.88,-9.22 -3.26,-2.85 -6.33,-6.04 -9.25,-9.52 -1.51,-1.78 -2.97,-3.64 -4.36,-5.58 -3.76,-5.27 -6.95,-10.77 -9.47,-16.34 -2.51,-5.49 -4.34,-11.18 -5.76,-16.78 -2.81,-11.16 -3.84,-21.66 -3.53,-30.46 0.32,-8.8 2.07,-15.88 3.9,-20.58 1.79,-4.73 3.46,-7.12 3.39,-7.15 0.06,0.04 -2.22,1.84 -5.27,6.15 -3.03,4.29 -6.62,11.31 -8.72,20.7 -2.1,9.34 -2.77,20.93 -0.98,33.54 0.93,6.28 2.43,12.95 5.02,19.59 2.56,6.62 6.04,13.11 10.41,19.21 0.34,0.5 0.72,0.94 1.09,1.41 2.76,3.72 5.79,7.17 9.05,10.29 6.82,6.51 14.47,11.63 22.31,14.99 12.05,5.27 23.97,6.34 33.46,5.64 9.57,-0.72 16.9,-2.98 21.79,-4.7 4.89,-1.79 7.43,-3.11 7.44,-3.08 -0,-0.03 -2.83,0.49 -7.91,1.01 -5.06,0.5 -12.45,0.99 -21.21,-0.01z"/>
   <path class="fil0" d="M454.21 566.6c-6.08,2.16 -12.04,4.79 -17.99,7.64 -2.99,1.43 -5.87,2.91 -8.7,4.37 -1.51,0.77 -2.67,1.39 -3.91,1.95 -1.24,0.6 -2.5,1.1 -3.77,1.59 -5.08,1.89 -10.32,2.97 -15.4,3.37 -10.2,0.8 -19.62,-1.22 -26.56,-4.87 -7.03,-3.59 -11.47,-8.79 -13.8,-12.8 -2.36,-4.04 -3.02,-6.74 -3.08,-6.7 0.08,-0.01 -0.14,2.72 1.15,7.53 1.26,4.74 4.63,11.75 12,17.61 7.2,5.86 18.01,10.24 30.45,10.66 6.2,0.22 12.78,-0.49 19.36,-2.5 1.63,-0.49 3.26,-1.08 4.9,-1.76 1.62,-0.64 3.27,-1.45 4.63,-2.08l8.61 -4.16c5.77,-2.77 11.38,-5.48 16.75,-7.75 1.94,-0.84 3.87,-1.56 5.75,-2.27 -3.23,-3.12 -6.28,-6.54 -9.04,-10.26 -0.46,0.15 -0.91,0.28 -1.34,0.43z"/>
   <path class="fil0" d="M484.81 568.33l3.4 -0.91c2.29,-0.61 4.54,-0.96 6.79,-1.15 4.5,-0.41 8.81,0.01 12.64,0.88 7.71,1.75 13.35,5.61 16.58,8.89 3.29,3.29 4.52,5.8 4.57,5.73 -0.07,0.04 -0.41,-2.68 -2.87,-7.02 -2.44,-4.29 -7.52,-10.17 -16.06,-14 -4.24,-1.91 -9.23,-3.34 -14.81,-3.75 -2.76,-0.21 -5.67,-0.19 -8.67,0.16 -2.89,0.37 -5.47,0.74 -8.42,1.22 -0.77,0.13 -1.59,0.29 -2.41,0.43 2.93,3.48 6.01,6.67 9.26,9.51z"/>
   <path class="fil0" d="M540.05 371.23l1.52 1.48 1.22 1.24c4.25,4.54 7.95,9.31 11.04,14.18 6.2,9.69 9.74,19.78 10.88,28.38 1.19,8.63 0.13,15.57 -1.03,20.05 -1.17,4.5 -2.34,6.75 -2.3,6.76 -0.04,0.01 0.01,-2.55 -0.55,-6.96 -0.59,-4.37 -1.92,-10.55 -5.04,-17.37 -3.07,-6.82 -7.95,-14.19 -14.56,-21.4 -3.26,-3.61 -6.96,-7.18 -11,-10.69 -0.32,-0.32 -0.32,-0.3 -0.34,-0.28l-0.06 0.01c-0.05,0 -0.08,0.01 -0.11,0.02 -0.06,0.02 -0.1,0.06 -0.12,0.1 -0.05,0.1 -0.03,0.2 -0.02,0.24l0.01 0.02c0,0 -0.03,-0.05 -0.1,-0.06 -0.04,-0.01 -0.08,0.01 -0.13,0.03 -0.05,-0.2 -0.17,1.83 -0.22,2.99 -0.2,5.26 0.13,10.31 0.95,14.93 1.63,9.34 5.64,17.11 10.62,22.82 4.95,5.78 10.48,9.55 14.37,11.99 3.94,2.42 6.33,3.59 6.31,3.62 0.01,-0.03 -2.61,-0.02 -7.36,-0.83 -4.7,-0.84 -11.74,-2.53 -19.49,-7.5 -7.72,-4.83 -15.8,-13.8 -19.96,-25.75 -2.1,-5.91 -3.35,-12.38 -3.7,-19.06 -0.08,-1.82 -0.15,-2.81 -0.05,-6.03 0.12,-2.98 0.4,-6 0.8,-8.92 0.4,-2.92 0.96,-5.79 1.63,-8.44l2.18 -7.74 1.51 -5.29c4.63,3.14 8.92,5.85 13.37,9.15 2.22,1.67 4.43,3.51 6.58,5.39 1.07,0.96 2.12,1.93 3.16,2.93z"/>
   <path class="fil0" d="M537.35 416.46c1.75,-9.13 15.88,-6.42 14.15,2.69 -1.73,9.14 -15.87,6.43 -14.15,-2.69z"/>
   <path class="fil0" d="M561.2 339.47c0.21,9.29 -14.19,9.61 -14.39,0.33 -0.21,-9.29 14.19,-9.61 14.39,-0.33z"/>
   <path class="fil0" d="M501.45 317.5c-0.32,-12.98 19.84,-13.46 20.12,-0.44 0.29,13.02 -19.84,13.46 -20.12,0.44z"/>
   <path class="fil0" d="M526.67 275.82c-0.01,-0.09 11.6,0.6 17.16,2.1 8.91,2.88 18.31,6.79 25.47,12.53 2.59,2.3 4.9,4.81 6.8,7.49 4.9,6.77 7.25,14.44 7.74,21.39 0.47,6.96 -0.47,13.33 -2.47,18.82 -2.01,5.51 -5.25,9.92 -8.79,12.95 -7.24,6.16 -14.72,6.88 -19.13,6.87 -4.59,-0.11 -6.82,-0.85 -6.83,-0.79 -0.01,-0.05 2.38,0.39 6.96,-0.03 4.4,-0.49 11.53,-2.21 17.32,-8.65 5.82,-6.24 8.78,-17.35 6.38,-29.45 -1.21,-5.94 -3.99,-11.91 -8.66,-16.83 -0.81,-0.87 -1.72,-1.67 -2.64,-2.43 -0.02,0.08 -15.76,-12.61 -37.05,-10.58 -0.36,0.03 -15.23,-1.45 -25.16,9.78 -7.43,8.39 -25.21,22.29 -22.98,70.82 0.95,0.59 1.93,1.19 2.88,1.86 0.8,0.55 1.57,1.17 2.34,1.83 0.59,0.52 1.13,0.98 1.66,1.51 0.01,-1.3 0.05,-2.62 0.13,-3.92 0.5,-6.36 2.45,-11.88 5.11,-16.81 2.65,-4.91 6.13,-9.15 10.27,-12.13 4.05,-3.06 9.28,-4.38 12.57,-4.02 3.31,0.32 4.65,1.19 4.67,1.12 0.04,0.05 -1.78,-0.1 -4.24,0.65 -2.46,0.71 -4.29,3.06 -6.62,5.68 -5.74,6.49 -9.42,18.03 -9.39,35.32l1.86 19.26c0.18,0.89 0.35,1.79 0.47,2.63 1.04,7.48 3.09,19.47 3.14,19.44 -0.04,0 -6.04,-11.88 -10.59,-18.05 -3.06,-4.17 -7.16,-9.31 -11.96,-14.62 2,8.85 5.36,17.39 9.7,25.47 2.75,5.05 4.57,11.33 7.7,16.5 -14.17,-16.53 -23.19,-34.6 -27.92,-52.46 -0.88,-0.67 -1.82,-1.36 -2.76,-2.02 -2.19,-1.46 -4.51,-2.79 -6.8,-3.93 -4.61,-2.27 -9.1,-3.71 -12.87,-3.95 -3.79,-0.3 -6.99,0.82 -8.99,2 -2.01,1.18 -2.97,2.09 -2.99,2.07 0.05,0.01 -0.01,-1.14 0.98,-3.13 0.91,-1.93 3.56,-5.09 9.38,-6.54 5.71,-1.46 13.03,-0.93 19.94,1.02 0.43,0.11 0.83,0.25 1.23,0.37 -0.37,-2.68 -0.67,-5.34 -0.86,-7.98 -4.87,-66.5 47.62,-80.92 57.82,-81.18z"/>
   <path class="fil0" d="M556.24 211.59c-5.34,-18.1 -8.09,-39.36 -6.07,-61.26 0.21,-2.55 0.5,-5.08 0.83,-7.58 -1.14,1.83 -2.26,3.77 -3.26,6.01 -2.61,5.81 -4.53,12.98 -5.4,21.22 -1.72,16.4 0.4,37.1 7.31,59.42 1.74,5.61 3.92,10.95 6.38,17.16 2.38,6.12 4.71,12.52 6.74,19.38 1.75,6.01 3.36,12.25 4.1,19.4 -5.72,-3.51 -11.72,-6.36 -17.97,-8.45 -0.43,-2.54 -0.9,-5.09 -1.43,-7.59 -1.46,-6.49 -3.2,-12.79 -5.05,-18.92 -1.85,-6.02 -3.84,-12.59 -5.09,-18.7 -5.18,-24.59 -5.03,-46.44 -1.2,-63.59 1.96,-8.56 4.9,-15.9 8.45,-21.65 2.27,-3.69 4.75,-6.63 7.2,-9.04 2.64,-16.86 7.15,-32.41 10.58,-46.57 2.17,-8.88 3.89,-17.31 4.84,-25.29 0.96,-7.94 1.13,-15.41 0.66,-22.25 -0.88,-13.66 -4.08,-24.55 -6.56,-31.91 -2.54,-7.38 -4.38,-11.36 -4.35,-11.36 -0.03,0.02 2.37,3.64 5.87,10.71 3.43,7.07 8.01,17.77 10.32,31.95 1.15,7.09 1.64,15.02 1.27,23.46 -0.34,8.45 -1.59,17.37 -3.32,26.58 -2.19,11.68 -5.07,23.81 -7.34,36.43 0.14,-0.06 0.27,-0.12 0.4,-0.18 -0.06,0.24 -0.11,0.47 -0.16,0.71 -0.13,0.08 -0.24,0.15 -0.38,0.24 -1.24,6.98 -2.3,14.1 -2.89,21.36 -1.89,20.68 0.01,40.48 4.15,58.09 4.09,17.66 9.71,33.46 13.05,47.21 3.48,13.72 4.63,25.27 4.67,33.13 0.04,7.91 -0.61,12.2 -0.57,12.21 -0.18,0.1 0.3,-17.71 -9.17,-43.83 -4.51,-13.11 -11.35,-28.32 -16.62,-46.48z"/>
   <path class="fil0" d="M526.84 202.99c-1.42,2.84 -2.38,6.67 -2.51,11.28 -0.15,4.61 0.53,9.94 1.85,15.87 2.55,11.95 8.05,25.94 12.86,43.5 0.03,0.15 0.07,0.29 0.1,0.45 -2.01,-0.46 -4.05,-0.82 -6.12,-1.04 -0.04,-0.01 -0.06,-0.03 -0.11,-0.03 -0.18,-0.01 -0.35,-0.01 -0.51,-0.02 -1.96,-0.21 -3.98,-0.31 -6.05,-0.27 -0.06,0 -0.1,0.02 -0.15,0.03 -2.53,-15.97 -5.81,-30.26 -6.48,-42.33 -0.43,-6.37 -0.19,-12.16 0.81,-17.05 0.99,-4.9 2.85,-8.82 4.84,-11.52 2.02,-2.72 4.05,-4.32 5.42,-5.24 1.38,-0.94 2.16,-1.32 2.16,-1.33 0.01,0.02 -0.71,0.55 -1.9,1.75 -1.18,1.19 -2.83,3.08 -4.2,5.97z"/>
   <path class="fil0" d="M532.08 322.56c-2.85,2.55 -6.04,4.44 -9.31,5.89 3.96,-2.23 6.86,-6.32 6.72,-12.29 -0.11,-4.76 -2.09,-8.26 -4.95,-10.49 0.87,-1.4 1.59,-2.99 2.1,-4.83 0.7,-2.43 1.03,-5.18 1.15,-7.96 6.76,-1.4 15.55,1.02 15.55,1.02 -1.8,7.86 -5.67,23.81 -11.25,28.67z"/>
   <path class="fil0" d="M564.09 304.16c-1.77,3.15 -4.56,5.73 -7.93,7.18 -1.69,0.76 -3.5,1.19 -5.36,1.41 -1.9,0.26 -5.44,0.28 -8.64,3.87l5.85 -22.44c0.48,0.06 12.8,5.14 16.68,8.91 -0.18,0.39 -0.37,0.74 -0.59,1.07z"/>
   <path class="fil0" d="M478.13 246.19c-0.01,0.07 -0.06,-0.06 -0.01,0.33l0.21 1.52c0.13,1.01 0.28,1.98 0.45,2.87 0.72,3.67 1.81,6.56 3.61,8.41 1.74,1.94 4.22,2.82 5.99,3.22 1.77,0.4 2.87,0.47 2.86,0.48 -0.01,-0.02 -0.89,0.6 -2.77,1.21 -1.85,0.58 -5,1.29 -8.92,-0.25 -1.93,-0.78 -3.87,-2.14 -5.48,-3.9 -1.62,-1.78 -2.94,-3.89 -4,-6.17 -0.54,-1.14 -0.99,-2.33 -1.38,-3.55 -0.23,-0.62 -0.4,-1.22 -0.57,-1.85 -0.07,-0.2 -0.21,-0.89 -0.33,-1.41l-0.32 -1.68c-0.83,-4.6 -1.06,-9.21 -1.47,-14.04l0.38 0.09c4.91,1.37 9.72,2.75 14.12,4.15 1.34,0.42 1.61,0.55 2.26,0.8 0.61,0.26 1.17,0.51 1.76,0.76 1.16,0.52 2.29,1.11 3.34,1.75 2.18,1.32 4.19,2.88 5.75,4.7 1.59,1.84 2.69,3.91 3.28,5.82 1.15,3.89 0.53,6.93 0.06,8.8 -0.52,1.93 -1.05,2.87 -1.02,2.89 -0.02,0.01 -0.19,-1.08 -0.69,-2.89 -0.51,-1.74 -1.43,-4.27 -3.23,-6.33 -1.82,-2.09 -4.45,-3.51 -8.05,-4.61 -0.9,-0.27 -1.83,-0.53 -2.83,-0.76l-1.53 -0.39c-0.45,-0.1 -1.33,-0.32 -1.11,-0.22 -0.13,0.11 -0.05,0.22 -0.05,0.22 -0.01,-0.01 -0.11,-0.1 -0.27,-0.02l-0.05 0.05z"/>
   <path class="fil0" d="M493.54 279.77c1.17,-1.05 1.77,-1.76 1.78,-1.75 -0.02,-0.01 -0.05,0.9 -0.55,2.54 -0.5,1.56 -1.55,4.13 -4.59,6.11 -1.47,0.97 -3.36,1.63 -5.4,1.88 -2.03,0.28 -4.18,0.17 -6.27,-0.24 -1.06,-0.19 -2.11,-0.44 -3.16,-0.76 -0.51,-0.18 -1.04,-0.34 -1.55,-0.54 -0.17,-0.05 -0.75,-0.29 -1.15,-0.45l-1.34 -0.63c-3.61,-1.68 -6.94,-3.8 -10.5,-5.91l0.24 -0.2c3.38,-2.74 6.7,-5.43 9.84,-7.82 0.96,-0.74 1.17,-0.84 1.7,-1.17 0.45,-0.29 0.93,-0.59 1.39,-0.86 0.94,-0.53 1.9,-1.05 2.87,-1.47 1.98,-0.89 4.08,-1.49 6.11,-1.71 2.06,-0.2 4.05,0.05 5.67,0.59 3.3,1.12 5.08,3.02 6.17,4.32 1.08,1.31 1.48,2.12 1.49,2.1 -0.01,0.02 -0.83,-0.39 -2.34,-0.93 -1.47,-0.51 -3.68,-1.1 -6.01,-0.85 -2.31,0.23 -4.61,1.37 -7.14,3.32 -0.65,0.5 -1.28,1.03 -1.95,1.62l-1.02 0.89c-0.28,0.25 -0.88,0.74 -0.69,0.66 0.02,0.14 0.14,0.14 0.14,0.14 -0.01,-0.01 -0.14,0.02 -0.14,0.16l0.01 0.05c0.05,0.05 -0.06,0.01 0.21,0.18l1.15 0.6c0.75,0.39 1.5,0.78 2.23,1.1 2.91,1.32 5.45,1.96 7.65,1.62 2.2,-0.28 4.02,-1.57 5.17,-2.6z"/>
   <path class="fil0" d="M508.83 223.03c2.34,3.42 4.64,6.59 6.57,10.08l0.71 1.3c0.2,0.39 0.46,0.95 0.54,1.11 0.22,0.49 0.44,0.98 0.64,1.51 0.39,1.02 0.73,2.05 1.03,3.06 0.55,2.08 0.85,4.2 0.77,6.24 -0.05,2.02 -0.52,3.96 -1.31,5.48 -1.6,3.14 -3.95,4.35 -5.39,4.94 -1.53,0.6 -2.38,0.67 -2.37,0.69 -0.01,-0.01 0.61,-0.64 1.51,-1.88 0.89,-1.2 1.96,-3.08 2.02,-5.3 0.11,-2.19 -0.73,-4.68 -2.23,-7.48 -0.4,-0.71 -0.81,-1.44 -1.25,-2.16l-0.7 -1.11c-0.16,-0.26 -0.12,-0.16 -0.17,-0.19l-0.06 -0.01c-0.13,0.02 -0.15,0.14 -0.14,0.15 0,0 -0.01,-0.12 -0.15,-0.13 0.08,-0.17 -0.37,0.43 -0.59,0.73l-0.74 1.06c-0.5,0.71 -0.95,1.37 -1.34,2.04 -1.66,2.63 -2.55,4.98 -2.56,7.33 -0.03,2.32 0.76,4.49 1.39,5.92 0.63,1.45 1.1,2.27 1.08,2.27 0.01,-0.01 -0.8,-0.39 -2.13,-1.34 -1.3,-1 -3.3,-2.69 -4.66,-5.88 -0.67,-1.57 -1.08,-3.53 -1.07,-5.59 0,-2.06 0.4,-4.15 1.07,-6.17 0.32,-1.01 0.7,-2 1.15,-2.95 0.21,-0.5 0.44,-0.96 0.66,-1.43 0.3,-0.54 0.38,-0.75 0.98,-1.75 2,-3.29 4.27,-6.76 6.59,-10.26l0.16 -0.29z"/>
   <path class="fil0" d="M499.15 268.8c-0.21,-9.3 14.16,-9.62 14.4,-0.32 0.2,9.27 -14.19,9.62 -14.4,0.32z"/>
   <path class="fil0" d="M584.68 522.93c-1.17,-8.72 -3.99,-18.8 -9.75,-28.39 -2.58,-4.37 -5.77,-8.63 -9.5,-12.67 -2.91,-3.18 -6.17,-6.2 -9.71,-9.03 -1.82,-1.49 -3.7,-2.91 -5.67,-4.25 -5.35,-3.65 -10.92,-6.71 -16.53,-9.1 -5.54,-2.39 -11.26,-4.08 -16.88,-5.38 -11.2,-2.57 -21.74,-3.37 -30.51,-2.84 -8.78,0.48 -15.81,2.41 -20.47,4.33 -4.68,1.91 -7.03,3.63 -7.06,3.57 0.04,0.05 1.78,-2.29 6.02,-5.4 4.22,-3.16 11.13,-6.91 20.47,-9.2 9.31,-2.31 20.83,-3.24 33.5,-1.71 6.29,0.76 12.95,2.13 19.67,4.59 6.67,2.42 13.23,5.73 19.41,9.98 0.49,0.34 0.96,0.69 1.44,1.06 3.78,2.68 7.29,5.64 10.48,8.83 6.65,6.66 11.97,14.23 15.48,21.97 5.52,11.95 6.86,23.88 6.38,33.4 -0.48,9.59 -2.58,16.97 -4.21,21.91 -1.68,4.93 -2.93,7.5 -2.9,7.51 -0.02,0 0.41,-2.83 0.84,-7.95 0.36,-5.08 0.69,-12.47 -0.5,-21.2z"/>
   <path class="fil0" d="M562.11 454.69c2,-6.15 4.5,-12.17 7.24,-18.16 1.36,-3.02 2.75,-5.94 4.15,-8.83 0.75,-1.5 1.32,-2.67 1.89,-3.93 0.54,-1.25 1.04,-2.52 1.48,-3.8 1.77,-5.12 2.74,-10.43 3.01,-15.52 0.59,-10.2 -1.67,-19.59 -5.45,-26.47 -3.75,-6.94 -9.05,-11.26 -13.1,-13.51 -4.08,-2.27 -6.8,-2.87 -6.74,-2.93 -0.02,0.07 2.69,-0.22 7.53,0.95 4.77,1.16 11.84,4.4 17.85,11.63 6.01,7.1 10.62,17.83 11.34,30.24 0.36,6.2 -0.21,12.83 -2.07,19.43 -0.46,1.65 -1.01,3.32 -1.62,4.95 -0.63,1.63 -1.38,3.33 -2.01,4.68l-3.94 8.71c-2.65,5.86 -5.21,11.54 -7.38,16.96 -0.79,1.97 -1.48,3.87 -2.14,5.8 -3.19,-3.18 -6.7,-6.14 -10.47,-8.82 0.15,-0.47 0.28,-0.91 0.43,-1.35z"/>
   <path class="fil0" d="M564.54 485.28l-0.86 3.42c-0.54,2.27 -0.87,4.56 -1,6.82 -0.28,4.51 0.2,8.82 1.18,12.62 1.93,7.68 5.9,13.23 9.24,16.41 3.39,3.23 5.9,4.39 5.85,4.44 0.03,-0.07 -2.71,-0.35 -7.1,-2.72 -4.34,-2.34 -10.32,-7.31 -14.33,-15.76 -2.02,-4.2 -3.54,-9.18 -4.07,-14.74 -0.29,-2.77 -0.34,-5.68 -0.05,-8.68 0.32,-2.9 0.62,-5.49 1.02,-8.45 0.11,-0.77 0.28,-1.6 0.42,-2.42 3.54,2.85 6.77,5.87 9.7,9.06z"/>
  </g>
 </g>
</svg>
